<?xml version="1.0" encoding="utf-8"?>
<!-- Generator: Adobe Illustrator 24.3.0, SVG Export Plug-In . SVG Version: 6.00 Build 0)  -->
<svg version="1.1" id="Layer_1" xmlns="http://www.w3.org/2000/svg" xmlns:xlink="http://www.w3.org/1999/xlink" x="0px" y="0px"
	 viewBox="0 0 300 300" enable-background="new 0 0 300 300" xml:space="preserve">
<g>
	<g>
		<g>
			<path fill="#AA6148" d="M217.333,263.351c0,4.199-3.406,7.603-7.605,7.603H89.425c-4.2,0-7.605-3.404-7.605-7.603v-49.03
				c0-4.202,3.405-7.605,7.605-7.605h120.303c4.199,0,7.605,3.403,7.605,7.605V263.351z"/>
		</g>
		<g>
			<rect x="89.425" y="129.577" fill="#F4F4F4" width="120.303" height="77.14"/>
		</g>
		<g>
			<path fill="#AA6148" d="M81.869,67.383c-0.01,0.164-0.049,54.59-0.049,54.59c0,4.2,3.405,7.604,7.605,7.604h120.303
				c4.199,0,7.605-3.403,7.605-7.604c0,0-0.04-54.426-0.049-54.59H81.869z"/>
		</g>
		<g>
			<path fill="#BC715C" d="M97.242,263.351v-49.03c0-4.202,3.404-7.605,7.605-7.605H89.559c-4.2,0-7.605,3.403-7.605,7.605v49.03
				c0,4.199,3.405,7.603,7.605,7.603h15.288C100.647,270.955,97.242,267.55,97.242,263.351z"/>
		</g>
		<g>
			<path fill="#BC715C" d="M97.242,121.973c0,0,0.038-54.426,0.049-54.59H82.003c-0.011,0.164-0.049,54.59-0.049,54.59
				c0,4.2,3.405,7.604,7.605,7.604h15.288C100.647,129.577,97.242,126.174,97.242,121.973z"/>
		</g>
		<g>
			<path fill="#F4F4F4" d="M228.478,56.91c0,5.688-4.609,10.473-10.299,10.473H81.82c-5.688,0-10.298-4.785-10.298-10.473l0,0
				c0-5.689,4.609-10.299,10.298-10.299h136.359C223.868,46.611,228.478,51.222,228.478,56.91L228.478,56.91z"/>
		</g>
		<g>
			<path fill="#F4F4F4" d="M217.333,46.611c0,0,0-17.566-17.262-17.566H99.535c-17.715,0-17.715,17.566-17.715,17.566H217.333z"/>
		</g>
		<g>
			<path fill="#F9F9F9" d="M90.671,56.91c0-5.689,4.612-10.299,10.299-10.299c0,0,0-17.566,17.716-17.566H99.538
				c-17.716,0-17.716,17.566-17.716,17.566c-5.687,0-10.299,4.611-10.299,10.299c0,5.688,4.612,10.473,10.299,10.473h19.148
				C95.283,67.383,90.671,62.599,90.671,56.91z"/>
		</g>
		<g>
			<path fill="#AA6148" d="M161.127,180.823c-9.934,9.937-23.687,12.297-30.713,5.273c-7.02-7.026-4.664-20.775,5.275-30.711
				c9.936-9.936,23.684-12.297,30.708-5.272C173.424,157.139,171.066,170.888,161.127,180.823z"/>
		</g>
		<g>
			<path fill="#BC715C" d="M140.792,160.109c8.569-8.569,19.962-11.486,27.444-7.627c-0.524-0.847-1.119-1.652-1.838-2.37
				c-7.025-7.024-20.773-4.664-30.708,5.272c-9.939,9.936-12.295,23.685-5.275,30.711c0.967,0.967,2.071,1.739,3.266,2.355
				C129.083,181.007,131.869,169.03,140.792,160.109z"/>
		</g>
		<g>
			<g>
				<path fill="#BC715C" d="M133.279,187.347c-2.287,0-4.175-1.828-4.246-4.141c-0.071-2.359,1.77-4.329,4.119-4.403l0.546-0.018
					c6.945-0.208,10.113-0.301,11.395-11.833c1.72-15.521,13.129-18.512,18.923-17.904c2.337,0.239,4.036,2.337,3.8,4.686
					c-0.236,2.334-2.297,4.035-4.621,3.821c-1.418-0.111-8.497-0.109-9.656,10.343c-2.096,18.906-12.206,19.207-19.588,19.43
					l-0.537,0.016C133.367,187.347,133.323,187.347,133.279,187.347z"/>
			</g>
		</g>
		<g>
			<rect x="89.425" y="130.079" fill="#F9F9F9" width="16.011" height="76.638"/>
		</g>
	</g>
	<g>
		<g>
			<path fill="#161616" d="M209.728,275.49H89.425c-6.694,0-12.14-5.445-12.14-12.139v-7.682c0-2.505,2.03-4.535,4.535-4.535
				c2.505,0,4.535,2.03,4.535,4.535v7.682c0,1.692,1.377,3.068,3.069,3.068h120.303c1.692,0,3.069-1.376,3.069-3.068v-49.03
				c0-1.692-1.377-3.069-3.069-3.069H89.425c-1.692,0-3.069,1.378-3.069,3.069v20.426c0,2.505-2.03,4.535-4.535,4.535
				c-2.505,0-4.535-2.03-4.535-4.535v-20.426c0-6.694,5.446-12.14,12.14-12.14h120.303c6.694,0,12.14,5.446,12.14,12.14v49.03
				C221.868,270.045,216.422,275.49,209.728,275.49z"/>
		</g>
		<g>
			<path fill="#161616" d="M209.728,211.252H89.425c-2.505,0-4.535-2.03-4.535-4.535v-77.14c0-2.505,2.03-4.535,4.535-4.535h120.303
				c2.505,0,4.535,2.03,4.535,4.535v77.14C214.263,209.222,212.233,211.252,209.728,211.252z M93.96,202.181h111.232v-68.069H93.96
				V202.181z"/>
		</g>
		<g>
			<path fill="#161616" d="M209.728,134.112H89.425c-6.694,0-12.14-5.445-12.14-12.139c0.038-54.571,0.046-54.686,0.058-54.875
				c0.151-2.39,2.132-4.25,4.527-4.25h135.415c2.409,0,4.398,1.884,4.529,4.29c0.009,0.165,0.015,0.285,0.055,54.832
				C221.868,128.667,216.422,134.112,209.728,134.112z M86.397,71.919c-0.012,10.208-0.031,35.397-0.041,50.058
				c0,1.689,1.377,3.065,3.069,3.065h120.303c1.692,0,3.069-1.376,3.069-3.068c-0.01-14.665-0.031-39.846-0.041-50.055H86.397z"/>
		</g>
		<g>
			<path fill="#161616" d="M218.178,71.919H81.82c-8.179,0-14.833-6.732-14.833-15.009c0-8.179,6.654-14.834,14.833-14.834h136.358
				c8.179,0,14.835,6.655,14.835,14.834C233.013,65.187,226.357,71.919,218.178,71.919z M81.82,51.146
				c-3.177,0-5.762,2.585-5.762,5.764c0,3.218,2.638,5.938,5.762,5.938h136.358c3.124,0,5.764-2.72,5.764-5.938
				c0-3.179-2.585-5.764-5.764-5.764H81.82z"/>
		</g>
		<g>
			<path fill="#161616" d="M217.333,51.146H81.82c-2.505,0-4.535-2.03-4.535-4.535c0-7.645,4.651-22.101,22.25-22.101h62.426
				c2.505,0,4.535,2.03,4.535,4.535c0,2.505-2.03,4.535-4.535,4.535H99.535c-8.129,0-11.249,4.711-12.443,8.495h124.996
				c-1.156-3.825-4.174-8.495-12.018-8.495h-17.186c-2.505,0-4.535-2.03-4.535-4.535c0-2.505,2.03-4.535,4.535-4.535h17.186
				c17.241,0,21.797,14.457,21.797,22.101C221.868,49.116,219.838,51.146,217.333,51.146z"/>
		</g>
		<g>
			<path fill="#161616" d="M141.083,194.732c-5.322,0-10.215-1.77-13.875-5.427c-8.929-8.938-6.611-25.244,5.275-37.128
				c11.888-11.883,28.191-14.203,37.122-5.271c4.469,4.469,6.241,10.946,4.99,18.237c-1.153,6.718-4.797,13.423-10.259,18.886l0,0
				c-0.001,0-0.001,0-0.001,0.001C157.317,191.048,148.755,194.732,141.083,194.732z M155.796,150.603
				c-5.311,0-11.747,2.838-16.9,7.989c-8.014,8.012-10.429,19.14-5.274,24.299c5.153,5.15,16.283,2.737,24.297-5.275
				c0.001,0,0.001,0,0.001-0.001c4.149-4.147,6.896-9.121,7.733-14.005c0.74-4.308-0.136-7.962-2.463-10.29
				C161.35,151.479,158.747,150.603,155.796,150.603z"/>
		</g>
		<g>
			<path fill="#161616" d="M132.346,187.964c-2.439,0-4.454-1.938-4.531-4.395c-0.077-2.504,1.89-4.596,4.394-4.674l1.329-0.034
				c7.147-0.173,10.106-0.245,11.412-11.964c0.741-6.658,3.245-11.641,7.439-14.808c5.756-4.345,12.319-3.394,13.045-3.274
				c2.47,0.416,4.137,2.755,3.722,5.225c-0.415,2.455-2.722,4.103-5.179,3.729c-0.145-0.021-3.536-0.44-6.189,1.611
				c-2.087,1.615-3.373,4.482-3.824,8.522c-2.184,19.593-12.602,19.844-20.208,20.028l-1.267,0.034
				C132.442,187.964,132.393,187.964,132.346,187.964z"/>
		</g>
	</g>
</g>
</svg>
