<?xml version="1.0" encoding="UTF-8"?>
<svg id="uuid-987a779e-8355-4501-a625-e7f99a313983" data-name="uuid-2c7ef534-5265-4d42-859f-78e8fa2bb3ed" xmlns="http://www.w3.org/2000/svg" viewBox="0 0 800 800">
  <defs>
    <style>
      .uuid-feff0e9a-f3ee-4c93-917a-7e40269f7832 {
        fill: #1b0d0b;
      }

      .uuid-feff0e9a-f3ee-4c93-917a-7e40269f7832, .uuid-93f25b96-c49f-4cb9-ba3a-b2ea254929e3 {
        stroke-width: 0px;
      }

      .uuid-93f25b96-c49f-4cb9-ba3a-b2ea254929e3 {
        fill: #daa520;
      }
    </style>
  </defs>
  <path class="uuid-93f25b96-c49f-4cb9-ba3a-b2ea254929e3" d="M400,0C179.12,0,0,179.12,0,400s179.12,400,400,400,400-179.12,400-400S620.88,0,400,0Z"/>
  <path class="uuid-feff0e9a-f3ee-4c93-917a-7e40269f7832" d="M636.52,617.17c-11.77-44.01-112.7-79.48-237.16-79.48s-224.26,35.63-236.03,79.48c-5.32,19.67-11.29,56.75-16.28,92.7,68.84,56.27,157.03,90.12,252.96,90.12s183.96-33.86,252.96-90.12c-5.16-36.11-11.12-73.2-16.44-92.7h-.01Z"/>
  <polygon class="uuid-feff0e9a-f3ee-4c93-917a-7e40269f7832" points="399.68 511.08 335.83 519.63 338.9 540.75 399.52 586.05 461.1 540.75 464.17 519.63 399.68 511.08"/>
  <path class="uuid-feff0e9a-f3ee-4c93-917a-7e40269f7832" d="M462.72,454.82h-125.43c19.51,59.01,1.61,85.93,1.61,85.93l43.37,20.8h35.47l43.37-20.8s-17.9-26.92,1.61-85.93h0Z"/>
  <path class="uuid-feff0e9a-f3ee-4c93-917a-7e40269f7832" d="M400,99.31c-70.94,0-128.66,34.18-128.66,183.15,0,50.46,9.03,89.96,22.57,120.44,29.67,67.07,81.1,90.45,106.09,90.45s76.26-23.38,106.09-90.45c13.54-30.47,22.57-69.97,22.57-120.44,0-148.97-57.72-183.15-128.66-183.15h0Z"/>
  <g>
    <path class="uuid-feff0e9a-f3ee-4c93-917a-7e40269f7832" d="M266.51,289.56s133.33-74,133.33-128.17l.16-62.07c-78.52,0-133.49,41.27-133.49,190.25h0Z"/>
    <path class="uuid-feff0e9a-f3ee-4c93-917a-7e40269f7832" d="M399.84,99.31l.16,62.07c0,54.17,133.33,128.17,133.33,128.17,0-148.97-54.82-190.25-133.49-190.25h0Z"/>
  </g>
  <polygon class="uuid-feff0e9a-f3ee-4c93-917a-7e40269f7832" points="524.14 93.83 275.86 93.83 266.18 270.37 533.82 270.37 524.14 93.83"/>
  <g>
    <path class="uuid-feff0e9a-f3ee-4c93-917a-7e40269f7832" d="M398.39,165.09c-.97,0-1.61.64-1.61,1.61v90.29c0,.97.64,1.61,1.61,1.61s1.61-.64,1.61-1.61v-90.29c0-.81-.64-1.61-1.61-1.61h0Z"/>
    <path class="uuid-feff0e9a-f3ee-4c93-917a-7e40269f7832" d="M323.42,165.09c-.97,0-1.61.64-1.61,1.61v90.29c0,.97.64,1.61,1.61,1.61s1.61-.64,1.61-1.61v-90.29c0-.81-.64-1.61-1.61-1.61h0Z"/>
    <path class="uuid-feff0e9a-f3ee-4c93-917a-7e40269f7832" d="M473.36,165.09c-.97,0-1.61.64-1.61,1.61v90.29c0,.97.64,1.61,1.61,1.61s1.61-.64,1.61-1.61v-90.29c0-.81-.64-1.61-1.61-1.61h0Z"/>
    <path class="uuid-feff0e9a-f3ee-4c93-917a-7e40269f7832" d="M435.47,189.28c-.97,0-1.61.48-1.61,1.13v66.91c0,.64.64,1.13,1.61,1.13s1.61-.48,1.61-1.13v-66.91c0-.48-.64-1.13-1.61-1.13Z"/>
    <path class="uuid-feff0e9a-f3ee-4c93-917a-7e40269f7832" d="M360.5,189.28c-.97,0-1.61.48-1.61,1.13v66.91c0,.64.64,1.13,1.61,1.13s1.61-.48,1.61-1.13v-66.91c0-.48-.64-1.13-1.61-1.13Z"/>
    <path class="uuid-feff0e9a-f3ee-4c93-917a-7e40269f7832" d="M285.21,189.28c-.97,0-1.61.48-1.61,1.13v66.91c0,.64.64,1.13,1.61,1.13s1.61-.48,1.61-1.13v-66.91c0-.48-.64-1.13-1.61-1.13Z"/>
    <path class="uuid-feff0e9a-f3ee-4c93-917a-7e40269f7832" d="M510.44,189.28c-.97,0-1.61.48-1.61,1.13v66.91c0,.64.64,1.13,1.61,1.13s1.61-.48,1.61-1.13v-66.91c0-.48-.64-1.13-1.61-1.13Z"/>
  </g>
  <g>
    <circle class="uuid-feff0e9a-f3ee-4c93-917a-7e40269f7832" cx="400" cy="87.22" r="60.78"/>
    <circle class="uuid-feff0e9a-f3ee-4c93-917a-7e40269f7832" cx="482.39" cy="101.25" r="60.78"/>
    <circle class="uuid-feff0e9a-f3ee-4c93-917a-7e40269f7832" cx="317.61" cy="101.25" r="60.78"/>
  </g>
  <path class="uuid-feff0e9a-f3ee-4c93-917a-7e40269f7832" d="M416.77,415.64c-4.84-.64-16.77,4.03-16.77,4.03,0,0-12.25-4.68-17.09-4.03-7.74,1.13-19.19,14.51-19.19,16.61,0,0,16.28,8.38,36.28,8.38s36.28-8.38,36.28-8.38c0,0-11.61-15.48-19.51-16.61Z"/>
  <path class="uuid-feff0e9a-f3ee-4c93-917a-7e40269f7832" d="M409.83,426.28c-3.22-.16-7.26,2.74-9.83,2.74-3.06,0-7.74-2.9-11.29-2.58-21.12,1.29-24.99,5.8-24.99,5.8,0,0,16.28,14.67,36.28,14.67s36.28-14.67,36.28-14.67c0,0-4.35-4.68-26.44-5.97h-.01Z"/>
  <path class="uuid-feff0e9a-f3ee-4c93-917a-7e40269f7832" d="M399.68,511.08l-60.78,29.67s27.09,45.3,60.62,45.3,61.59-45.3,61.59-45.3l-61.43-29.67Z"/>
  <path class="uuid-feff0e9a-f3ee-4c93-917a-7e40269f7832" d="M490.45,542.52l-26.44-22.89-64.01,30.96-64.17-30.96-26.12,22.73-2.74,2.26s.64,205.4,93.03,205.4,93.03-205.4,93.03-205.4l-2.58-2.1h0Z"/>
  <g>
    <circle class="uuid-feff0e9a-f3ee-4c93-917a-7e40269f7832" cx="474.97" cy="618.62" r="9.67"/>
    <circle class="uuid-feff0e9a-f3ee-4c93-917a-7e40269f7832" cx="474.97" cy="693.59" r="9.67"/>
    <circle class="uuid-feff0e9a-f3ee-4c93-917a-7e40269f7832" cx="474.97" cy="768.56" r="9.67"/>
    <circle class="uuid-feff0e9a-f3ee-4c93-917a-7e40269f7832" cx="325.03" cy="618.62" r="9.67"/>
    <circle class="uuid-feff0e9a-f3ee-4c93-917a-7e40269f7832" cx="325.03" cy="693.59" r="9.67"/>
    <circle class="uuid-feff0e9a-f3ee-4c93-917a-7e40269f7832" cx="325.03" cy="768.56" r="9.67"/>
    <path class="uuid-feff0e9a-f3ee-4c93-917a-7e40269f7832" d="M280.69,602.02v179.77c1.45.48,2.9.81,4.35,1.29v-181.06h-4.35Z"/>
  </g>
  <g>
    <path class="uuid-feff0e9a-f3ee-4c93-917a-7e40269f7832" d="M273.76,286.98c-12.25,2.1-21.6,7.42-14.67,47.88,6.93,40.63,15.48,42.4,27.89,40.31l-13.22-88.19h0Z"/>
    <path class="uuid-feff0e9a-f3ee-4c93-917a-7e40269f7832" d="M526.4,286.98l-13.06,88.35c12.25,2.1,20.96.16,27.89-40.31,6.77-40.63-2.58-45.95-14.83-48.05h0Z"/>
  </g>
  <g>
    <path class="uuid-feff0e9a-f3ee-4c93-917a-7e40269f7832" d="M281.82,295.2c-.64-4.35-.81-8.38-.64-11.45.16-4.68.81-7.58.81-7.58l-15.16,5.64v6.93s1.61-.48,4.51-1.45c-.16,0-.32.16-.48.16,2.1,3.55,4.68,9.03,7.26,16.93-.16,0,5.8,4.35,3.71-9.19h0Z"/>
    <path class="uuid-feff0e9a-f3ee-4c93-917a-7e40269f7832" d="M533.17,281.82l-14.99-5.64s.64,2.9.81,7.58c.16,3.22,0,7.09-.64,11.45-2.1,13.54,3.71,9.19,3.71,9.19,2.42-8.06,5.16-13.38,7.09-16.93,2.58.97,4.03,1.29,4.03,1.29.16-2.42.16-4.68,0-6.93h-.01Z"/>
  </g>
</svg>