<?xml version="1.0" encoding="UTF-8"?>
<svg id="uuid-4ab55464-ce5e-4f2d-bfb0-0c25c7422a7d" data-name="Capa 1" xmlns="http://www.w3.org/2000/svg" viewBox="0 0 853.4 651.1">
  <defs>
    <style>
      .uuid-dbe3e9fa-8504-41fd-918f-1abed156b197 {
        fill: #1b0d0b;
      }

      .uuid-dbe3e9fa-8504-41fd-918f-1abed156b197, .uuid-33fd5888-3e84-48c2-baf4-614b79e77f5f {
        stroke: #000;
        stroke-linecap: round;
        stroke-linejoin: round;
        stroke-width: .1px;
      }

      .uuid-33fd5888-3e84-48c2-baf4-614b79e77f5f {
        fill: #daa421;
      }
    </style>
  </defs>
  <path id="uuid-618be5f6-5e22-424e-ae10-6c24f64ac2e7" data-name="AL" class="uuid-dbe3e9fa-8504-41fd-918f-1abed156b197" d="M509.05,527.15l.5.4,2,2.9,1.4.5,1.9,1.3,1.4,3.2.1,2.2-.5,2.6.3,2.1-.8.8.7,2,.2,1.9,1.2,2.2,1.2,1.1,1.3,2.4,1.6-.2,1.3,1.1v1.1l1.1,1.8-.8,2.6-1.7.8-1.2,3.1-.3,2-.6.5-1.9.3-1.7,1.3,1,2.2-.9.7-.3,1.5-.7.7-2.7-.9-.7-2.5-1.7-2.7-4.9-2.6-1.2-1.1.4-1.5-.1-1.4-1.4-2.4.3-2.6.8-2.2-.3-2.7.1-2.1-.7-2.9.5-2.1.9-1.3-.2-2.2-1.5-1.1-1.6-.2v-3.1l-.3-.6h1.7l-1.7-2.8,3.2-5.3,1.1.3.8,2.1,3.4-1.2h0Z"/>
  <path id="uuid-241d795a-c970-4a4b-9b5a-ef67c5a850ff" data-name="AD" class="uuid-dbe3e9fa-8504-41fd-918f-1abed156b197" d="M277.75,527.85l-2.8,1.1-.7-.4v-2.1l.9-.7,2.6.6v1.5h0Z"/>
  <path id="uuid-abce0be3-221c-4e6b-8a1d-0d24d21d348b" data-name="AM" class="uuid-dbe3e9fa-8504-41fd-918f-1abed156b197" d="M828.95,571.45l-3.2-2.8-2.3-1.7-1.6-.7-3.5.4-2.9-.9-1.8-.9.5-.6-1.9-3-.8-1.9,1-1.4.2-2.3-1.7-3.3-1.7-1.2-1.3-1.6,4.4-.3,5.3-1.3,3.2.3,1.1-.2,3.5-.1-.5-.7,2.3-.5,1.3,1.5,1.6,1-.9.9,2.3,1h1.2l3.3,2.5v.7l-1.9,1.5-.2,1.1,3.2,3.4,2.4,1.4,3.2,1.5.2.9-.9,2.5h-3l.6.9,1.9,1.2,6.1,4.4,1.5-.3,2.2.9.2,1.3-1,1.4,1.9,1.4.8,1.5-1.8.5,1.4,1.5.5,2.6-2.2-.1-2.5.5-3-4.7.1-1-3.1-2.1.1-1.7-.8-1.2-1.7.2-1.9.9-2.9-1.6-1.2.2-.3-1.1-1.8-1.7-3.2.9h0Z"/>
  <path id="uuid-9b384272-4392-4f5a-804a-b46269dcf8c2" data-name="AT" class="uuid-dbe3e9fa-8504-41fd-918f-1abed156b197" d="M462.15,433.95l-.9,2.4.1.8,1.6,2.9,2.3,2.9-.6.7-.6,1.9.7,2-3.9.3-2.5-.9-1.3,1.4,2.6.7.5,1.1-.5,1.4-2.2,1.2.4,1.5-.5.7,1.1,1.6-.3,1.8-2.5.5-1.8,1.7-1.3.9-.1,1.9-2.4-.5-1.6.2-2.3,1.1-2.8-.2-2.6.2-1.9.7-1,1.3-3,1.2-5-.7-5-.9-2.6-.5-4-.3-8.6-1.5-1.1-.5-3.1-3.5v-2.3l-4.7,1.5-3.1-.2-3.4.3-1.4.6-1.2,2.2-1.1.4-2.1-.4-.9-.8-3-.3-.5-1.5-.8-.3-2,1.9-2.3-.4-1.5-.8-.4-1-3.3-.8.3-.8-1.1-2.5,1-3-.9-.7,1.7-.5.7-.5,3.5,1.6.9,1.4,1.2.3-.1,1.3,1.6-.5,1-1.6.2-1.9,2.8-.1,2.7.4,1.4,1.9,3.8-.5,1.1-.9,3.9-1.5,5.7-.5.1-1.4,2,.3,1.5.8,2.5-.5,1.1.5.2,1.1,1.2.9,1.7.4.3-1.5-.3-1.9-1.7-.3.6-1.3-.1-1.3-2.5-2.8.6-1.3,3.1-1.8,2.9-.8,1-1,.7-2.9,2.3.9,1.3-.9.2-2.8,2.2,1.2.8,1.3,3.9.4,1.4-.7,2.5.4.1-1.1,1.3-1.6h1.2l.3-3.2,1.2-.2,1.6.8,1.4-.4,4.8,1.7,1.5-.1,3,1.7,3.8.2,1.2-.9,5.1,1.5,1,1.6h0Z"/>
  <path id="uuid-240609a0-9021-45fd-ab73-c1f4199e1d5c" data-name="BE" class="uuid-dbe3e9fa-8504-41fd-918f-1abed156b197" d="M324.35,400.85l1.6-.5.8.8,1.2.1,3,2.3-.4,1.5,1.7.7.4,2-2.3,1.3-.6,1.7-1.7-.7-1.3,1.3-1.4,2.5-.2,1.7,2,2.4-1.1,1.7-3.4.4-2.8-2.6-3.3-1.5-1.7-.1-.4-2-.6-.6.8-2.7-1.9.6-.5,1.4-1.3.6-2.2.3-2.3-.3-.5-.6.7-1.4-.7-.7.4-1.6-1.6-1.1-3.6-.4-.9.3-.6-2-4.2-1.1-.5-2-1.6-1.8-3.2,1-2.9-2.4v-1.2l-.9-2.2,5.1-2.5,4.7-1.7.3,1.3,1.2.7,1.2-.6,3.9,1.1,3.2-1.5.6-1.2,2.1.3-.2-.9,1.4-.7,1.5.8,1.5-1,1.1,1.3,2.5-.8.5,1.6,2.6,1.4,1.9-.4,1.7,1.3,2.6,1.1-1,2.9-1.1,1.3.7,1.1h0Z"/>
  <path id="uuid-71243624-cfd7-48a5-9bf1-576487166fa4" data-name="BG" class="uuid-dbe3e9fa-8504-41fd-918f-1abed156b197" d="M613.95,508.65l.2,3.7-.9,1.8-2-.6-2.2.5-1,2-1.2,1.2v2.6l.4,4.2-1.6.7-2.9,3.7,3,1.8,1.7,2.2,2.4,2.5.5,1.2-1.7-.2-.9.4h-1.8l-1.5.6-3.4-2.5-3.5.3-1.5,1.1-3.4.4-1,2.2-1.9.3-.3,1.4-1.6-.5-1.6,1.1.7,1,.9,2.7-.2.8-2.5,1.2-1.8-.3-3.2.4-3.4.9-1.7-1.1-3.7-1.2-.9.6-2.4-1.4-1.2-1.7-1.6.5-4.2-.1-.2.9-1.9.2-3,1.1-2.6-.2-2.4.2-1,1-3-.2v-4.2l.5-1.7-.9-1-1.7-3.3-3.4-1.8-3.3-3.2,1-.3,1.1-1.7-1.4-2.9v-3.3l1.1-.6,1.8-.1,1.1-1.6,1.6-1.7.3-1.4-1.6-1-1.3-1.6-2.9-1.5-2.4-3.9-.6-2.4.4-2.3,2.1-1,.2-1.9.9-.7,4.3,2.5-1.8,2,.9,1.8,3.7-.6,3.9.3,5.3,1,3.5.4,2.5-.5,9.4,1.7,4.2.2,2.3-.6,1.6-.9,1.2-1.6,3.3-2.1,3.2-1.2,4.4-.9,2.9-.4,4.5,2.3,3.2.4.9.6,1.7-.5,2.5,2.6,2.2.7,2.6.5h2Z"/>
  <path id="uuid-6fd91233-f8c9-408e-af50-8ea50c5ee76a" data-name="BA" class="uuid-dbe3e9fa-8504-41fd-918f-1abed156b197" d="M492.55,491.25l2.8-.7,1.5.8-.5,2.5-1.6,2.7-.1,2.6.5.8,2.4,1.2,3.3,2.9-.3.8-3.1-.1-.5.8,3.2,3.7-.2,2.2-2.5-.3-.7.8-3.2.5,1.4,2.2-2.3.2-2,1.7-.5,1.7.1,1.5-1.7.2-.5.7.6,3,1.1,1.6-.1.8-1.1,1-1.7-.7-6.2-3.8-.6-.9-1.6.1-1.1-.6.3-1.6-3-2.5-1.5-1.6-.4-2.2-2.4-1.1-5-4.1-1.7-2-2.8-2.3-2.3-2.4-1.3-4-3.4-3.2-1.9-1.3-.1-1.4.3-5,1.2-.6,1.8.4,1.7,1.8,1.8,1,2.7-3.2,3.2.3,1.5-1.2,2.7,1.6,2.5.1,2.8.7,1.7-.6,1.6,1.3,2.2-1,1.8.3,1.8-.2,2.6.7,2.2.2,1.1.8,1.3,2.2,2.2.2Z"/>
  <path id="uuid-54b9afa0-2dd0-414e-80d8-0a5b4279f0f7" data-name="BY" class="uuid-dbe3e9fa-8504-41fd-918f-1abed156b197" d="M578.85,320.55l1.8,1.3,1.2-.4,1.9-.1,3.1,2.2,1.6-.9,1.5-.3,3.6,1.2.2,2.3,1.7,1.5,2.1-1.3,2.7-1.1h3.4l2.7.9,2.4,1.8,3.5,1.4.4,2.5-.6,1.8,2.1,2.1.5,1.3-1.3,2v2l4.1,2,.5.5-.5,1.8,1.4.6,1.8,2.4,1.5,1.4,4.9,2.1.7.8-.4,2.8,5.3.5,3.2,1.3v1.1l.7,1.1,2.8,1.4.6,1.7-2.6,1-.3.9-3,1.8-3.5-.2-2.4-1.5-2.9.1-1.4,2.7,3.9,3.3.6,1-.2,1.5,1,1.5.5,3.3,1.6,1.4,1.3,1.8-5-.1-1.4.8-1.7-.4-1.1.5-2.2,2.3-.8,1.2-1,3.3,1.8,3.6-.8,1.4-2.7-.9-.5-1.2-2-1.1-7.1.6-2.3.8-.6-.5-2.5-3-3.8,1.6-.6,1.1-1-.3-.8-1.3-5.1-1-1.9.7-1.9-.5-1.2,1.7-.8-1.4-1.1-.4-3,.1-1-.3-1.8-2.1h-2.3l-6.1-.9-6.5-1.5-7.8-.4-2.4.1-2.3.5-5.9.5-.8,1.4-1.6,1.6-1.9,1.2-1.1-.5-1.9-.3-1.1.5.1,1.4-1-1.6-.1-1.3.8-1.5-.4-1.1.2-2.4-.8-1-1.8-1-3.3-1.3v-1.2l2-2.7.8-.5,4-1.7.6-1.6-.9-3.9-1.7-3.6-2.9-4.9-2.1-5.1,2.9.4,1.6-.3,3.7-.3,1.6.9,3.3-1.3,1.8.1.8-2.6,2,.2,1.4-1.2,2.1-.5,1-.7,1.7,2.3,2-.2v-1l-.9-1.1-1.9-.5.5-2,1-1.5-.4-2.3,1.1-3,2.6-.6.8-.6,1-2,3.6.1.4-1.1,1.3-1-3.9-1,.7-3.1v-1.8l2.6-.6,1.2-1.5,1.1-.3,3,.4,3.1.1.4-1.7,2.5-2.4,1.4-.8,1.3-.2h0Z"/>
  <path id="uuid-7ca7954b-c377-4dc0-a275-9679c4634b27" data-name="CH" class="uuid-dbe3e9fa-8504-41fd-918f-1abed156b197" d="M368.45,448.15l.8,1.1,2.6,1.3h1.2l.9.7-1,3-.5,1.5.1,1.7,1.2.1,3.3.8.4,1,1.5.8,2.3.4,2-1.9.8.3.5,1.5-.5,3.1.5,1.8-1.9-.2-1-.9-1.3.3-.6,1.8,1.5,3.5-1.2.3-1.4-1.9-.7-.1-2.9,1.1-2-.8-.8-2.1-2,.1v2.9l-.5,1.1-2.2,2.6-.2,1,.7,1.7-1.2.7-.9-1.4-1.3-1.2.4-1.2-2.2-.6-2.4-2-.2-2.5-1-.6-3.4,2.9.6,1.5-1.6,2.2-2.4,1.4-3.1-.8-2.6,1-2.4.5-1.4-.7-.9-1.4-2.3-2.3.5-1.7-.8-2.2-2.2-.3-1.9.1-2.3,1.5.5,1.3-2.3,1.6-1.4-.1v-1l1.5-1,.3-1.5-.8-.7,1.1-2.9,3-2.2.5-2.9,2.1-.9,3.8-4,.6-.9-1.3-1.1,1.8-1.4h1.1l.8.8,2.7-.3.8-1.4,1.5-.7,1,.3,2.8.1,3.3-.6,2.6.2-.2-1.5,1.3-1.2h1.3l1.4,1,.8-.2,1.1.9,3.7-.2h0Z"/>
  <path id="uuid-aa64ecef-c6c4-4056-b8a6-5b1e6878aa25" data-name="CZ" class="uuid-dbe3e9fa-8504-41fd-918f-1abed156b197" d="M433.25,399.55l2.1-.4-.1-1.9,3.3.8.3,1.1,1,1.1,4.6,1.1,2.7,1.1.8.9,3.2-.7,1.8,1.2-.7,1.1-1.6,1.2,1.6.9,2,1.8,1.5,1.9,1,.4,3.5-2.5-1.7-2.4h1.3l2.2.6,3.3,1.9,3.6-.7v1.6l-1.4.5,2.7,2.3,1,.6,1.8-1,3.5,1.8.5-.2,2.7.8.5,1.8,2.8,2.2.5,1.6-2.8.3-2,1.5-.6.8-2.3,1.2-.7,3-1.6.8-2.1,1.9-1.5.7-1.7.2-3.6-.5-1.4,1.2-1.1,2.8-1-1.6-5.1-1.5-1.2.9-3.8-.2-3-1.7-1.5.1-4.8-1.7-1.4.4-1.6-.8-1.2.2-.3,3.2h-1.2l-1.3,1.6-.1,1.1-2.5-.4-1.4.7-3.9-.4-.8-1.3-2.2-1.2-.6-.7-2.9-2.2h-1.3l-1.3-1.6-2.5-1.5-2.9-2.6h-1.3l-2.3-2-1.8-2.7-1.4-1.5,1.2-1.7-.6-1.6-2.3-1.3-2.5-3.4.5-.7,1.9,2,1.9-2.6,1.1-.6,2.6-.6,2.1.4.8-1.3,2-.3.6-1,1.6-.7,1.1.1.6-1.2,4.4-1,3.5-1.5,1.9-.6-1.5-1.5.8-.6,2.2.4,1.5,1.5v.9l1.4.6.9-.7h0Z"/>
  <path id="uuid-d4b40d37-2d4f-4e50-869c-a8dd76f0208a" data-name="DE" class="uuid-33fd5888-3e84-48c2-baf4-614b79e77f5f" d="M422.25,354.25l-3.4-.1-.2-1.7-1.1-1-.1-1,4.7,2.6.1,1.2ZM387.45,346.15h-1.8l-1.4-.7.8-1,1.7.4.7,1.3h0ZM415.75,346.65l-1.3.7h-1.3l-1.3,1.3-2.1-1.1-.5-1.1.1-2.2.6-1.4,2-.9.9,1.2,1.7.6-.5,1.7,1.7,1.2h0ZM369.15,340.05l1.8.7,1.6,1.6.1,1.4-1.7,1.6,3.2-.3.8,1.2,1.7-.4,4.5,1.8,3.2-.9.7,1.4-.6,1.5-2.2,1.6,1.4,1.2,2.1-.2,3.6.9,3.3-2.5,1.1-.5,3.6-.3,5.1-4.5,5.3.9,1.5,1.9,3.7,2.1,3.2-.2,1.3,2,.8,2.5,1.9,1.3,2.8.5.7,2.6,1.8,4.1-.3,2.7-1.9,1.8-.7,1.6,1.6,1.4,3.3,2.1,1.4,1.7-.6,2.6,2,2.3.8,1.9-.7,2.6-.8,1.1,1.9,3.1v1.6l2.2.9,1.6,3.2-.4,2.3-1.6,3.6-.9.7-1.4-.6v-.9l-1.5-1.5-2.2-.4-.8.6,1.5,1.5-1.9.6-3.5,1.5-4.4,1-.6,1.2-1.1-.1-1.6.7-.6,1-2,.3-.8,1.3-2.1-.4-2.6.6-1.1.6-1.9,2.6-1.9-2-.5.7,2.5,3.4,2.3,1.3.6,1.6-1.2,1.7,1.4,1.5,1.8,2.7,2.3,2h1.3l2.9,2.6,2.5,1.5,1.3,1.6h1.3l2.9,2.2.6.7-.2,2.8-1.3.9-2.3-.9-.7,2.9-1,1-2.9.8-3.1,1.8-.6,1.3,2.5,2.8.1,1.3-.6,1.3,1.7.3.3,1.9-.3,1.5-1.7-.4-1.2-.9-.2-1.1-1.1-.5-2.5.5-1.5-.8-2-.3-.1,1.4-5.7.5-3.9,1.5-1.1.9-3.8.5-1.4-1.9-2.7-.4-2.8.1-.2,1.9-1,1.6-1.6.5.1-1.3-1.2-.3-.9-1.4-3.5-1.6-.7.5-2.2-1.2-5.1-2.3,1,1.6-3.7.2-1.1-.9-.8.2-1.4-1h-1.3l-1.3,1.2.2,1.5-2.6-.2-3.3.6-2.8-.1-1-.3-1.1-1.3v-1.5l.6-2-.2-2.4.3-1.5,1-1.8,1.4-5.5,3.5-3.8-.1-1.3-1.6-.6-4.8-.8-2-1.4-3,.6-2.1-.1-.3-.9-1.4-.4-1.8.7-3.5-4.3-1.4-.1.6-3,.9-.9v-1.4l-2.8-1.1-1.5-1.6-.3-2.2.6-1.7,2.3-1.3-.4-2-1.7-.7.4-1.5-3-2.3.6-2.4-1.9-1.2.5-.8,2.2-1.6-.7-1.2,1.3-2.8v-1.2l-3.1-4.1.7-1.1,1.8-.7,2.3.8,4.5-1.3.7-1-1-.9.3-.9,2.6-1.6.6-2.6-.8-1-2.6-.3-.7-1,.6-1.6,3.1.1,1.1-3.8.7-1.7-.1-4.3-1.7-1.4.5-2.7,1.1-1.4.9-.4,4-.3,4.5.1,1.9,2.2-.6,1.2,1.6.3.9-2.4,1.4.8,1.1-.1-.5-1.7.2-1.6.9-1.4,3.3.6,3.6-.3.1-.6-2.8-.5-.9-1.1-.2-3.9-1.5-.8-1.6.3v-1.5l3.4-1.1v-1l-3.4-3.8-.2-1.6,2.7.1,5.2,1.3,3.1-.7,1.5.4h0Z"/>
  <path id="uuid-5d650609-5477-4435-90fd-b4c5f74bef3d" data-name="DK" class="uuid-dbe3e9fa-8504-41fd-918f-1abed156b197" d="M387.85,339.05l2.1,1,2.4.3.4,1.9-3.5.7-5.1-2.1.1-2.5,2.3-.2,1.3.9h0ZM401.55,337.95l-2.3.1-1.9,1-.3-1.2,1.6-1,1.2.2,1.7.9ZM372.75,339.15l-1.2.2-1.7-.5-.6-2.3,2.7,1.1.8,1.5h0ZM380.75,341.15l-1.4-1.5,2.5-2.9.7-.2-1.8,4.6ZM430.85,337.15l-2.4-.2-2.4-1,.1-2,.5-.9,4.5,2.3-.3,1.8h0ZM378.75,328.45l2.3,4.3-.1,2.8-1.8,1.2h-2.1l-5.4-1.7-1.7-2.9-.1-2.3,4.8-1.4,2.6.8,1.5-.8ZM402.05,328.65l-1,.6-.7-.9.9-.9.8,1.2h0ZM378.15,325.85h-.9v-3l1.5,1.6-.6,1.4ZM400.75,325.85l.1,1.5-.7.7-2,.7-1.1,1.8,2,1.2.5,1.5-1,.7-2.6.7v5.6l-2.2.6-1.5-2.1-.1-.9-1.3-3.1-2-.4-2.2.1-1.5-1.8.1-2.1-1-2-1.3-.6.4-1.4,3.1-.2,1.5-1.9v-.9l1.8-.2.8.7.1,2.6,1.6.5,1.1-2.9-.9-1.1,3.9-2.2,1.1-.1,3,.9-.4,2.1.7,2h0ZM369.15,340.05l-1.5-.4-3.1.7-5.2-1.3-2.7-.1-.5-2.1-.8-1.4,1.1-.3-.9-3.9-3.2-1.3-2.5-1.4.5-5.6-1-2.3.1-6.9,1.3-.1,3.1.8,1.5.9.6-1.9,1.6-1.6,2-.8,1.6,1.3.3-4.5-1.6-.5-1.3.4-1.3,1.9-1,2.4-1.9.2-1.5.7-2.4-1.4.1-1.4,1.6-1.9,2-1.9h2.2l1.6-.6,3.9.1,2.8-1.3,2.8-3.6,1.5-1.5,3.3-.5,3-1.7-.8,2.5,1.2,1.7v3l-.9,1-1.4,2.5.2,5.6,2.5,1.5h4.1l1,1.1-.7,2.2-2.6,1.4h-.9l-1.4-1.1-1.1.9-1.2,5.1-2-.1-1.2.5,1.4,1.2-1.3.8-3.4,3.1,1.1,3.4-.2.9-1.5,1.3-.6,1.1,2.3.3,1.3,2.9h0Z"/>
  <path id="uuid-4105a527-e68b-4f7c-b250-2ccb5803fb5f" data-name="EE" class="uuid-dbe3e9fa-8504-41fd-918f-1abed156b197" d="M509.85,284.35l3.9.2,4,1.8-1.8.7-3.7,2.5-.3.5-2.6-.1-1.4.2-1,.9-.9,2.8-1.6.5-.3-.9,1.6-1.8-1.5-1.4-1.9-.7.9-1.8-1.6-1.6,1.5-.2,1,.5,2-.5.5-1,3.2-.6h0ZM518.15,285.35l-.9.2-2.4-1.1,1-1,1.9.5.4,1.4ZM512.75,281.35l-.8.7-.9-.6-.9,1.6-1.3.3-1.9-2.5-2.9-.5-1.3-.7,4.5-.4,1.2-1.6,1.3.1.4.9,2.1.3.9,1-.4,1.4h0ZM565.95,300.25l-1.9-.2-3.4-1-4,1.2-2.8-1.1-3.5-2.7-.6-.7-2.3-.5-5.6-2.5-1.1.7-1.5-1-8.4,2.8,1-3.4.1-3.6-2.3-.4-.9,1.3-1.3.3-4.1-1.3-1.2-2.1-1.6-1.1-.8-1.2v-1.8l-1.5-2,.7-1.1-.7-2.8,3-1.2,3.3-.2.9-1.3,2-1.3,2.3.2,3.1-1,6.3.1.4-1.7h3.2l7.6,1.2h1.8l2.8,1.2,1.4.3h4l6.3.5,1.2-1,1.5,1.2-1,1.4-1.2.4-.9,3.2-.8,1-1.7-.3-2.5.2-2,.5-1.3,1.1.1,1.1,2.6,2.3,1.4,2.8,2.6,2.2.8,1.3,2.4,2.9,1.8,2.5-2.3.6-1.2,2-.2,2h0Z"/>
  <path id="uuid-03affed1-5eb9-413a-bd16-c959df5fd76c" data-name="FI" class="uuid-dbe3e9fa-8504-41fd-918f-1abed156b197" d="M500.85,259.05l2,.2-.6,2.8-2.3-1.8.9-1.2h0ZM498.95,259.55l-2.1-.6.9-.8,1.2,1.4h0ZM492.45,256.85l-1.5.7-.3-1.7,1.8,1ZM517.95,193.95l-1.5.5-1.3-.3-.2-.9,2-.6,1,1.3ZM548.05,139.35l-3.7,1.3,1.6.8.8,1.2-2,3.2.1.6,3.1,4,7.2,1.7,2.3,1.8,3.6,2.3,1.8.9.1,1.9-3,3-2.6,3.1-1.2,1.7.4,1.7,2.6,2.1,2.3,2.2,3,3.5,3,2.5,3,4.2.4,1.4-3.7.7,1.2.9-.6,1.3.3,1.9-.5,1.5,1.9.3.3,1.3-1.7,1v.9l1.4,1.7,1,.6,3.2.6.9,1.6-1,1.7,1.8,2.2,4.5,1.8.7,1.3.2,1.7-2.4,3-2,.8.7.8,4.5,2.6,6.6,2.9,2.6,1.3,2.1,1.9,2.2,1.6.5,1-1.6,4.5-.7,1.2-2.2,2.2-3.4,2.8-2.3,2.3-5.3,5.9-1.9,1.5-2.1,2.2-4.9,3.3-.7.8-2.5,1.5-5.6,5.2-3.5,1-2.6-1.1-1.8.2-1.2.8-2.5.2-2,.6-1-.7-.7.6-1.9.2-2-1,.3,1.5-3.3,1.5-.8-.9-2,1-2.1.2-1.1.8-5.9,1.1-1.5,1.3-1.2-.3-6.7,1.1-2.9-.2-2.7,2-1.8.4,1.5-3-2.4-1.1-1.2-1.6-.7.4-.3,1.5-1.5.8-2-.1-.4-2.4.8-2.3-3.6-.6-3.8-1.4-.9-.1-.7-1.3-2,.9-2.1-.9-1.7-5.3v-1.3l.9-1.6-.1-3.4-.6-2,1.1-.6-.9-1.6-2.2-3-1.6-1.1.5-3.3-.6-1.6-1.9-1.1-1.1-2.9.6-2.4,2.4-2.2v-1.2l.9-1.1-.5-1.3,2.7-.5,1,.4,2.4-.4,1.9-1-1.1-1.8,1.5-.7,1.2-1.2-.1-1,2.3-.5,2.4-1.9,2.3-1.1,2.3-1.9,1.1-.1.3-1.3,2.5-1.9.8-1.6,2.3-1.8,2.2-3.9,3.8-1.2,3.8.3-.6-1.7,1-.3-.6-1.3-1-.6v-4.6l-1.3-.9-4.5-1.6-1.7-.1-1.2-1.2-4.6-.7-1.6-2.5-1.9-2.2-1.8-.6-1.3-2.6v-1.3l1.5-1.3-.1-1.8.7-1.4-.6-.9-3.3-2.6-.8-1.6.1-1.1,1-.8-.6-1.3-2.8-.4.3-1.9-.7-1.4-.4-2.4,1.1-1-1.8-.9-1.9-1.5-1.4-.1-1.2-1.6-3.5-1.8-8.3-1.7-4.2-1.8-4.8-2.3-2.9-1.1-.4-.9-2.9-.8.5-.4h2.1l1.9.4.5-.6-1-1.4,1.9-1.1h3.6l7.9,5.5,1.4,1.8,6.9.6.8.5,1.8-.1,3.7-.9,1.2-1.2,1.5.1,3.6,1.1,3.9.8,2.6.8,1.3-.6.5-1.7,1.6-1.3,2.1-.3,1.5-1.4-.7-3.2.6-1.7.7-3.8,2.6-1.7,1.7-1.8,2.1-.2,3.8.4.9-.2,3.5-1.6,2.9-.3,1.8,1.2,4.2,2,4.2,1.1,3.6.8,2.6,2.7-.7,1-3.2,2.9v.7l1.7,1.3h0Z"/>
  <path id="uuid-1c534afc-cefd-4b0f-a0b4-3f40cb19657b" data-name="GB" class="uuid-dbe3e9fa-8504-41fd-918f-1abed156b197" d="M243.45,402.15l-1.6,1.3-1.3.2-2.5-1.2v-.5l2.5-1.1,2,.6.9.7ZM206.95,362.45l1.3.9-3.4,1.9-1.2-.6-.9-1.2-.1-1.9,1.2-.5h1.8l1.3,1.4h0ZM183.65,351.05l-2.1.4h-2.9l.1-1.5-1.4-.5-1.8-2.7-1.3-.5-1.9,1.6.5.9-2.4,1.8-2.9-.3-.8-.7-2.1-.4-.2-1-2.7-2,1-1.4,2.9-.9-1-1.4.2-.8,1.6.1,2.2-.8,1.2-1.6,1-2.3,1.9-.9,1.3.6,1.9-2,2.8-.1,2.7-.7,3.9.3,1.1,1.1.5,1.7,1.3,1.7,1.7,1.4v.9l-2,1.1,3.5.3,1.2,2.5-2.1.3-.1,1.4,1.1.2-.6,1.4-2.6.6-1.4,2.2-1,.5-2.3-.5h0ZM197.35,330.85l-2.6-.5-.6-2,.9-1.4,1.8.7.6,1.3-.1,1.9h0ZM185.85,323.75l.7,3.4-2.4,1.3-.8-2.4-1.4,1,.2-1.9,1.5-.3,2.2-1.1h0ZM187.55,325.45l-1.1-1.2,1.6-2.2,1.7-1-.1,1.6-2.1,2.8h0ZM190.05,317.65l-4.6.8.6-3-1.9-.9.3-.9,2.1-.5,1.7,1.7,2.1.6-.3,2.2h0ZM173.85,306.25l-1.5-.2-.4-1.4.2-2.3,1.6.2.1,3.7h0ZM186.65,300.55l-.1,2.8,2.9.8,2-.1.4.6-3.3,2.7-.7-.1-.2-2.2-1.4.3-1.9-.3-1.2-1.9-2.7-.5-.9-1.1,1.4-.6.3-1.2,2.8-.6,1.5-.7.9,1,.2,1.1h0ZM174.75,297.95l1.2.9-1.1,1.3h-1.5l-2.2-1,.2-.5,3.4-.7h0ZM186.55,288.05l-1.6,2.6-1,.7-.2,1.7-3,1.6-3.2,2.4-1.4-1,2.6-1.7-2.1-1-.2-2.6.8-.7,1.4.7,1.9-.3-.7-1.2,6.3-3.2.4,2h0ZM221.35,285.85v1.2l-1.3,1.6-2.2,1.2-4.2,2.8-2.5,1.3-.5,1.6,1.4.1.2.8-2.2,1.6-.6,1.5,3-.4,5.3-1.5,3.6.5,2.6-.3,6.9.2,1.9-.3,2.3,1.3,1,1.7-2.8,3.4-.8,2.3-2,3.5-1.9,2-2,2.5-2.1,1.1-3.1.5,4.5,1.9-1.4,1.8-2.4.1-2.3,1.7-2.1.7,3.6,1.1,2.4-1,2.7-.1,5.2,1.9,3.6,3.4,2,1.5.5,1.1,2.1,6.9,1.5,3.8,1.6,1.8,4.5,1.6,1.1.6,3.4,3.3,3.4,2.4-1.4,1.5.4,1.2,2.1,2.9.3,1.6-1.3-.1-2.3-1.4-.3.7,5,3.3,1.6,2,1,2.7-.6,1.1-3,2.7,2.8,1.4,1.2-.2,2-2.1,1.7-.2,4.2.3,3.8,1,3.3,2.1.7,1.1.4,3.1-2.2,5.8-2.8,1.9-.5,1.7-2.1.9-1.7-.3-2.4,1.2,1.7.6v1.7l-1.1.6-2.5.2,1.1,2,2.5.4,4.3-.2,1.9.2-.2,2.7-.4.4-3.8,1.7-1,1.8-2.2-.1-1.1.7-5.7,1.9-4.9-.8-2.9.1-4,.6-4.2-1.2-1.8-.2-2.8,1.7-4.2.5-2-.2.9,1.5-.9.4-3.8-.5-1,.5-1.4-.2-2.7-1.4-2.6-.1-4.9,1.2-1,1.3-1.3,3.5-1.1,1.2-1.4.2-4.5-2.5-1.5.5-2.5.3-2.7.7-3.9,2.4-.9,1.5-1.3.2-1.1-.9-1.4-.3-2.3.8-.3-1.3,1-1,2.8-.7,2.5-1.9,2.2-2.3,4.6-3.8.8-3.1,2.7-.7,1.4-2.5,4.1-.6h2.8l2.8.5,2.9-.1,1.1-.7,1.9-2.4,3.6-3-4.7,1-3.8,2.3-3.2-.4-2.3-1.9-2.1-.8-2.1.4-.7-.9-2.4-1.7h-2.6l-3.6,1.7-2.6-1.2-.9-2.3.3-1.4,1.1-.7,2.5-.6,3.8-1.7,2.2-.7,2.8-1.9,1.2-2.3-.3-2,.5-1.4-.9-1.7.3-1.5-3,.3-2.7,1.2-.7-1.1,2.8-1.8,1-1.4,2.6-1.7,3.6-1.3,1.9.1,3.7-.7,2.7,1.3-.8-2.1,1.2-.4.1-2.4,1.6-2.2-1.2-.6.1-2,1.5-.8.7-2.6-1.7-.5-2.1.6-1.7-1.5-2.8-3.6-.3-1.4,1.6-3.1,2.3-2-1.9-.8-1.4.2-2.7,1.2-2,1.3h-2.1l-.8-.9-1.1.1-2.5,1.1-3.5-1.3-1.1,2.3-2.6-2.5-.3-1.9h1.3l1.2-2.4,2.9-4,.6-1.2-.5-1.4-1.9-1.5.3-2.6.8-1,1.5-.4-1.9-1.2-2.9.9-1.8.9.3-2-.6-.4-1.5,1.4.1,3.3-2.1,5.7-1.1.9-1.4-.5,1.1-3.9,1.4-2.5-.6-.3.3-3.6,1-2.9,1.7-3.8,2.2-3.5-4.1,2.7-1,.5-2.4-.4-.8-.7-1-2.3,1.8-.2,1.7-1.1-1.5-.7,1.5-.9,1.7-2.1.4-1.9-1-1.5-1.6-.6-.2-.9,1.7-1.9-.7-1.5,1.6-3.1,3,.1,1.9-.4-2.3-2,.7-2.9,3.7-.3-.8-1.8.3-2,1.6-.9,1.3.2,1,.9,2.6-.9.6.8,2.8-.6,3.7-.3,4.5-.6,2.2-.4,2.3.2-.6,1.7h0ZM220.75,281.85l-1.3.1-1.3-1.4,1.5-.3,1.1,1.6h0ZM222.05,278.45l2.7.6-.6,1.4-1.4-.7-2,.3-1.9-1,.4-2.1,1.7-.1,1.2.5-.1,1.1h0ZM225.75,276.15l-1,.3-.4-1.2-1.7-.6.4-.8,2.7,2.3h0ZM241.85,256.65l1.6,1.8,1,.5-1.3,3.8-.2,1.6-1,1.7-.8-.4.9-2.9-.5-1.1-1.7.3-.4-.9,1.6-1.4-.8-2-1.1-.2,1.5-1.6,1.2.8h0ZM244.75,257.05l-1.4-1.3,1.3-.6.1,1.9Z"/>
  <path id="uuid-bab1465e-2557-436c-b71d-47be5349fd83" data-name="GE" class="uuid-dbe3e9fa-8504-41fd-918f-1abed156b197" d="M827.25,546.75l-2.3.5.5.7-3.5.1-1.1.2-3.2-.3-5.3,1.3-4.4.3-1.3-1.2-1.9-.2-1.1-1.7-3.5-2.5-1.2-.4-.6-1.1-1.4-.3-1.4.4-.9,1.9-3.4-.8-3.6-.1-1.1,1-4.3-1.3,1.9-3,.4-1.7-.4-2.4-1.7-2.7-3.7-8-1.1-1.2-4-1.4-1.1-1.6-3.2-2.1-4.1-.9-4.8-2.9-2.9-1.7.9-2.1.8-.2,4.8.9,1.5-.4,5.9,2.5,3.6.7,3.1,1.7,6,.5,2.8-.6h1.8l2,1.1,2.4-.2,3.2,1.2,1.5,1.6,3.5,1.4,2.8.8,3.2,1.5.2,2.4,2.5.4,4.3-2.1,2.1-.7,1.8.2,1.9,1.9.8-2.2,4.6,1.7,2.1,1.8,2.8-.1,2.2,1-.2,4.2,2.9,1.4,1.6,1.2,3.4.7,3.1,1.5-1.2,2.1-1.2.3v1.3l1.1.8.9,1.5,4.5,2.6.9.8-.2,2-1.8,1.4-4.1-2-1.7.5-3.2-.9-1.4-1,.1-.7-4-1.4-1.9-.4-3,2.5h0Z"/>
  <path id="uuid-b4a4378c-45fa-4517-be0e-b818f4e82cd4" data-name="GR" class="uuid-dbe3e9fa-8504-41fd-918f-1abed156b197" d="M567.25,636.75h2.3l1.7-1,2.2,3.7,1.7-.1,3.5-.9,3.7.2,1.4,1,2.6.2,2.3.5,3.3-.7.4.4.1,2.8,1.2.2.7-.7,1.7-.6h1.8l1.6-.8-.4,3.5-.9.4-4.4-.1-8.1,1-5.3.4-.7-.2-.7-2.2-3.3-1.1-6.2-1-1.5-.4-3.1.2-1.1-1-.4-1.8.2-1.9,1.4.3.4-1.4,1.9,1.1h0ZM610.65,637.85l-1.6-2.1,1.1-.5,1.2,2.4-.7.2h0ZM555.95,626.45l-1.4.2-.7-2.2.5-1,2.1,2.1-.5.9h0ZM618.65,630.55l-1.7-.4.4-1.8-.7-1.6,2.3-2.7,3.2-1.3.9.9-.9,2.5-.9,1.3.4,1-1.6.2-1.4,1.9h0ZM599.65,620.25l-1.5,1.2-.9-.6,1.9-1.2.5.6ZM605.85,618.05v-.7l1.3-1.1,2.5-1,1.2.6-2.5,1.4-1.5.1-1,.7ZM583.65,612.65l-.9,1.3-1.3-.7.4-1.2,1.1-.6.7,1.2ZM587.25,614.25l-1.1.6-1.4-2.2,1.9-2,.9.7.1,1.8-.4,1.1h0ZM592.65,605.45l.6-1.6,1.6-.1v1.1l-2.2.6h0ZM570.95,604.75l-1-.4.4-1.2,1.1.5-.5,1.1h0ZM602.55,601.05l2.8.7-.7,1-1.6.9-1.7-.9-1.2-1.2,2.4-.5ZM525.85,601.15l.4,1.2-1.1,1-1.6-1.2-1.2-1.8.9-1.1.9,1.2,1.7.7h0ZM578.95,601.85l-1.4-.1-2.4-2.1.9-1.4.9,1.2,1.3.1.7,2.3ZM521.65,592.15l.3,1.8.9.3,1.3,1.6-.2,1.2-2.1-.8-1,.2-1.1-2-1.3.2.6-1.8,1.4.1,1.2-.8h0ZM592.45,594.65l-1.1.9-1.8-1.7,1.4-1.3-2.1-2.4-.1-1,2.1-.5,1.3.9.6,1.2.4,2.6-.7,1.3h0ZM522.25,588.55l-1.3.1-.4-.9.8-2.4,1.1.3.2,2.5-.4.4h0ZM556.85,583.15l.9,1.7,5.5,2.5,2.8.3,1.7,2.6-.2.6,1.5,3.8,1.1.9,2.7.3.4,1.9-.9.8-1.9-.7-2.1-1.6-.4-1.3-2.2-2.9-3.6-.2-1.5-.7-.6-1.7-1.5-.9-2-1.9-1.5-1.1-3-1.1-.6-.7,1.9-1.3,2.1-.5,1.4,1.2h0ZM594.75,577.35l-.1.9,1.9,1.5.7,1-1.2,2.1-4-.8-.8-.8,1.6-1.3-.9-.5-1.2,1.5-2.2-.7-.9-.9.7-1.4,1.5.1,1.7-.8v-.6l2.3-.2.9.9ZM513.45,575.75l-1.3.3-1.2-.8-1.2-1.9-2.2-2.2.7-1.1,1.6-.4,1.4,1.2-1.1,1.2.8.7.9,2.4,1.6.6ZM581.25,567.15l-.7,1.4-.1,1.3-3.8-.7-.3-2.3,2.2-.1.8.8,1-.9.9.5h0ZM583.65,560.25l-1.4.4-1.7-1.3,1.4-.5,1.7,1.4h0ZM571.75,557.25l-1.6.6-1.8-1.1,1.1-2.3,1.3.1,1,1.3v1.4ZM587.65,555.55l-.5-.7-2.1-1.2-4.6-.6-2.3-.9-.9.2-2-1-1.2.4-2.5,1.7-1.5-.2-1.6-1-2.2.4-1.7,1.9-1.8,1-1.8-.4h-2.3l-.2,1.1,2,2.1-.5,1,.5,1,2.1.1,2.5,1.3-.7.7-3.2-1.2-1.2-.1-1.2,1.2,3.5,2.7.5,1.4-.6.9-1.5-.8-2.5-3.2-3.1-.6-.4.6,1.2,2.4,2.9,1.7-.6.6-3-1-1.1-1.6-.4-2-5.5-2.8-1.4-2.8-2.2,1.3.4,2-.6,3.8.4,1.3,3.5,3.7,1.3,2.7,2.6,2.1,2.6,3.2.7,1.8-1.3,1.1-1.3-.5.3-1.9-2.2-1.2-1.9,1.2,1.5,2.3.5,1.2-.4,1.3-1.6.8-2.6.1,2.4,1.4,3.3,1,1.6,1.1,1.5.1,1.7,2.1,2.6.6,1.7,2.1,2,.5,1.7.8,1,2.1.3,2.9.6,2.1.1,1.7-1.1.5-1.3-1.6-4.2-3.6-1-.4-1,.7-2.9.5-1.9,1.3,1.5,1.3.1,1.2.8,1.5,2,.4,2,2.4-3,1-1.1.7-.8-.5-.2-1.2-4.3-2.2-.6.6.7,2.4,1.3,1.6,2.2,4.3,1.3,3.7-.2,2.1,1,1.5.1,1.5-1.7-1.2-2.2-2.5-.8-1.5-2.2.1-1.3,3.3.2,1.9-1.6-1.1-.2-2.9-2.1-2.8-.9-.4-1.3-1.9-1.5.6-.1,2.9-.4,1-2.2-1.9-2.3-3.5-.2-1.8,1.4-1.7-.3-1.2-1.6-2.5-2.1-1.5-1.2-.5-.7-1.6-2-1.3v-1l2-1.7,1-2.6,1.9.5,1.4-.2,2-2.4,1.6.1,3.9,2.1,4.2,1.2,2.1,1,1.2,1.1,1.6.3-.5-1.4.8-.4h2.1l.2-1.6-2-.6-.8.2-2.4-1.4-2.3-.8-2.2-1.5-1.2,1.3h-1.2l-3.4-.9-2.1.7-4.2.7-1.1-1.3-2.6,1-1-.7-1.9-4.2-1.7-1.9-1.2-.5-.2-1.9,1.5-.2,2.4.9.9-.6-.6-1.6-2.5-.2-1.8.5-2.8-2.2-1.5-1.7-2.2-1.1-1.7-3.4-2.6-2.6,2.7.9.7-.7.3-1.5.9-.7-1-2.2,1.7-1.3,1.9-.3.6-.5.3-2,1.2-3.1,1.7-.8.8-2.6-1.1-1.8v-1.1l4.6-.3.9-.6,2.3.6,2.4-1.3,1.7-2.5.8-.3,3-.4,3.3.6,2.9-1,.2-2.1,2-.3,3,.2,1-1,2.4-.2,2.6.2,3-1.1,1.9-.2.2-.9,4.2.1,1.6-.5,1.2,1.7,2.4,1.4.9-.6,3.7,1.2,1.7,1.1,3.4-.9,3.2-.4,1.8.3,2.5-1.2.2-.8-.9-2.7-.7-1,1.6-1.1,1.6.5,1.2.3,2.3,1.5.9,3.1-3.4,2.5.5,4.4-2.5,3.2-.8.4h0Z"/>
  <path id="uuid-52c2f039-113a-4fbf-92c0-24340d5044ad" data-name="HR" class="uuid-dbe3e9fa-8504-41fd-918f-1abed156b197" d="M465.55,520.25l2.3.4-1.1.9-1.2-1.3h0ZM478.45,521.75l1.6-.1.6.9,6.2,3.8,1.7.7,1.2,1.9-4.8-3.1-4.4-2.5-3.1-.7-4.3-2-.5-.9,5.8,2h0ZM472.15,518.25l-.8.1-5.6-.1-1.7-.3-.5-1.3,1.8.2.5.6,6.3.8ZM466.85,515.95l-2,.1-2.6-.8.3-1.1,4.8.6-.5,1.2ZM445.65,499.45l-.3.4-3.3-2.7-.3-1.9,2.8,2.7,1.1,1.5ZM440.75,492.95l-1.9-.2.8-1.1,1.1,1.3h0ZM436.55,494.45l-.9-.1-1.7-4.2.4-1.2-.8-2,.9-.3.5,2.1,1,.9-.1,1.6.7,3.2h0ZM440.25,489.55l-1.5.3-1-1-1.3-.2-1-1,1-.7.5-1.2,3.3,3.8h0ZM489.75,474.85l-.7,1.5,1.6,2.7.2,1.6,1.3.4-.4,2,1.2,1,3,1,.9,1.5-2.3.1-1.7.4.7,2.6-1,1.6-2.2-.2-1.3-2.2-1.1-.8-2.2-.2-2.6-.7-1.8.2-1.8-.3-2.2,1-1.6-1.3-1.7.6-2.8-.7-2.5-.1-2.7-1.6-1.5,1.2-3.2-.3-2.7,3.2-1.8-1-1.7-1.8-1.8-.4-1.2.6-.3,5,.1,1.4,1.9,1.3,3.4,3.2,1.3,4,2.3,2.4,2.8,2.3,1.7,2,5,4.1,2.4,1.1.4,2.2,1.5,1.6,3,2.5-.3,1.6-3.5-2.8-2.6-1.5-3.1-2.8-3.8-1.1-2.7-1.2-3.3.6-1.8-.2-.7-2.2-5.8-3.9-4.3-4-.8-1.3,3.1-1.2-1.4-.8-3.9-3.4-1.2-1.6-.1-4.1-.8-1.7-2.9-2.2-1.1-1.1-2.1-.7-1.4.9-.3,1.9-3,5h-1.3l-3.1-4.2-.5-1.9-1.3-3.9.7-.5.5.6,3.3.8,1.4-1.3,1.1.5,3.6-.1.6-.3,1.2-2.2,2.6,2.1,1.5.7,1.3-.5,2,.7,1.6.2,1.2-.4-.8-2.3.7-.7-1-1.1,2.1-1,2.1-.6.4-1.1-.2-2.2-.9-.9.4-1.4,4.4-1.7.7-1h2v-1.7l.9-.8,2.5.6,2.9,1.2,1.7,1.2.9,1.3,2.7,1.8,2.2,2.2,1.3.7,2.5.6,1.3,1.3,3.3.9,4.9.2,2.5-.9,1.1-1.4,2.9-.4h0Z"/>
  <path id="uuid-944558a0-c6dd-4d5a-8b00-115569c4c22a" data-name="HU" class="uuid-dbe3e9fa-8504-41fd-918f-1abed156b197" d="M525.35,436.85h1.5l1.4,2.3,2.2.8.9,1.1,2.3.4.9.7.7,1.7-2.2,2.3-4.6,1.1-1.9,2.4-1.2,1,.1,1.7-1.4,1.4-.7,2.5-1.4,1.5v1.2l-1.6,2.7.2,1.3-2.1,1.5-1.5,4.7-1.3.9-2.6-.3-2.5,2-1.4-.5-3.2.9-1-.5-2.8-.3-1.1.2-2.9-.4-1,.3-1.5,1.6-2.2,1-1.6-.5-2.1,1.3-2.9.4-1.1,1.4-2.5.9-4.9-.2-3.3-.9-1.3-1.3-2.5-.6-1.3-.7-2.2-2.2-2.7-1.8-.9-1.3-1.7-1.2-2.9-1.2-1.9-2.2-1.4-3.3-2.4-.1,1.8-1.7,2.5-.5.3-1.8-1.1-1.6.5-.7-.4-1.5,2.2-1.2.5-1.4-.5-1.1-2.6-.7,1.3-1.4,2.5.9,3.9-.3-.7-2,.6-1.9.6-.7,2.1.3,4.2,2.7,1.6.7,4.7.1,7-.4.6-1-.5-1.3.4-1,1.4-.7,4.3-.4,2.4-.6,1-1.5.7-.2,3.5,1.4,5-2.5,1.6-3.5,1.8-.4,2.7.1,2.5.6,4.6-.7,1.4.9,2.2,2.2.6.2,4.3-1.1h0Z"/>
  <path id="uuid-aaf17812-0242-494e-add0-73fc906ad19f" data-name="IE" class="uuid-dbe3e9fa-8504-41fd-918f-1abed156b197" d="M183.65,351.05l.7,1.1-2.2.4,1.5,5.2.6.9v4.1l.9,3.2.1,2.5-1.3,1.8-.9,2.1-.2,1.8-1.6,2.1-1.5.9,1.6,1.5-2.8.8-2.6-.3-1.3.8-3.9.2-3.7.7-1.7,1.8-2.5.7-1,1-2.3.8-1.7-1.2-1,.2.2,2.1-2.9,1.3-1.8.3-1,.7-5.8,1.4-1.9-.5-3.3.8-1.2-.1,1.6-1.8,1.6-1.3-3.8.6-1.4.5-.6-.6,3.2-1.9-3.3.1-3-.4-.4-1,2.9-2.3,2.4-.9-.1-.9-5.1.1.5-1.1,1.7-1,1.8-.1,1.5.6,1.1-.8-.6-1.7,3.9-2.3,3-.3,3.3-.7,3.3-.8-2.4-1.2-2.3,1.8-2.6.3-1.9-.5h-2.1l2.7-2,1.6-1.7-.8-.7,2-2.3,3.6-1-1.6-1.3-3.9.2-1.4-1.3-2.6.1.4-1.2-3.5-.2.5-1-.6-1.1,2.8-.6-.2-2,1.9-.8,2-.4.1-1.1-2-.2-2,.4.8-2.1-.8-1-.4-1.7-.9-1,2.8-.2,1.2-.5,4.7.1,1.9,1.3,1.7-1.2,4.8.9.6-2.6,3.8-1.5,1.2-2-3.7.4-3.6-1,.7-.8,2.1-.7,1.9-1.6-.3-1.1,1.7-2.7,3.1-.8h2.4l1.6-.9,1.2,2-1,1,.6.9,1.2-.8-.5-2.1.9-1.3,1.9-.3.6-.8,3.2,1.7-2.5,1.5-.5.7-1.9.9-1,2.3-1.2,1.6-2.2.8-1.6-.1-.2.8,1,1.4-2.9.9-1,1.4,2.7,2,.2,1,2.1.4.8.7,2.9.3,2.4-1.8-.5-.9,1.9-1.6,1.3.5,1.8,2.7,1.4.5-.1,1.5h2.9l2.1-.4h0Z"/>
  <path id="uuid-2522b008-d92e-4584-a5f3-afe8fe731c8b" data-name="IS" class="uuid-dbe3e9fa-8504-41fd-918f-1abed156b197" d="M94.65,176.95l1.2.1,2.8-.8,2.2-1.1.5,1.1-2.5,2.4,2.2.9,2,.3-.1,1.7-1.7,1.6.8.3,3.5-.5,1,2.3,1.5-.2,2.4.3,1.4,1.2,1.2-.3.5.9-.7,1.2-1.5.6,2.1,2.9v1.1l-1,.7h-1.3l-1,2.1-1.2,1.1-2,1-2.6-.5-1.1,1.5.2,1.4-1.3,1.3-5.3,2.1h-2.5l-2.6.5-6.2,2-4.7,2.8-2,.7-3.1.3-1.8.5-5.9.8-2,.5-1.2,1.1-.5,1.4-4,1.1-3.8.7-6.4-.5-5.4-1.3-4.5-.3-3.8-2.5-2.9-1-3.6-1.8-2.3,1.1-12.4.3-.8-.5-.2-2.1,1.1-.8,1.3,1.2,5-1.1,2.7-1.9,2.5-2.7-3.5,1.2-.2-1.9-.9-1.1-1.7-.8-.3-.8,1.1-.9-2.3-1.2-2.6.1-6.6-.5-3.8,1-2,.1-.9-1v-1.1l1.5-.3,1.8.1,4.1-.6,1.4-.6.8.5,3.6-1.1,1,.2,4-.2,4.4-.1,1.1-.8.4-1.1-2.8.9-3.7-.5-.6-.9,3.6-1.6,2.7-.8-.8-1.3-3.2.2-.7-.8-2.6-.4-1.8.3-.9-.5-2.4.6-5.2.9-3.3.9-3.1-1.1-2.4-.2,1.4-1.4,2-.1,1.7.8.1-3.2,1.2.3,2.8,1.1-.7-2.8,2.2.1-2.2-1.6.5-1,1.6-.3.8-1h2.4l2.3,1.1.2,1.4h2.1l1.1-.8.9.6.5,1.2h1.2l.4-2.2-3.6-1.1-.3-1.4,3.7-.1-1.7-1.1-3,.2-1.4-.4,2.6-1.2h3.4l1.4.2,2.3,1.7,2,.6,3.1,2.3,2.2.9v1.2l.7.8-2.3,3.4.9.7-.8,1.6,1.9.6,1,1.7.9-1.8,1.5-1.9,2.3-1.3.9.1.9,1,.9.1,1.4-2,.7-4.3,1.7-.9,1.8.7,1.3,1.6,2.6,2.1,1.8-.5.1-2.3,1-1.3,2-.3,2.2-.8,2.3-.2,1.7,1.4,1.2,1.4,1.7,1.1.7,1.8.9-.3-.2-1.7-1.4-2.6.3-.9,4.1.2,3,2.3,1.3-.3,3.6-2.8,2.3.8,1.8.1,2.8-.8.8-1.2-.9-2.3.6-.4,2.6-.6,2.7.1,2.6,2.1-.1,1,1.6.8h0Z"/>
  <path id="uuid-1568be80-a98d-47c5-9b27-3f5583491513" data-name="IT" class="uuid-dbe3e9fa-8504-41fd-918f-1abed156b197" d="M456.95,594.65l-1.2,2.5-2.8,4.3-1.5,5.1.3,2,1.6,1.4-.7.5,1.6,1.8.1,1.3-1.8,1.9-.4,1.7.1,1.5-2.9-.6-1.4.3-3.7-1.4-1.9-2.8-3-2h-3l-1.4-.5-2.9-1.9-3-1.4-2.6-2.1-1.7-.4-1.5-1h-2.9l-2.3-1.6-1.3-2.3,1.3-3.7,1.4-.8.9-1.2,2.3,2.3,1.8-.8,1.4-1.6,2.4.1.5.9,1.4.3,2.5,1.6,1.4.4,3.4-1,3,.4,2.8-.5,1.7-.6,1.2-1,1.4-.3,3.5.3,2-1.2.8.2,2-1.2,1.1,1.1h0ZM378.65,553.15l.7.9,1.8,5-.6,1.6-1.3,2,.8,2.8-.6,11.5-.6,2.9-.9.4-2.9-1.2-1.5.3-1.2-.6-.3,3-1.8,2.1-3-.2-.7-.6-2.4-3.8-.4-4.3.6-1.3v-2.5l1.1-.1v-1.7l-1.8-1.2v-1.9l.7-1.4-.1-2.6-.8-.9-.8-2.3-2.2-2.4.1-3.4,3.4.6,1.3-.3,3.1-1.5,2.1-2.5,1.4-.5,1.5-1.8.7.9,2.2.8,1.2,1.5.9.5-.7,1.4,1,.8h0ZM386.95,522.35l.3,1.4-2.5.5-1.1-1.1,2.9-.2.4-.6h0ZM424.85,465.75l-.2.9-3.3,2.3.7,1.4,2.3.7-1.6,2.1.3,1,1.3.2-.4,2,1.9,1.1,1.5,1.3.2,1.3-1.5.1.7-.6-2-2.2-2,.9-3.2-.9-2.1,2-1.5.4-1.7,1.1-3.2,1.2-1.8-.4-1,.7-.4,3.1.8.6,1.5,2.6,1.7,1.1-.7,1.9-.9.7-1.3-.5-.3,1.7.9,4.5,1.4,3.2,1.2,1.3,2.7,2.2,2.7,1.1,5.1,3.7,2.8,1.1.7.7,1.8,2.8,1.6,3.2,1.8,5.1,1.3,2.5,2.3,2.9,4.8,4.1,4.3,2.9,4,1.9,3,.3,7-.4,2.6.7.4,1.2-.4.9-2.9,2.1v1.7l1.5,1.2,7.1,3.2,7.2,2.6,2.2,1.4,2.7,2.1,6.4,2.9,1.1,1.4,4,3,1.8,2.4.5,1.8-1.5,4.4-1.6-.5-1.9-1.3-3.1-5.4-5-.5-2.9-1.3-.7-1.4-2.3-.4-1.3.9-1.4,2-1.5,3-1.5,4.3v1.7l1.1,1.7,2.9,1,2.4,1.5,1.6,1.6.3,3.8.9,2.1-.9,1.3-1.9-.3-2.5.7-1.7,1.4-.7,1.4.5,3.4-.3,1.4-3.3,2.5-1.6,2.5-1,2.3h-4.3l-1.1-1.5-.1-2.2.6-1.3,1.6-.7.9-2.8-.5-2,1.1-1.6,2.8-.7v-2.9l-1.4-1.3-1.4-5.1-2.4-4.3-1.4-3.8-1.1-1.8-1.4-1-3.7-.3-4.6-2.6-.3-1.1.6-1.1-1.1-2.8-2-1.7-2.6.6-1.2-.1-.1-1.5-2-1.3-2.7-.2-.7-.7-2.6-4-1.7-1.7-2.3.1-3.9-.9-2,.7-3.2-2.6-2.8-.9-5.7-5.3-1.8-2-3.5-2.2-2.3-3.2-1.8-1.2-4-1.4-.3-1.3-3.1-3.1-1.7-1-1.3-2.1-2.5-.5.1-2.7-1.2-3.5-1.7-2.2-1.2-5.3-.8-1.5-1.8-1.1-4-1.2-5.7-3.4-1.1-.1-3.4-1.3-2.1-.2-2.6,1.2-3.1,3.2-2.5,3.4-.9.6-3.4,1.2-3,.5-.2-1.5,2.1-2.6-.3-2-3.3.6-5.1-2.4-.9-.9-.1-1.4-.7-1.3,1.4-2.5.8-.7-.5-1.7-3.2-1.4-1.5-3.1.8-.4,1.9.2,1.7-1.3,1.2-.3.8-2.5-1.8-1.6-1.7-2.6-.9-.6-.1-1.6,2.6-1.7,1.4.7,2.4-.5,2.6-1,3.1.8,2.4-1.4,1.6-2.2-.6-1.5,3.4-2.9,1,.6.2,2.5,2.4,2,2.2.6-.4,1.2,1.3,1.2.9,1.4,1.2-.7-.7-1.7.2-1,2.2-2.6.5-1.1v-2.9l2-.1.8,2.1,2,.8,2.9-1.1.7.1,1.4,1.9,1.2-.3-1.5-3.5.6-1.8,1.3-.3,1,.9,1.9.2-.5-1.8.5-3.1,3,.3.9.8,2.1.4,1.1-.4,1.2-2.2,1.4-.6,3.4-.3,3.1.2,4.7-1.5v2.3l3.1,3.5,1.1.5,8.6,1.5,4,.3,2.6.5h0Z"/>
  <path id="uuid-81ea744b-ddf5-435d-9396-684e9ff675d2" data-name="LI" class="uuid-dbe3e9fa-8504-41fd-918f-1abed156b197" d="M373.75,457.55l-1.2-.1-.1-1.7.5-1.5,1.1,2.5-.3.8h0Z"/>
  <path id="uuid-4ebc8430-7833-4922-96a3-5d65b84f081a" data-name="LT" class="uuid-dbe3e9fa-8504-41fd-918f-1abed156b197" d="M562.25,327.55v1.8l-.7,3.1,3.9,1-1.3,1-.4,1.1-3.6-.1-1,2-.8.6-2.6.6-1.1,3,.4,2.3-1,1.5-.5,2,1.9.5.9,1.1v1l-2,.2-1.7-2.3-1,.7-2.1.5-1.4,1.2-2-.2-.8,2.6-1.8-.1-3.3,1.3-1.6-.9-3.7.3-1.6.3-2.9-.4-.8-3-1.1-.9-4.5-2.2-2.3-.7-.6.6-1.3-2v-2.1l1-3.1-1.3-1.3-1.4-.6-.9-1.3-5.7-.1-2.4-.6-3.9-1.4-2-1.2-1.8.2-.6-1.2.2-1.6-1.1-2.4-1.6-2.9-.7-3.8,2.8-1.7,3.6-1.9,4.7-1.4,5.9.5,4.3-.1,1,.9,1.6-.7,4.9.5,2.3.1,3.7.9,4.6-.4,1.7-1.3,2.3-.2,2.4,2.9,6.1,1,.9.4,5.4,3.1,2.6,2.1,1.5.7,2.3.5h0Z"/>
  <path id="uuid-eb99f531-42d0-479f-8873-37d618d43b97" data-name="LU" class="uuid-dbe3e9fa-8504-41fd-918f-1abed156b197" d="M329.75,410.75l.3,2.2,1.5,1.6,2.8,1.1v1.4l-.9.9-.6,3-1.3-.7-2,.6h-1.4l-2.1-1.2,1.1-1.7-2-2.4.2-1.7,1.4-2.5,1.3-1.3,1.7.7Z"/>
  <path id="uuid-8be8a65d-c7cd-45d9-b9db-34f5365eb9a6" data-name="LV" class="uuid-dbe3e9fa-8504-41fd-918f-1abed156b197" d="M565.95,300.25l1.9.3.5,1.1,3.2,1.7.7,2.2-.8,1.6-.3,3.1,1.8-.3,1,.6.3,1.2,1.7,2.1,1.3.8,1.9,4.2-.3,1.7-1.3.2-1.4.8-2.5,2.4-.4,1.7-3.1-.1-3-.4-1.1.3-1.2,1.5-2.6.6-2.3-.5-1.5-.7-2.6-2.1-5.4-3.1-.9-.4-6.1-1-2.4-2.9-2.3.2-1.7,1.3-4.6.4-3.7-.9-2.3-.1-4.9-.5-1.6.7-1-.9-4.3.1-5.9-.5-4.7,1.4-3.6,1.9-2.8,1.7-.8-2.8-.6-5.5.1-2.8,1.9-1.6.8-1.2.6-4.5,2.5-3.6,2.4-.4,3.1-1,3.5-.9,1.4,1.9,4.9,3,1.2,1,2.3,3.4,4.4,1.8,3.1-.6,3.6-2.4,1-1.1v-1.1l-1.2-4.7-1.1-2,.1-1.3,8.4-2.8,1.5,1,1.1-.7,5.6,2.5,2.3.5.6.7,3.5,2.7,2.8,1.1,4-1.2,3.4,1,1.9.2h0Z"/>
  <path id="uuid-c0e5f1d3-9933-4b6d-b6f4-dbec528d988a" data-name="MD" class="uuid-dbe3e9fa-8504-41fd-918f-1abed156b197" d="M605.75,482.25l-2-2.3.9-.7-1.4-5-.1-2.6.9-4.8-.5-2.9-1.4-2.3-1.4-2.9-3-2.1-1.3-1.7-2.1-1.8-2.5-3.2-1.5-1.3-3-4.9-2.5-3-2.5-1.6h-2.1l.2-.6,2.3-1.4.7.2,4,.1,1.2-1,.8.3,1.6-1,3.5,1,3.6,2.4,2.5.3.6,1.2,5.6.6,1.4,1.9,1.4,1,1.4-.7,1.4,1.4.6,2.3-.6,3.1.6,1.2,2.3,1.2,2.9,2v2.4l.9,1.9,2,1.3,2.1.8,1,1.6.2,2.9,2.9,1.7-.6.7-2.9.4-1.2-1.3-1.6.6-2.1-.8-1.9-.2-2.1-1-2.5,1.6.5,2.1,1,1.7-.4,2-2.3,1.7v1.3l-2.5,2.9.5,1.4-.4,1-2,.2-1.1.7h0Z"/>
  <path id="uuid-cb41899f-749b-4f20-9f6f-d5d1ca95d1ca" data-name="MK" class="uuid-dbe3e9fa-8504-41fd-918f-1abed156b197" d="M538.15,530.85l3.3,3.2,3.4,1.8,1.7,3.3.9,1-.5,1.7v4.2l-2,.3-.2,2.1-2.9,1-3.3-.6-3,.4-.8.3-1.7,2.5-2.4,1.3-2.3-.6-.9.6-4.6.3-1.3-1.1-1.6.2-1.3-2.4-1.2-1.1-1.2-2.2-.2-1.9-.7-2,.8-.8-.3-2.1.5-2.6,1.7.3.5-.8.2-2.6,3.4-1.5,1-.1,1.6,1.2,1.5-1.9,2.1-.4,2.2-.3,2-.9,1.9.3,2.3-.8,1.4.7h0Z"/>
  <path id="uuid-53084c1a-c905-4366-9d99-961695c71aa0" data-name="ME" class="uuid-dbe3e9fa-8504-41fd-918f-1abed156b197" d="M496.75,511.95l.4,1.2,2.6,1.7,1.9,2,3,1.6,2.1.5,5.3,2.9.1,1-1.6.4-.2.7-2,.4.9,1.5-.2,1.3-3.4,1.2-.8-2.1-1.1-.3-3.2,5.3-.8.3-2.5-.2,1.6,1.9,1.7.8.3.6v3.1l-2.1-1.2-.9-1.8-3.1-2.9-3.5-2,.1-1-1.6.1-1.2-1.9,1.1-1,.1-.8-1.1-1.6-.6-3,.5-.7,1.7-.2-.1-1.5.5-1.7,2-1.7,2.3-.2-1.4-2.2,3.2-.5h0Z"/>
  <path id="uuid-d226f6bd-f043-42f5-8450-40fa3eaf2d78" data-name="NO" class="uuid-dbe3e9fa-8504-41fd-918f-1abed156b197" d="M312.35,259.95l.1,1.7-1-.1-.7-1.1-.2-2,.7-.5,1.1,2ZM310.55,248.85h-1.8l.3-1.3.9-.3.6,1.6ZM343.05,216.95l-2.3-.2-1-.8,2.8-.8.7.5-.2,1.3ZM346.65,212.35l-.3-.9,2.7-.6.9,1-3.3.5h0ZM374.65,195.75l-4.2.3-.3-1.1,2.1-.8h1.2l1.2,1.6ZM381.45,185.25l-2,.3.1-1.1,1.8-.3.1,1.1h0ZM385.55,179.55l-.1-1.1,1-1.2,1,.4-.3,1.5-1.6.4h0ZM388.65,154.65l-1.5.7,1.1-2.6,1.1-.7.4,1.5-1.1,1.1ZM397.15,149.45l2.3.2-.5.8-1.4.3-1.1.8-1.9.2-1.9,1-1.6.3-.4-1.2.9-1h1.3l1-1.2,3.3-.2h0ZM409.55,140.45l2.2,2.1-.3,1.5-1.2.7-3.3.1-1.6-.9-2.2.6-1.6-1.1,1.6-1.4,2.6.4.5-1.7,1.7.3.4-1.5,1.2.9h0ZM415.85,145.45l1.3-1.1,1.5-.4.6-2.2,1.8-.5,1.6,1,.9,1.2-.2,1.1-3.1,1.2-2.5,2-1.6-.2-.7.7-2.4.6-1.7-.9-.9.9-1.4.4-1.2-.4-2.9,1.5-2.8.3-1-1.1,3.1-1.9,5.1-.6,2.9-2.3.4-2.5.6-.9-1.3-.6.2-1.7,2.4-1.7,1.3-1.4,1.5-.3.9,1.1-1.1,1.4-1.6,1.2,1.1,1.5.6,2.4-1.4,2.2h0ZM431.35,131.75l1.4.8,1.5-.3,2.3.7,1,1.5-1.2.9.4,1.7-3.8.5-.9-.5-1.5.9-1.4,1.4-2.2-.6.2-1.6-.3-2.3.7-.5,2.9.3-.4-2,1.3-.9h0ZM555.35,129.15l-1.8.4.2-1.8,1.6,1.4h0ZM462.95,125.35l-1.3.4-1.8-.3-.7-1,2.2-1,1.7.3-.1,1.6h0ZM447.85,125.65l1,.7,1.5-.5,1.1,1-1.4.8-.8,1.2-2,.1-2.9,2.3-.1.8-5,.5-1.5-.3,1.7-2.7h1.7l1.7-.8-.3-.8,2.5-2,.6-1.7,1.4-1s.8,2.4.8,2.4ZM452.65,123.65l1.4.2,1.3,1.6h-2.3l-2-1.8s1.6,0,1.6,0ZM489.95,119.35l.5,1.1-3.3,2.1-1.6.1-2.1-1.2.1-.8,1.9-.9.9.1,2.7-1.4.9.9h0ZM493.85,119.05l-1.8.5-1.7-.9-.2-1.6.8-.3,3.2,1.2s-.3,1.1-.3,1.1ZM487.45,115.85l-.4.8-2.7,2.1-2.2.7-1.8-.3-.8.6h-2l-2-.6-2-1.2,3.5-.1.6-.5h1.5l2.8-.4,1.1.3,2.1-1.4h2.3ZM548.05,139.35l-1.7-1.3v-.7l3.2-2.9.7-1-2.6-2.7-3.6-.8-4.2-1.1-4.2-2-1.8-1.2-2.9.3-3.5,1.6-.9.2-3.8-.4-2.1.2-1.7,1.8-2.6,1.7-.7,3.8-.6,1.7.7,3.2-1.5,1.4-2.1.3-1.6,1.3-.5,1.7-1.3.6-2.6-.8-3.9-.8-3.6-1.1-1.5-.1-1.2,1.2-3.7.9-1.8.1-.8-.5-6.9-.6-1.4-1.8-7.9-5.5h-3.6l-1.9,1.1,1,1.4-.5.6-1.9-.4h-2.1l-.5.4-5.1.2,2.6,1.6.1,2-1.4,1.9-1.6.9,2.9.9-2.5,1.6-1-.1-8.6-1.7-2.9-.1-4.1-.9-2.1.5v.8l.8,3.6-2.1,3.1-6.3-1.8-1.5.9-3.7,1.9-1.5,3.5-1.1,1.1-2.7.6-.5,1.1,2.7,2.3,1,1.3-.2,1.4-1.5,1-3.3,2.9-3,2.9-1.3.9,1,2.5-3.3,1.5-2.4.5-3.8.4,1.4,3.9-.6,2.7-.1,4.7-3.3,5-4.4,5,4.7,1.6,1.1,2.9.1,1.2-1.7,2.2-7.1-.9-3.3.4-3.3,1.5-3.5,3.8-1.2,1,.5,1.5-2,2.8,2.7,4.1-1.1,1.1.6,2.8-.1,1.8,2.5,4.4v1.6l-.9,6.4,3.8,2.1,1.2.4,3.4,2.7-.4,1.9-1.3,2.5h-2.4l-1.8.6.3,1.6,3.1,4.9.5,1.4-.6,2.1-.1,2.8-1.9,2-1.3.8-2.6.7-.9,2.4-1.5,1.5,1.6,4.4-.6,3.9-.7,1.4-1.9.2-1-1.8-.4-1-6-1.2-2.3-2.9-.4-3.1-2.5,1.2.6,1.1v2.3l-2.5,3.9-1.1-.2-1.3.8-1.3.2-.6-1-1.1.2-.8,1-3.4,1.3,1,.7-1.7,1-.6.9-2.7,1.5-4.3,3.9-2.3,1.1-1.6,1.2h-1.4l-1.8.9-4.6.9-3.1-.4-2.1.4-1.1-.7v-1.1l-1.2-.1-.8,1.2-1.6-.4.7-2.4-3.1-.1-3.8-1.6-.9-.8-3.1-1.3-1.4-1.4-.8-1.6.3-3.6.6-.5,2.7.8,2.8,1.3-.1-1.2-2.4-1.6.8-1.8-.2-1.6,2.6-2.1-.4-.7-3.4,2-3.1.9-1.1,1.2-1.1.6h-2.1l-.5-.9.5-3.3,1.2-2.7,1.8-1,3.4.7,1-1,1.3-.2,2.4-1.2-4.1.5-1.2-1,2.8-2.4,1.2-1.4.3-1.5,2.2-1.7,1.8-.8,1.6.6,1.5-1.9-5,1.1-2,1.1-2.7,2.8-.2,1.1-2,.9-1.5,1.5-.6,1.2-2.8,1.9-1.4.3v-2.4l1.1-2-.3-1.6,3.2.2,1.8-1.2h-2.7l-1.4-.7-1.2-1.5-.6-1.9,1.1-1.8-2.2-2-.5-2.2-.1-2.5.9-.5,2.1.4,2.4-.2,5.2-.9,3.4.6,1.4-.1,2-.7,1.9-.1,2.2,1.2.7-.5,5.4-1.2-3-1.5.1,1.4-3.6.3-3.2-.6-1.3-.6-.5,1.3-1.1.3-3.4-.5-4.7.3-2.1.7-1.4-.1-2.5-1.2-.9-.9-.3-2.6,2.8-.3-1.9-2.3-1.9-1.3-.2-1.4.7-1.3,1.5.2,3.8-.1,6,1.5,4.9-.3-.8-.6h-2.9l-7.2-1.3-2.2.1-1.2-.3-.7-1,.4-1.9,1.1-.4,1.2.6,1.9-2.3,1.9-1,2-.5,2,1,1.3-.1,4-.8-1.3-.5-3.5.5-.2-.5,2.4-2.3,4.2-.4,5.9.5,2.3.8.4-1.8,5.3-1.4-6.8.8-1.8-.5-4.9.7-.1-1.3,2.3-2.3,4.1-.9,1.9-1.1,3.1-.2,2.6.3,1.2,1.3,4.4,1.7-5.1-4,1.1-1.7,3.3-.4v-1.6l-2.2-.3v-1.2l1.9-.9,2.8-.7,3.2.8-.6,1.3.9.5,1.7-1.5,3.9-.8,2.8,2.1.5,1.1,1.1-.5,2.7-.5,2.7.3,1.8-.2-1-1.3.4-1,2.4-1,1.7-.3,2.6-1.2-.8-1-1.4-.3,2.9-1.5-1.7-.6-2.4.9-1.6.9,1.5,1-1.1,1.1-6.1,2.8-3,.8-1.4-.1-1.9-2.5-2.1-.1,1.3-2.2,1.6-.8,1.4-2.3,2.3-1.3,3.2-3.3,2.8-1.1.9-1.1,3-1.5,3-.9.3-1-2.7.9.4-2.1,1.4-1,6.8-2.8,1.6,1.3,2.1-.2,2.3-1.6-.3-.7-2.1,1h-1.5l-.4-.6-2.1-.5-.3-1.2,1.3-2.8,3.4-3.3.5-1.3,1.3-.7,1.7.2-.2-1.1-2.1-1.1,6.2-1.1h3l2.4-.9.5-1-6.4,1.1-2.4.1-.8-2.7.2-1.5,1.9-2.2,1.4-.2,1.7-1.1.1-1.5,2.3-.8,2.1-2.1,2.3-.5,1.4.2,3-.7,6.6-.1.1-.6-6.3-.3-3.5.2-.4-.6,2.8-2.7,2-1,1.7.2,1.8,1,.6-.8-1.6-1.5.7-1.5-2.6,1.1-1.8.3-.9-2,2.3-2h2.3l.3-1.5,3.3-1.3,1.9-.2,1.5-.6.6.4.9,2.3,1.5.3,1-.8-1.3-1.1-1.1-1.8,2-1.5,2.3-.2,2.6.7,2.3-.2.9-1.2-6.3-.1-.8-.9,1.2-1.2,2.2-.8,2.5-.1,2.4-1.4.9-1.1.3-1.6,1.4-1.3,3.9-.8-.6-2.2.8-1.4,1-.6,2.1,1.5,1.8.5-.5-1.4.3-1.2h2.1l1-.5.3-1.3,1.4-1.2,4.7-.7.5,2.5.7,1.4.8-2.8,1.6-2.1,2.4-.9.9,1.1-.4,4.3-1.9,2.4,1.5-.2,2.5-2.3.6-1.2-.7-2.8.6-.8,3.5-.1,1.9.4.7-1.5,1.7-.1,1.8.9,4.1,1.4-1.3-2.2-1-.8-2.1-.5-2.2-1,1.2-1,2.4.3,2-.8,2.2-.2,1.1.6.8-1,2.5-.5,2.8.9,1.6,2.7,2.4,1.4-.1-1.4.6-1.9,2.3-2,2.1-1,1.4-.1,2.9-3.4-1.6-1,3.3-2.3,1.1-.1,5.4,2.1,1.5-.9,3.4.8-.8,1-3.1,2.9-.5.8-.1,2.2-1.2,1.4.8,1.4,1.6-.4,1.8-1.3.1-1.3,4.3-3.7,1.9-2.1,2.3-1.7,1.5-.3.9,1.1-.2,1.5.2,4.3,3.7-1.4,1.1-3,1.1-.7-.8-1.4.4-1.1,2.3-1.3,2.2.4,3.3.3,2.7.8.2,1.4-.8.9-2.9,1.1.7.7,2-.6.9,5.5.9-2.1,1-.7.1-1.5.8-1.9,1.8-1.3h2.7l3.3,1.7,2.5.3,1.8.8,2.4-.7,2,1,.1,1,3.8.3,3.8,1.6.6,1.6-4.4,1-1.8,1-3.3.4-11.5-.7.4.7,8.3,1.5.6.5.4,2.1,1.8.7,3.5-.2v-1.3l3.2.6,3.8.2,1.1,1.7-.3,1.5-2.4.1-4.2-1.4-.4,2.3-1.1.9-5.8,1.3-1.1,2.6-2.2,1h0ZM507.55,111.65l3.7.5,2.2,1.4-3.6.5-1.7-.1-2-1.8,1.4-.5h0ZM167.95,115.55l-.1-1,4.5-1.5,1.9-1.4,3.4-.5-.2,1.8-3,.8-3.3.5-3.2,1.3h0ZM437.15,70.55l-1,.5-1.9-.8-.8-1.2,3-.1.7,1.6ZM446.75,20.45l3.9.2,2,1.9,1.4,2,1.3.2,4.7-.4,3.4.7-1.4,1.1v1.2l5.5,1.3,1.8.1,3-.4,6.5,1.7-6.6,1.1-2,1.9-3.7,1.3h-2.6l-2.3,1.3-2.2.1-1.5-1.9,2.2-1.3-3.1-.4-1.2.5-10.5,1-1.1-.2-.9-1.2,2.8-.6.2-1.1,2.5-2.4-5.5-1.6-2-1.2-.8-1-2.5-.9v-1l-1.7.1-.4-1.2,10.8-.9h0ZM492.95,19.85h-1.3l-2.6-.8.7-1,3.2,1.8h0ZM355.35,20.25l3.5,1.5,1.9.5,2.3,1.5-.7.9-2-1.2-3.6-1.3-2.3-.2-3.3-2.5-1.5-.8-.8-1.7,3.6.7,1.6,1-.3.8,1.6.8h0ZM510.95,16.85l2.7.1-.1.6-7.3-.4-3.8.7.4-.9,2.4-.6,3.7-.1,2,.6h0ZM401.05,6.05l1.4-.6,5.4.8,2.5.9,1.3,1-1.9,1.9,1.7,1,3.2-1.7,2.7.3,1.7.9,1,1.1-.2,1.4,3.1,1.1,3.4-.2,2.4.3,1.5,1,1.9-.2.2-.8,2.6.2,3,.8-2.1.9,2.1.8,3.4.6,2.1.6-1.5,1.4h-3.2l-2.9.3-5.4.3-3,1.6-2.5,1.8-.4,1.6.6,1.1-1.5.5-3.3.2.2,3.9-.8,1.9-3.3.3-1.8,1.1-1.2,2.1-2.1,2,1,1-2.1,1.9,1.2,1.8-1,.6-2.1.3-2.2-.3-2.3-1.1-6.7-2.2-4.3-2.4-6-1.3-3.3-1.6-1.5-1.3.3-1.4,2.8-.2,2.9.7,1.7-1.9,11.3-1.1,7.3-.2-1.9-1.3-6.9.7-4.3-.2-2.1.1-2.1.6-4.3.5-4.6-.1-2.9-1-1.3-2,1.2-.6,3.8.1,6.4-.9,3-.8,3.1-.1-.5-.8,1.8-.4,2.4-.2,5.6.1.2-.6-2.6-.6-.9-.6,2.6-1.8-2.2.1-3,1.3-1.8.5-4.6.3-1.7-1.6.9-1.2-.8-.7-1.3,1.3-2.1.3-2-.9-1.9.5.7,1-.6,1,2,.9-2.3.6-2.1,1.1-3.9.2-4.5.1-4.6-1.6-2.2-1.2-1.8-1.2-2.7-.6-1.7-.8-.4-1.1-1.4-.7-.7-1.2h4.4l-1.7-1.8.5-1.6-3.4.1.4.9-2.2,1-1.2-.2-2.3-1.9-2.4-2.4.4-1.3-1.2-1,1.5-.7,2.5.9.8-.7,3.8-.4,4.6,1.1.4-1.1,4.2.5,3-.6,5-.3,2,.4-1,1.1-6.3.3-4,1.3,5.7-.2,1,.1.6,1.1,3,.5,2.3,1,.8-.5-.6-2.2,4.4-2.3,2.1.4,2.1.9,4,3,2.3,1.9,6.1,2.8-.7-1.5-4.2-4.5-.9-1.7.9-1.7,1.1-.5-.4-1.3,1.3-.5,2.4.3s2.6,1.3,2.6,1.3ZM535.75,3.75l-8,.4-.9-.3,15.7-1.4,1.7.5-8.5.8ZM416.85,1.85l-1.8.6-3.2-.5.9-.7,4.1.6ZM435.45,2.35l5.6.1,1.5.9,5.5,1.1.8-1.5-.6-2.2,1.9-.1,1.7-.6,3.1.3.2,1.3-.5,1.4,2.1.1,2.8-.3,1.9-1.1,2.4.1,1.3-.6,1.4.6,8.2.7,3.3.6h5.2l3.7.2,2.8,1,1.1,1.7-.9.4-6.7,2-1.6.7-2.4,2.3-4.1.7-3.5-.3-3,.7-1.9,1-1.5.2-9.2-.4-2.2-1.1,1.2-.9-8.2.3-9.2-.1-1-.5-5.6-.5-4.2-1.1,1.1-.5h5.8l-.7-1.5-2.9-.1-1.8.4-4.3.2-4-.1-1.9-.3-3.8-1-.7-.8,2.8-.4,2.1-.7-4.5-.3-1.9-.3-.6-.9,5.9-.2,5,.8-.7-2.2,3.9,1.1.2-1.1-2-1.4,2-.1,4.5.7,5.1,1.6h0Z"/>
  <path id="uuid-2d9e50b8-8fc9-44ce-93d1-8d5ec3636807" data-name="PL" class="uuid-dbe3e9fa-8504-41fd-918f-1abed156b197" d="M521.15,347.05l.6-.6,2.3.7,4.5,2.2,1.1.9.8,3,2.1,5.1,2.9,4.9,1.7,3.6.9,3.9-.6,1.6-4,1.7-.8.5-2,2.7v1.2l3.3,1.3,1.8,1,.8,1-.2,2.4.4,1.1-.8,1.5.1,1.3,1,1.6,1.2,1.8v1.3l2.7,2.8,1.9,2.8,1.4,1-1.2,1.3,1.8,2.6.1,1.3-1.2,1.8-3,.5-4.8,4.6-2.4,2.7-3.4,4.4-.6,1,1.5,3.8-.1,1.8,1.9,1.4-.4.9-3.3-.7-.9-.2-5.7-1.9-.8-1.4-1-.7-3.1-1-3.6-.3-3.2.2-1.4,1.5-1.8-.1-2.4-1-3,.1-2.3,1-1.1,2.1-1.7-.6-1.4.4-.6-2.7-1.4-.4-3-3-2.2,1.3-1,1.7h-2.2l-.5-1.5-1.3-.2-.5-1.6-2.8-2.2-.5-1.8-2.7-.8-.5.2-3.5-1.8-1.8,1-1-.6-2.7-2.3,1.4-.5v-1.6l-3.6.7-3.3-1.9-2.2-.6h-1.3l1.7,2.4-3.5,2.5-1-.4-1.5-1.9-2-1.8-1.6-.9,1.6-1.2.7-1.1-1.8-1.2-3.2.7-.8-.9-2.7-1.1-4.6-1.1-1-1.1-.3-1.1-3.3-.8.1,1.9-2.1.4,1.6-3.6.4-2.3-1.6-3.2-2.2-.9v-1.6l-1.9-3.1.8-1.1.7-2.6-.8-1.9-2-2.3.6-2.6-1.4-1.7-3.3-2.1-1.6-1.4.7-1.6,1.9-1.8.3-2.7-1.8-4.1-.7-2.6,2.8.9.7-.5-.1-1.8-4.1-.7-.1-1.2,2,.4,3.8-1.4,6.5-1.8,6.9-1.7,3.3-.5,2-2.2,1.9-1.7,3.8-.7,1.3-.8,2.8-1.2,6.6-1.2,5.5-.4,5.4,2.3-.9.3-3-1.2,2.2,3.5,1.1,1.2,2,.9,1.7.3,4.9-.5,2.2-1.1.5.1,6.6.4,22.9.9,7,.1h0Z"/>
  <path id="uuid-501da358-036d-4e0e-b405-1836f1025b76" data-name="PT" class="uuid-dbe3e9fa-8504-41fd-918f-1abed156b197" d="M160.35,610.95l-1.2.2-4.5,2.5h-1.3l-2.5-1.1-4.5-.4-1.5-.3-1.8.7h-1.5l-1.1,1-.8-.3,1-2.1,1.6-4.1v-2.6l.4-2.2-.3-2.1-.7-1.4,1.1-3.5v-1.8l-.9-2.3,2.8.3-1.7-1.4h-1.5l-2.3.9-1.5.1.1-1.4-.5-1.8,2-.6,1.6-1.7-.3-1.6-1.2,1.1-.6,1.4-2.8.7-1.5-.5v-1.9l.6-1.7.4-2.3.8-2.2-.2-1.4,1.6-1.3,1.4-1.9,4.3-8.9-.6-1,1.7-6.6,1.2-2.3.6-4.3-.2-2-.7-2-.7-4.3v-1.4l-.9-1.8.1-1,1.4-1.7,1.2-1.1,1.9-.9,4.1-1,1,1.8-1.3,1.9.9,1.3,3-1.1,2.9-.1,2.2.8h1.4l2.5-.9.8-1.4,1.5.5,5.2.1.7,1.1.1,3.1,1.9.2,1.9.9.3,1.1-2.5,2.5-2.1,1.1-1.6,1.4-1.1,1.6-2,1.6.8,2,.4,3.5-.4,3.8.4,1.1-2.7,2.1-.2,1,1.4,1.3v1.9l-1.7,3.5-1,.5h-4.3l-1.1.3,1.1,1.9,1.4,1.2.3,1.9,1.6,3.2,1.7.4.5.8-.6,2.4-3.2,3-.9,4,3,4.3,1.7-.2-.7,2.4-2.1.6-3.5,4.3-.8,2.2,1.1,6.4h0Z"/>
  <path id="uuid-9c47651a-832a-484f-8165-345ef6647418" data-name="RO" class="uuid-dbe3e9fa-8504-41fd-918f-1abed156b197" d="M605.75,482.25l1.5,1.6,1.8.9,4,.9.6-1.2.9.3,1.6-.5,2.2-1.3,2.2-.2,2.2.7,1.9,1.8-.2,4.3-.7,2.1-6.2,1.3.4-.6-.7-2-1-1-.9,1.1.6,1.7-.7,1.4-.2,2.4.6.9-1.6,2-.5,1.3.8,4.8-.4,3.7h-2l-2.6-.5-2.2-.7-2.5-2.6-1.7.5-.9-.6-3.2-.4-4.5-2.3-2.9.4-4.4.9-3.2,1.2-3.3,2.1-1.2,1.6-1.6.9-2.3.6-4.2-.2-9.4-1.7-2.5.5-3.5-.4-5.3-1-3.9-.3-3.7.6-.9-1.8,1.8-2-4.3-2.5-.8-1.2-1.6-.9-.5-1.7,2.5-1.8-3-1.6-1.7.5-1.7,1.8-1.3.2-1-1.2-1.5-.7-3.5-.7-1.5-1.2-2.1-.6.2-.6,1.8-.8-2.3-1.1,1.5-2-.9-1.1-2.6-.8-3.8-1.9-2.2-1.8-.4-4.1-.8.2-1.8-2-2.9-1.7-1.7-2,3.2-.9,1.4.5,2.5-2,2.6.3,1.3-.9,1.5-4.7,2.1-1.5-.2-1.3,1.6-2.7v-1.2l1.4-1.5.7-2.5,1.4-1.4-.1-1.7,1.2-1,1.9-2.4,4.6-1.1,2.2-2.3,2.1-.9.9-1.2h.7l2.7,1.5,2.7-.1,6.9,1.4,3.6-.7,1.2.3,4.3,3.3,2.1-.5,1-1.2,3.4-1.3,8.4-1.2,1.1-1.9.2-1.4,3.7-.8h2.1l2.5,1.6,2.5,3,3,4.9,1.5,1.3,2.5,3.2,2.1,1.8,1.3,1.7,3,2.1,1.4,2.9,1.4,2.3.5,2.9-.9,4.8.1,2.6,1.4,5-.9.7,2,2.3h0Z"/>
  <path id="uuid-f48e4c6c-c519-4f2c-828f-1901ffdd0281" data-name="RS" class="uuid-dbe3e9fa-8504-41fd-918f-1abed156b197" d="M505.95,472.15l1.7,2,2.9,1.7,1.8,2,.8-.2.4,4.1,2.2,1.8,3.8,1.9,2.6.8.9,1.1-1.5,2,2.3,1.1-1.8.8-.2.6,2.1.6,1.5,1.2,3.5.7,1.5.7,1,1.2,1.3-.2,1.7-1.8,1.7-.5,3,1.6-2.5,1.8.5,1.7,1.6.9.8,1.2-.9.7-.2,1.9-2.1,1-.4,2.3.6,2.4,2.4,3.9,2.9,1.5,1.3,1.6,1.6,1-.3,1.4-1.6,1.7-1.1,1.6-1.8.1-1.1.6v3.3l1.4,2.9-1.1,1.7-1,.3-1.4-.7-2.3.8-1.9-.3-2,.9-2.2.3-.6-1.3,1-.9,1.2-3.2.2-1.2-4.7-1.2v-1.3l-2.2-1.2-.2-.7-2.3-2.1-2.8-1.3-1.1-1.3-1.7.9.6,1.6-.4,1-1.7,1.3v1.4l-1.5.5-.1-1-5.3-2.9-2.1-.5-3-1.6-1.9-2-2.6-1.7-.4-1.2.7-.8,2.5.3.2-2.2-3.2-3.7.5-.8,3.1.1.3-.8-3.3-2.9-2.4-1.2-.5-.8.1-2.6,1.6-2.7.5-2.5-1.5-.8-2.8.7,1-1.6-.7-2.6,1.7-.4,2.3-.1-.9-1.5-3-1-1.2-1,.4-2-1.3-.4-.2-1.6-1.6-2.7.7-1.5,2.1-1.3,1.6.5,2.2-1,1.5-1.6,1-.3,2.9.4,1.1-.2,2.8.3,1,.5h0Z"/>
  <path id="uuid-5d1c48c0-f857-41f1-99e5-e421a8451b1c" data-name="SK" class="uuid-dbe3e9fa-8504-41fd-918f-1abed156b197" d="M529.15,426.75l-1.5,3-.8,2.9-1.6,1.7.1,2.5-4.3,1.1-.6-.2-2.2-2.2-1.4-.9-4.6.7-2.5-.6-2.7-.1-1.8.4-1.6,3.5-5,2.5-3.5-1.4-.7.2-1,1.5-2.4.6-4.3.4-1.4.7-.4,1,.5,1.3-.6,1-7,.4-4.7-.1-1.6-.7-4.2-2.7-2.1-.3-2.3-2.9-1.6-2.9-.1-.8.9-2.4,1.1-2.8,1.4-1.2,3.6.5,1.7-.2,1.5-.7,2.1-1.9,1.6-.8.7-3,2.3-1.2.6-.8,2-1.5,2.8-.3,1.3.2.5,1.5h2.2l1-1.7,2.2-1.3,3,3,1.4.4.6,2.7,1.4-.4,1.7.6,1.1-2.1,2.3-1,3-.1,2.4,1,1.8.1,1.4-1.5,3.2-.2,3.6.3,3.1,1,1,.7.8,1.4,5.7,1.9.9.2h0Z"/>
  <path id="uuid-edab2802-4d12-4ee9-b9ba-12cc67651df0" data-name="SI" class="uuid-dbe3e9fa-8504-41fd-918f-1abed156b197" d="M459.55,466.15l-2.5-.6-.9.8v1.7h-2l-.7,1-4.4,1.7-.4,1.4.9.9.2,2.2-.4,1.1-2.1.6-2.1,1,1,1.1-.7.7.8,2.3-1.2.4-1.6-.2-2-.7-1.3.5-1.5-.7-2.6-2.1-1.2,2.2-.6.3-3.6.1-1.1-.5-1.4,1.3-3.3-.8-.5-.6,1.7-1.1,1.5-.1-.2-1.3-1.5-1.3-1.9-1.1.4-2-1.3-.2-.3-1,1.6-2.1-2.3-.7-.7-1.4,3.3-2.3.2-.9,5,.9,5,.7,3-1.2,1-1.3,1.9-.7,2.6-.2,2.8.2,2.3-1.1,1.6-.2,2.4.5.1-1.9,1.3-.9,2.4.1,1.4,3.3,1.9,2.2h0Z"/>
  <path id="uuid-3733f674-17ec-4f3a-a8c0-75c6d7d935e4" data-name="SE" class="uuid-dbe3e9fa-8504-41fd-918f-1abed156b197" d="M445.45,318.45l-1.5-.3-.3-3.8,2-4.6,1-.3,2.7-6.5.5,2-1.5,3.2-.3,2.2-.6.5-2,7.6h0ZM471.65,295.75l-1.3,1.4-1.4.5.1,3.3,1.5,1.2-1.3.5-.7,1.8-1.8.6-1.5,1.6-.3,1.6-2.1.9,1.2-2.4-.9-.7-1.4-2.1.4-.9-.6-3.2,2.7-2.9,1.3-1.1,3.3-1h1.3l1.5.9h0ZM508.45,182.75l-2.7.3-2.2-.6-1,.3-3.8.3-1.1.7-2.1-.7-2-1.2-2,1.1-1.6-1-1,1.9.1,1.8-1.8-.2.3,1.1-2,1.5-3.2.2.7,1.5-.9.7,1,1.7-1.3,1.5-2.1,1.9-.5,1,1.7,1.1,1.6,2.5,1.6,1.1-.4,1.2-2.1,1.1-2.2,1.7-2,4.3-3.1,1.3-2.4,1.6-3,.7-2.4,2.2-1.8-.8-1.5.5-1,1.8-1.9,1.5-2.4-.2.2.8-2.3.3-1,4-2.2.6-.7.8-.9-.6-2.1.1,1.6,2.8-1.7,1.8h-1.2l-1.5.7-1.9-.8-.2,1.2.8,1.3,1.3,1-.1,1.3-.9,4.3.7,1.8-2.1,1.2-.8,1.1.6,1.7-.1,1.1.7,1.9.8,4.2,1.1,2-.1,1.6,1.3.9,2.1-.1,1.4,1.6,3.1-.8.8,1.1,2.9,2.2,1.7.3,1.9,1.2v1.5l2.9,1,1.9,2,.8,1.6-.1,1-2.6,1.5-1.3,1.3-3.8,2.1-.6-.1-2.1,1,2,.6,1.4-.7,2.6-.6,1.4,1.2-2.2.5-.3,1.6-.8,1-2,.7-2.8,1.5-4,1.4-1.1,1.2-2.6,1-1.3.8h-3.8l-3.7-.1,1,.9.9-.2,3.6.4,1.7,1.3-3,.9,1.7,3.2-.7.8.4,3.5-1.1.1-.3,1.4.6,2.5,1,2.1-.1,1-1.5,2.4.9,2.9-1.5,5.3-1.9,3.1-1.3,4.1-1.8,1.4-2.4-.9-3.4.5-3.2-.3-3,.2-.8.4.7,1.4-2.3-.2-1.7,1.1-2,2.1v1.5l1.9,3-1.7,2h-1.1l-3.2-.5-5.5,1.2-5.1-1,.5-1,.2-3.1-.6-1.7-1.3-1.1-3.1-3.8-1.2-2.3,2.4.9,1-.5-1.8-2.6,2.2-.1.7-1-.6-1.5-1.9-.6-1.9-2.4-1.8-1.2-3.5-4.7-1.3-3.2-1.1.3-1.2-3.7-1.7-.6-.6-3.7-1.8-.4-1.3-1.7-.4-3.2-1.2-.6-.8-1.4-.8-3-.3-2.7-.9-1.8.5-1.2,1.1-.2,1.1.8,1,1.8,1.9-.2.7-1.4.6-3.9-1.6-4.4,1.5-1.5.9-2.4,2.6-.7,1.3-.8,1.9-2,.1-2.8.6-2.1-.5-1.4-3.1-4.9-.3-1.6,1.8-.6h2.4l1.3-2.5.4-1.9-3.4-2.7-1.2-.4-3.8-2.1.9-6.4v-1.6l-2.5-4.4.1-1.8-.6-2.8,1.1-1.1-2.7-4.1,2-2.8-.5-1.5,1.2-1,3.5-3.8,3.3-1.5,3.3-.4,7.1.9,1.7-2.2-.1-1.2-1.1-2.9-4.7-1.6,4.4-5,3.3-5,.1-4.7.6-2.7-1.4-3.9,3.8-.4,2.4-.5,3.3-1.5-1-2.5,1.3-.9,3-2.9,3.3-2.9,1.5-1,.2-1.4-1-1.3-2.7-2.3.5-1.1,2.7-.6,1.1-1.1,1.5-3.5,3.7-1.9,1.5-.9,6.3,1.8,2.1-3.1-.8-3.6v-.8l2.1-.5,4.1.9,2.9.1,8.6,1.7,1,.1,2.5-1.6-2.9-.9,1.6-.9,1.4-1.9-.1-2-2.6-1.6,5.1-.2,2.9.8.4.9,2.9,1.1,4.8,2.3,4.2,1.8,8.3,1.7,3.5,1.8,1.2,1.6,1.4.1,1.9,1.5,1.8.9-1.1,1,.4,2.4.7,1.4-.3,1.9,2.8.4.6,1.3-1,.8-.1,1.1.8,1.6,3.3,2.6.6.9-.7,1.4.1,1.8-1.5,1.3v1.3l1.3,2.6,1.8.6,1.9,2.2,1.6,2.5h0Z"/>
  <path id="uuid-fe059c7a-ca14-44c6-b233-f07bc4814f74" data-name="TR" class="uuid-dbe3e9fa-8504-41fd-918f-1abed156b197" d="M587.75,564.75l-2.9.5-.1-1.5,2.2-.6.8,1.6ZM782.25,543.25l4.3,1.3,1.1-1,3.6.1,3.4.8.9-1.9,1.4-.4,1.4.3.6,1.1,1.2.4,3.5,2.5,1.1,1.7,1.9.2,1.3,1.2,1.3,1.6,1.7,1.2,1.7,3.3-.2,2.3-1,1.4.8,1.9,1.9,3-.5.6,1.8.9,2.9.9,3.5-.4,1.6.7,2.3,1.7,3.2,2.8.8.9-3.3-1.9-1.4,1.6-.1,3.8-.6.4-2.8-.1-1.2.4,1.2,2.5,1.4,1.2v2.3l2.1,2.5.2,2.1.9,2.2.3,2.2.5.7,1.4.3-.6,3.8-.6,1.2-.4,2,1.7.6,3.2,2,.1,1.3.6,1.5.3,2,3.2,2.3v2.3l-2.1-.5-3.7,3.1-1.2-1.2-.3-2.4-1.5-1.5-1.3-.2-2.1,1.4-4.2-.3-2.9-1.1-2.9-.8-1.9.6-2.2-.7-1.5,1.9-2,1.9-1.2.3-1.6-2.6-1.3-.2-1.2,1.3-2.2.8-4.6,1-3.2.3-4.1-.6-3.2.2-3.1,1.4-5.2,2.8-4.1,1.4-4.2.9-7.6-.2-1.1-.3-3.5-2.3-3.4-.6-3.4,1.6-2.3.8-3.5,1.6-4.8-.1-1.9-1.7-3.7-.7-.6,1.6-.3,3.8,1.8,3.1-3.3,1.4v2.6l-1.8,1.1-.8,1.6-2.2-1.2-1-.1.7-1.3-2.5-4.9.7-1.5,3.5-3.9-.4-2.4-2-1.6-2.9,2.1-1.7.8-.3,1.2-1.1.8-1.8.4-2.9-1-3.2-1.4-1.9-1.1-1.4-.3-1.3.5-3.5,2.8-3.1,4.1-.8.8-3.2,1.7-2.2.6-1-.1-4.4.8-2.2.1-1.6.9-3.5-1-2.2-1.3-1.4-1.3-2.3-2.9-1.6-1.3-3.3-1.2-5.8-3-5.3-.7-4-.3-.7,1.1.1,4.2-.5,1.2-.1,2.2-1.1,1.1-2.1-1-1.9.9-3.7,1.3-1.2.1-4.6-1.6-2.9-2.1-.6-2-1.3-2.7-1.8.3-2.3-.4-3.2-1.6-2.4-.1-1.2,1.9-1,.7-1.3-.4.8-1.3-3.7.2-1.8,1-1.5-.1-1-1,2-.6,3.9-.4.9-.4.9-1.3,1.7-1.2-1.2-.5-6,.3-4.2-.2-1,.7-.4-1.6,3.6-1.4-.3-1.3-4.2-2.2-.3-1.6-2-3.1,1.9-.5.1-2.5-.4-1.5-3.9-1.3-.8.1-1.1-1.3-1.7-.9-1.2.7-3.3-1.4-.6-.6.5-1.4,1-1.1-.9-1.9-.1-1,1.8-.1,1,1.1.3,2.2,3.6.7,2.9-.6-2.5-1.1-1.1-1.2-1.2-2.3,1.8-1.1,1.2-1.7-2.7-1.2.2-2.4-2.5-2.7.3-.8,2.3-2.8-1.2-.7-4.3.7-1.6.6-3.1.2-.3-1.6.6-1.3-.5-3.4.2-1.8,1.7-.6,1.7-2.7,3-3.1h3.5l1.3-.9h2.1l.8,1.2,1.9.9,3.2-.1,1.4-.9-1.6-1.5,1.7-.5,1.5.4-.1,1.8,4.1-.5,4.4.4,1.4-.2h3.4l.5-.5-3.6-1.7,2-1.5,6.8-1.2,3.7-.8-5.7-.8-1.4-.6-2-1.4-1-1.1.3-2.6.6-.7,2.2-.1,7.7,1.2,5.3-.8,6.1,1.8,5.6-.4,1.1-.7,1.1-2.6,7.4-4.2,2.4-2.1,2.8-1.2,5-1.4,4-1.7,1.2-.2,10.4.8,7,.1,3-1.6,2,.5-.1,2.1,2.6,2.6,3.5,1.4,4.4-1.2,1.8.5,2.2,4,1.5,1.4,1.8.9,1.3.2,1.5-1.4,1.7-.1,2.9,1.3,1.2,1.4,4.8,1.1,4.3.6,2,1.2,6.2,1.2,2.2-.2,3.6-1.3,7-1.3,5.2,1.9,2.5.1,1.7.5,1.7-.3,5-2.3,1.4-1.2,1.7-.4,5.2-3.3.9-1.4h0ZM610.35,536.15l-.1,1.8,1,2,2.3,2.7,2,1.4,8.1,3.3,1.4.3-.9,3.5-2.1.5-6.4-1.5-1.6-.1-2.9,1.4-2.3-.4-3.1.6-.6,2.1-2,2.4-3.3,1.9-2.5,1-3.5,3.7-1.5,2.2-1.5.7.5-2-.3-1.7,2.3-2,3.3-1.6.7-1.3-5.4.3h-3.3l-1-1.8.8-.4,2.5-3.2-.5-4.4,3.4-2.5-.9-3.1-2.3-1.5-1.2-.3.3-1.4,1.9-.3,1-2.2,3.4-.4,1.5-1.1,3.5-.3,3.4,2.5,1.5-.6h1.8l.9-.4,1.7.2h0Z"/>
  <path id="uuid-b321d608-c473-4c11-bc87-793ccdb4e091" data-name="UA" class="uuid-dbe3e9fa-8504-41fd-918f-1abed156b197" d="M651.05,470.65v.6l-3.9-.8-.9-.9,4.8,1.1h0ZM624.65,485.25l-1.9-1.8-2.2-.7-2.2.2-2.2,1.3-1.6.5-.9-.3-.6,1.2-4-.9-1.8-.9-1.5-1.6,1.1-.7,2-.2.4-1-.5-1.4,2.5-2.9v-1.3l2.3-1.7.4-2-1-1.7-.5-2.1,2.5-1.6,2.1,1,1.9.2,2.1.8,1.6-.6,1.2,1.3,2.9-.4.6-.7-2.9-1.7-.2-2.9-1-1.6-2.1-.8-2-1.3-.9-1.9v-2.4l-2.9-2-2.3-1.2-.6-1.2.6-3.1-.6-2.3-1.4-1.4-1.4.7-1.4-1-1.4-1.9-5.6-.6-.6-1.2-2.5-.3-3.6-2.4-3.5-1-1.6,1-.8-.3-1.2,1-4-.1-.7-.2-2.3,1.4-.2.6-3.7.8-.2,1.4-1.1,1.9-8.4,1.2-3.4,1.3-1,1.2-2.1.5-4.3-3.3-1.2-.3-3.6.7-6.9-1.4-2.7.1-2.7-1.5h-.7l-.9,1.2-2.1.9-.7-1.7-.9-.7-2.3-.4-.9-1.1-2.2-.8-1.4-2.3h-1.5l-.1-2.5,1.6-1.7.8-2.9,1.5-3,3.3.7.4-.9-1.9-1.4.1-1.8-1.5-3.8.6-1,3.4-4.4,2.4-2.7,4.8-4.6,3-.5,1.2-1.8-.1-1.3-1.8-2.6,1.2-1.3-1.4-1-1.9-2.8-2.7-2.8v-1.3l-1.2-1.8-.1-1.4,1.1-.5,1.9.3,1.1.5,1.9-1.2,1.6-1.6.8-1.4,5.9-.5,2.3-.5,2.4-.1,7.8.4,6.5,1.5,6.1.9h2.3l1.8,2.1,1,.3,3-.1,1.1.4.8,1.4,1.2-1.7,1.9.5,1.9-.7,5.1,1,.8,1.3,1,.3.6-1.1,3.8-1.6,2.5,3,.6.5,2.3-.8,7.1-.6,2,1.1.5,1.2,2.7.9.8-1.4-1.8-3.6,1-3.3.8-1.2,2.2-2.3,1.1-.5,1.7.4,1.4-.8,5,.1,2.6.8,1.7-.1,1.8-.9.5-2.4,1.6-.6,3.7.9,1-.1,2.7-1.2,1.6-.2,2,.3,3.4-.2,2.5,1.4,1.4,1.4,1.7,2.7,4,3-.1,1-2.9.5,1.3,1.9.5,2,1.2,1.7-.4,1,3.1.1,2.9,1,4.1-.5,1.5,2.2,1.9.2.2.9,1.4,2.8.9,1.1-.2,1.8.5,1,1.9,1.6.7,1,1.1.4,2.3-1.4,2.8.4,2.7,2h2.3l1.7,1.1,1.4-1.3,4.3-.9,2.3-1,1,.1,2.3,1.8.5,1.2,1.5,1.6,4.7,2.9,1.3-.6.9-1.5,2.6,1.4,2.4.2,3.6,1.9,1.4.1,1.6-.6,2,1.8,1.9.2,4.4,2.3,2.9-.3,1,.8-.1,1.7,1,.9-.1,2.6-1.7,2.1-2.3.8,1.1,1.5,3.1.9-.9.9-1.4-.2-.8,1-.3,2.3,2.5.7,1.2,2.8v1.1l1.2.3-1.3,4.7-.1,1.8-4.2.2-6-.3-.9.2-.9,1.9-2.3,1.4-1.7.2-.8.8v2.3l-.4,1.3,1.1.7-.7,1.6.5,1.3-.5.1-4.3-.2-3.4.3-2.1,2.4h-1.5l-3.2,1.5-1.4,1.7-1.4-.8-3.1.5-1.7,1.1-3.1-.1-2.3.6-4.6,3.8-1.3.1-1-1-1.6,2.6-2.4,1.2.6,3.1,2.8,4.5,3.6,3.9,1.7,1.4,2.4.7,3.1-1.4,2.4.4,1.7-1.2,1.5-.1,3.7,1-1.1,2.5-.3,2.6-1.9.6-2.2-.1-2.2.4-2.7-1.5h-2.5l-1.1,1.9-2.3,1.3-.6,1.4-2.6-.3-2.1.2-2.8,1.4-1.9,2.8-2.3,1.8-1.9.5-2-.1-1.3-.6-2.9-1.8.7-2,.5-3.5-1.2-2.9-2.3-1.4-1.6.2-.9-.3-3.7-2.4-1.9-.2-1.9.5-1.5-1.2,3.5-2.9,3.5-2.4,1.7-.2,2.1-1.2,2.2-1.6-1.3-2.3-1.9.6-2.2-1.1-.9-.8-3.1.8-1.8-.1-3.8.8-1.9-.8-4-2-2.6-.3v-1l1.8-.3.1-1-3.8-.6-.1-1.3,2,.5,3.2.2,2.9.5,2.1-1.8-2.4.5-2.9-.5-2.1-1.8-2.2,1.2-3.2-.5-2.4.8-2.3-.2-4.1,1.1-.4,2.9-2,4-3.1,3.7-4.6,2.1-1.7-.4-.9,1.1.2,1.3,1,.9,1.1,3.1-.1,1.3h0Z"/>
  <path id="uuid-5dd3fd7e-6572-4aaf-8007-9ebf1026f2ac" data-name="XK" class="uuid-dbe3e9fa-8504-41fd-918f-1abed156b197" d="M528.35,531.85l-2.1.4-1.5,1.9-1.6-1.2-1,.1-3.4,1.5-.2,2.6-.5.8-1.7-.3-.1-2.2-1.4-3.2-1.9-1.3-1.4-.5-2-2.9-.5-.4.2-1.3-.9-1.5,2-.4.2-.7,1.6-.4,1.5-.5v-1.4l1.7-1.3.4-1-.6-1.6,1.7-.9,1.1,1.3,2.8,1.3,2.3,2.1.2.7,2.2,1.2v1.3l4.7,1.2-.2,1.2-1.2,3.2-1,.9.6,1.3h0Z"/>
  <path id="uuid-0393fee3-8bd0-4e61-b52f-bdb0aa032286" data-name="NL" class="uuid-dbe3e9fa-8504-41fd-918f-1abed156b197" d="M306.55,391.55l-.6,1.2-3.2,1.5-3.9-1.1-1.2.6-1.2-.7-.3-1.3,2.8-.4,3.5.7,1.5-.6,1.2.5,1.4-.4h0ZM303.15,386.25l1.5,1.4-1.5.3-1.6-1,1.6-.7h0ZM321.25,377.75l-3-.4-.9-.7,2.4-1.7,3.2-1.5,1.7.4.5.9-1.1,1.1-2.8,1.9h0ZM313.65,366.25l-1.1,1.1-.6-1.4,1.7-1.4v1.7h0ZM306.55,391.55l-2.6-.8-2.2.5-2.8-.7-1.7-1.3,1.2-.7,2.3-.1,4,.7,1.2-.9-.6-1-2.3-2.1,1.6-2.7,1.4-1,3.2-3.8.9-2,1.2-5.5,1-2,1.4.5,2-.8,3.4-2,1-1.7,1-.9,4-1.6,2.1-.4,8.9-.5,1.8,1.7,2.7.6.1,4.3-.7,1.7-1.1,3.8-3.1-.1-.6,1.6.7,1,2.6.3.8,1-.6,2.6-2.6,1.6-.3.9,1,.9-.7,1-4.5,1.3-2.3-.8-1.8.7-.7,1.1,3.1,4.1v1.2l-1.3,2.8.7,1.2-2.2,1.6-.5.8,1.9,1.2-.6,2.4-1.2-.1-2.4-.3-.7-1.1,1.1-1.3,1-2.9-2.6-1.1-1.7-1.3-1.9.4-2.6-1.4-.5-1.6-2.5.8-1.1-1.3-1.5,1-1.5-.8-1.4.7.2.9-2.1-.3h0ZM324.65,375.95l.9-.9-.5-1.9-2.1-.3-.5-.8.4-2.5-2.8-.4-.4-2.5-1.5.3-2.3,1.5.6,1.3,1.6,1.6v.9l-2.1.7.1,2.6-.2,1.6,5.4,1.4,3.4-2.6h0Z"/>
  <path id="uuid-4243ef9f-9229-4a6c-b2fb-7548714da7ab" data-name="ES" class="uuid-33fd5888-3e84-48c2-baf4-614b79e77f5f" d="M274.75,583.75l-.4,1-2-.4v-1.5l1.2-1.6,2.7-.7.8,1.3-2.3,1.9h0ZM296.45,570.15l1.2.5,1.3-.5,1.4.4.2,1-2.2,3.5-.6,1.4-2.1,1.3-4-1.7-.3-1.6-1.4-.7-1.7,1.3-1.4-1-.3-1.2,5.3-3.7,1.5-.9,3.2-.9.5,1.2-.6,1.6h0ZM311.15,569.35l-.3.2-3.9-1.9-1.6-.4.1-1.4,2.6-.2,2.1.7,1.2,1.8-.2,1.2h0ZM233.75,513.85l.5,1.3,4.3,1.3-.3,3.2,1.8-.4,4.4,1.7,2.2.2,2.2,2.1,3.6-.4,3.2,2.1,3.1-.4.7.4h4.7l.8-2.4,4,1.1,2.5,1,1.7.3,1.1,1.5v2.1l.7.4,2.8-1.1,2.8,1.2,1.3,1.2,2.1-1.1,4.7,1.2,1.2-.8,3.8-1.1,3.1.6,1.2,2.2-1.8.5-.2,1.4,1.2,1.3.1,2.1-3,2.8-8.7,4.7-2.9,2.7-6.6,1.5-4.5,1.5-2.2.5-4.1,3.8,1.1.3,1.2,1.2-.4.6-2.5,1.1h-.9l-2.9,4.6-2.6,3.3-1.5,1.5-1.5,2.1-3.2,5.6-.1,1.6,1.6,5.5,2.2,2.7,2.4,1.1.6,1-.8,1-2.4,1.7-4.3,2.3-1.8,1.9-.3,1.8-1.3.8-.5,2.5-1.8,4.4,1.3,1.2-1.3.8-6.5.3-4.1,2.8-2,2.4-1.9,4.5-2.2,2.6-1,.5-1.5-1.2-1.9-.1-1.9.3-1,1-1.5.5-1.5-.5-4.6-.2-2.3.8-1.9-.5-3.2-.3-7,.6-4,3.4h-3.4l-3.1,1.2-2.1,3-.5,1.6-1-.3-.3,1.2-2.1.8-2.4-1-2-1.5-1-.1-1.6-2.2-1.2-3.1v-1.1l-1.5-.6-.3-1.4.2-1.6-1.2-2-5-3.7-3.7-.3-3,.5-1.1-6.4.8-2.2,3.5-4.3,2.1-.6.7-2.4-1.7.2-3-4.3.9-4,3.2-3,.6-2.4-.5-.8-1.7-.4-1.6-3.2-.3-1.9-1.4-1.2-1.1-1.9,1.1-.3h4.3l1-.5,1.7-3.5v-1.9l-1.4-1.3.2-1,2.7-2.1-.4-1.1.4-3.8-.4-3.5-.8-2,2-1.6,1.1-1.6,1.6-1.4,2.1-1.1,2.5-2.5-.3-1.1-1.9-.9-1.9-.2-.1-3.1-.7-1.1-5.2-.1-1.5-.5-.8,1.4-2.5.9h-1.4l-2.2-.8-2.9.1-3,1.1-.9-1.3,1.3-1.9-1-1.8-4.1,1-1.9.9-1.2,1.1-1.3-.1v-2.5l2.6-2.6-1.6-.2,1.2-1.9-1-1,.1-2.6-2.3.9-.5-1.2,1.4-2.2-1.4-.2-2.3-2.5.8-3.1,2-1,1.9-1.5,2.6.3,1.7-.3,3.6-1.6-.4-1.5.4-.7,3.2-1.7,2-.2,1.9-.9,1.3.5,1.1-.1,1.3.6,1.7,1.6,2.5.6,2-.5,3.6-.1,1.7.2,3.2-.3,1.8.1,2.9-.8,2.3,1,4.4.4,2.6.8,7.2,1.4h2.7l3.7-.8,1.6-.5,1.5.3,2.1-.6,2.3,1,4.7,1.3,2.1-1.3,3.4.6,3.3,1.3,1.8.1,2.6-.3,2.5-1h0Z"/>
  <path id="uuid-177ccbd5-c395-4644-82b2-ef9a4c6d1fac" data-name="FR" class="uuid-33fd5888-3e84-48c2-baf4-614b79e77f5f" d="M375.55,523.15l-.3,2.3,1,1.7.6,6.5-1.8,3.2.1,3-1.6,4.3-.8,1.1-3.8-2-1.2-1.1,1-1.8-2.2-.9.4-1.7-.2-.9-1.6-.5,1-1.3v-.8l-1.5-1-.3-.9,1.3-1.1-.6-.9.1-1.3.9-1.9,1.2-.9,2.8-.8,1.2-1.1,1.9.6.6-1.2-.2-2.7.3-1.1,1.3.5.4,2.7h0ZM241.65,475.25l-.4,1.4-1.9-2.4,1-.5,1.3,1.5ZM326.05,419.65l2.1,1.2h1.4l2-.6,1.3.7,1.4.1,3.5,4.3,1.8-.7,1.4.4.3.9,2.1.1,3-.6,2,1.4,4.8.8,1.6.6.1,1.3-3.5,3.8-1.4,5.5-1,1.8-.3,1.5.2,2.4-.6,2v1.5l1.1,1.3-1.5.7-.8,1.4-2.7.3-.8-.8h-1.1l-1.8,1.4,1.3,1.1-.6.9-3.8,4-2.1.9-.5,2.9-3,2.2-1.1,2.9.8.7-.3,1.5-1.5,1v1l1.4.1,2.3-1.6-.5-1.3,2.3-1.5,1.9-.1,2.2.3.8,2.2-.5,1.7,2.3,2.3.9,1.4-2.6,1.7.1,1.6.9.6,1.7,2.6,1.8,1.6-.8,2.5-1.2.3-1.7,1.3-1.9-.2-.8.4,1.5,3.1,3.2,1.4.5,1.7-.8.7-1.4,2.5.7,1.3.1,1.4.9.9,5.1,2.4,3.3-.6.3,2-2.1,2.6.2,1.5-.6.3-.8.3-2.4,1.1-3.9,3.4-1.8,1-.7,1.8-2,1.4-2.4.5-2.3,1-1.1-.4h-2.8l-1.7-1.2-3.4-.8-1.1-1.8-2.5-.1-.8-1.5-1.9.3-1.5.7-2-.1-5.9-1.8-1.4-1.4-1.7.5-1.6,1.6-6.5,4.1-2.6,4.3-.1,1.2.7,3.9,1.6,2.5-3.1-.6-3.8,1.1-1.2.8-4.7-1.2-2.1,1.1-1.3-1.2-2.8-1.2v-1.5l-2.6-.6-.9.7-1.1-1.5-1.7-.3-2.5-1-4-1.1-.8,2.4h-4.7l-.7-.4-3.1.4-3.2-2.1-3.6.4-2.2-2.1-2.2-.2-4.4-1.7-1.8.4.3-3.2-4.3-1.3-.5-1.3,2-.5,1.9-1.9,1.7-7.1,1.3-8.3,1-1.6,1.2-.4-1-1.2-1.1,1.5.7-7.6.5-2.8.9-3,3.1,2.4.8,1,.9,3.4.6.1-1.1-4.6-1.8-2.3-3.6-2.3-.5-1.3,1.8-.6-.5-1.8-.5-5.9-3-.6-4.8-2.6-1.7-2.6-1.6-1.9-.4-1.7.9-1.8-.8-1.1-1.4-.8,1.1-1.6-3-.2-1.8-.5-.3-1.1,1.3-1.4-1.6-.8-2.6.2-.2-1.7-2.2.3-1.2-.3-1.1-1.1-1.3.2-2.2-.4-.8-.7-4.8-1.3-2-.1-1.9.6-1.1-.3-1.3-2.2-3.1-1.1.6-.7,3.1-.6.6-.7-2.2-.9-.2-1.2,1.6.3.1-1.2-4,.1-.4-1.3.5-1.4,2.3-1.2,5.8-1.4,2.5.2,1.7-.2,3-1.6,2.9-.4,2.7.8,2.5,2.8,1.2,1,3.1-1.7,4.4.1.9.9,1.2-1.7,1,1,4.7-.2-1.5-2.5-.2-6-1.3-1.7-2.1-4.3.2-1.4,3.2.3,2.7-.6,1.3.4.3,2.8,1.1,1.6h2.2l2.3.5,3,.1,4.3.8,1.8-.5,3.5-2-1.8-.7-.2-.7.9-2.2,5.2-2.5,3.7-.7,3.8-1.3,2-1.4,1.2-1.8.5-1.3.3-6.8,1-2.2,2.9-1.6,6.4-1.1.9-.5.9,2.2v1.2l2.9,2.4,3.2-1,1.6,1.8.5,2,4.2,1.1.6,2,.9-.3,3.6.4,1.6,1.1-.4,1.6.7.7-.7,1.4.5.6,2.3.3,2.2-.3,1.3-.6.5-1.4,1.9-.6-.8,2.7.6.6.4,2,1.7.1,3.3,1.5,2.8,2.6,3.4-.4h0Z"/>
  <path id="uuid-edd3abc1-b40b-44e5-88d1-dfd7930ac51b" data-name="PT" class="uuid-33fd5888-3e84-48c2-baf4-614b79e77f5f" d="M160.35,610.95l-1.2.2-4.5,2.5h-1.3l-2.5-1.1-4.5-.4-1.5-.3-1.8.7h-1.5l-1.1,1-.8-.3,1-2.1,1.6-4.1v-2.6l.4-2.2-.3-2.1-.7-1.4,1.1-3.5v-1.8l-.9-2.3,2.8.3-1.7-1.4h-1.5l-2.3.9-1.5.1.1-1.4-.5-1.8,2-.6,1.6-1.7-.3-1.6-1.2,1.1-.6,1.4-2.8.7-1.5-.5v-1.9l.6-1.7.4-2.3.8-2.2-.2-1.4,1.6-1.3,1.4-1.9,4.3-8.9-.6-1,1.7-6.6,1.2-2.3.6-4.3-.2-2-.7-2-.7-4.3v-1.4l-.9-1.8.1-1,1.4-1.7,1.2-1.1,1.9-.9,4.1-1,1,1.8-1.3,1.9.9,1.3,3-1.1,2.9-.1,2.2.8h1.4l2.5-.9.8-1.4,1.5.5,5.2.1.7,1.1.1,3.1,1.9.2,1.9.9.3,1.1-2.5,2.5-2.1,1.1-1.6,1.4-1.1,1.6-2,1.6.8,2,.4,3.5-.4,3.8.4,1.1-2.7,2.1-.2,1,1.4,1.3v1.9l-1.7,3.5-1,.5h-4.3l-1.1.3,1.1,1.9,1.4,1.2.3,1.9,1.6,3.2,1.7.4.5.8-.6,2.4-3.2,3-.9,4,3,4.3,1.7-.2-.7,2.4-2.1.6-3.5,4.3-.8,2.2,1.1,6.4h0Z"/>
  <path id="uuid-9e3a291b-5666-4c2e-98d0-84f590ed36bd" data-name="CY" class="uuid-dbe3e9fa-8504-41fd-918f-1abed156b197" d="M697.55,645.35h-.2l.1-.1.1.1ZM697.55,645.35h.2l.1.1h-.3v-.1ZM697.15,645.05h-.1v-.1h.1v-.1l.1.1v.1h-.1ZM700.65,644.25l.2.1.3.3.2.4.1.3.2.2.2.1h-.5l-.3-.1-.2-.2h-.2l-.7.1-.6.1-.1.1-.1.1h-.6l-.1-.1.2-.1h.1l-.1-.3h-.2l-.2-.1v-.4l-.1-.1-.3-.1v-.2l.1-.1.2-.1.1.1.1.1.2-.1.1-.1.1-.1.1-.1.2.2.2.1h.1l.2.1h.1l.3-.1h.2l.1.1h.4v-.1h0ZM696.65,645.35v.2l-.3.1-.3.3v.2l-.1.3v1h-.1l-.1.1v.3l-.1.1h-.6l-.2.1-.1.1-.1.2-.1.1-.2.1-.4.1-.4.2-.3.1-.2-.3.1.5-.4.2-.9.2-.2.1-.1.1-.2.1h-.2l-.9-.1-1,.1-.1.1-.2.1-.6.5-.1.3h-.3l-.3.1v.1l-.1-.1-.1-.2.1-.2.1.1h.3l-.1-.4-.4-.1-.2.2-.1.1-.2-.1v.1l-.4-.1-.3-.2-.1-.1v-.2h-.4l-.1.1v.1h-.2l-.1.2h-.4l-.1.1.1.2-.2.1h-.5l-.6-.1-.5-.2-.7-.4-.3-.1-.3-.1h-.5l-.3-.1-.2-.2-.6-.4-.1-.1-.1-.4v-.1l-.1-.1-.4-.9-.1-.1-.3-.2-.2-.1-.1-.1-.1-.2v-.2l.1-.2-.3-.4-.1-.2v-.4l-.1-.2-.3-.5-.2-.3-.1-.4.1-.3h.1l.3.1.4.5.3.1.2.1h.6l.4-.2.3-.4.3-.4.1-.5.1-.3.2-.1.1-.1v-.1h.1l.1.1h.3l.1.1.2.2h.3l.2-.2.1-.2v-.2l.4.1.2.4.1.2.1.2.2.1.4.1.3.1.2.2.2.1.1.2v.2l.1.1.1.1h.1l.4-.1.1-.2.1-.2.1-.1.1.1.1.1.2.1h.2l.2-.1.2-.2.2-.2.2-.1.3-.2.1-.2h.2l.3.1h.7l.1-.1h.1l.1-.2.3-.2h.2l.2.1.1.1h.3l.2.2.2.2.2.1.3.1h.1l.1-.1v-.1l.1-.2.3-.3h.9v.2l.1.2.1.1.2.2.2.2v.1l.1.3v.9l-.1.3.1.2.1.1h.4v-.7l.1-.1.1-.1.1-.1.1.1.1.4.1.2.1.1.3-.1v-.2l.1-.1h.2l.1.1h.2l.1-.1.1.1h.1l.3.2h.3l.3.2h0Z"/>
  <rect id="uuid-ec6a3570-15f9-430c-a332-cb3d5cc46aa7" data-name="0" class="uuid-dbe3e9fa-8504-41fd-918f-1abed156b197" x="254.25" y="389.85"/>
  <rect id="uuid-adfe035c-ecfa-4baf-9989-0466b018720f" data-name="1" class="uuid-dbe3e9fa-8504-41fd-918f-1abed156b197" x="429.75" y="411.05"/>
  <rect id="uuid-f13a6bdb-b77b-46b2-afaf-2f9b49d7af78" data-name="2" class="uuid-dbe3e9fa-8504-41fd-918f-1abed156b197" x="375.35" y="265.65"/>
</svg>