<?xml version="1.0" encoding="UTF-8" standalone="no"?>
<svg
   xmlns:dc="http://purl.org/dc/elements/1.1/"
   xmlns:cc="http://creativecommons.org/ns#"
   xmlns:rdf="http://www.w3.org/1999/02/22-rdf-syntax-ns#"
   xmlns:svg="http://www.w3.org/2000/svg"
   xmlns="http://www.w3.org/2000/svg"
   viewBox="0 0 333.45645 191.17078"
   height="191.17078"
   width="333.45645"
   version="1.1"
   id="svg2">
  <metadata
     id="metadata8">
    <rdf:RDF>
      <cc:Work
         rdf:about="">
        <dc:format>image/svg+xml</dc:format>
        <dc:type
           rdf:resource="http://purl.org/dc/dcmitype/StillImage" />
        <dc:title></dc:title>
      </cc:Work>
    </rdf:RDF>
  </metadata>
  <defs
     id="defs6" />
  <path
     id="path4138"
     d="m 103.33727,189.86131 c -0.28922,-8.97808 16.31258,-26.05182 17.48243,-31.46712 -8.96461,6.76205 -37.371823,27.79454 -41.931906,23.93141 -2.834905,-4.3579 45.041796,-54.2379 63.357986,-67.45872 0.14938,-0.8573 -1.98474,-3.2128 -3.82148,-4.83639 -17.71589,6.06918 -97.516588,73.70769 -99.268262,72.10735 C 35.840561,179.1088 103.70429,129.49669 128.95623,111.87553 117.65672,114.7864 0.12490378,159.60631 0.04958427,154.36005 43.416456,133.06513 104.03331,107.04446 136.36699,105.64397 c 14.35702,-10.487934 32.41953,-25.401073 45.35733,-34.642171 1.10871,-1.71663 11.8835,-22.457511 14.53137,-21.45325 1.14986,2.115769 0.80138,5.661626 1.27683,8.533144 1.10375,0 17.94237,-16.413877 17.94237,-17.489797 -3.84387,-0.0648 -13.85952,8.812818 -15.32922,6.392346 -1.90211,-2.346331 16.29243,-10.681035 19.58142,-11.050687 3.3213,6.233866 -30.11234,31.738703 -35.13284,35.462187 -1.43008,1.033955 -9.86647,14.378931 -9.86647,15.501577 6.87054,-4.761496 5.82945,-4.343437 10.90185,-7.062832 23.4765,-12.586112 92.06987,-51.774812 134.14783,-78.6452473 1.48081,5.2410433 -80.60121,53.0291283 -121.82938,74.3264753 4.72932,0.15401 8.87456,1.45413 12.35221,6.74958 40.90179,-10.589922 123.85998,-32.44852 122.56118,-29.685568 -2.18541,4.649045 -51.11128,14.232687 -121.28674,32.897641 5.39656,20.652832 -70.79035,59.690972 -73.96388,62.898352 -0.52989,7.08932 -28.66666,50.4805 -34.27358,41.48559 z m 31.22671,-40.17802 c -1.83953,1.25053 -6.58416,4.38031 -9.50406,7.13456 -4.75578,7.75514 -19.06526,29.04557 -19.08899,32.0862 11.63413,-10.84547 23.94497,-24.88067 28.59305,-39.22076 z m -10.66032,4.13215 c 1.9489,-3.26515 14.71389,-18.96298 21.36871,-28.17311 0,0 0.46229,-4.29172 -1.75471,-8.05061 -19.02403,17.35339 -42.84392,37.43003 -59.292774,60.92537 12.168593,-6.06914 30.185594,-18.50396 39.678774,-24.70165 z m 11.21314,-7.66515 c 1.77455,-2.25623 3.76552,-6.60746 4.71472,-9.26232 -2.25239,1.90397 -11.43958,13.79643 -11.03879,13.87658 0,0 5.5066,-3.71097 6.32407,-4.61426 z m -4.01691,-37.37587 c -22.70124,-0.87419 -76.420738,23.71545 -106.875004,36.77905 31.88603,-10.83023 79.795994,-26.70048 106.875004,-36.77905 z m 76.24508,-22.340047 c -9.61924,3.730912 -30.31159,9.136965 -41.33994,13.286661 -9.5175,14.173566 -20.66191,30.337816 -26.1925,44.226896 23.41741,-16.5013 71.75365,-45.611209 67.53244,-57.513557 z m -49.07193,19.783917 c -2.64684,1.80058 -10.54675,7.01563 -11.6041,8.65883 0.23984,1.98186 1.54191,4.57852 0.89005,7.15573 2.83322,-4.57224 7.63044,-11.09227 10.71405,-15.81456 z m 1.69668,-5.21125 c -8.02718,3.14644 -18.36968,7.6543 -18.36968,7.6543 2.08631,1.84086 3.50442,4.13346 3.50442,4.13346 -1.29098,-0.20334 14.86526,-11.78776 14.86526,-11.78776 z m 10.55746,-13.381354 c 0,0 7.13188,-9.514204 7.87443,-10.853216 -2.22556,0.192281 -34.22954,25.68635 -36.37743,28.25942 7.03607,-5.277386 24.84722,-17.562359 28.503,-17.406204 z m -7.10781,9.996538 c 1.94359,-1.594399 3.49658,-4.290037 5.43504,-6.740483 -5.59694,1.080451 -13.38995,7.542746 -18.66301,11.186529 -1.36206,0.94121 6.11897,-2.573076 13.22797,-4.446046 z m 14.48395,-4.731058 c 7.84407,-3.445614 21.68305,-6.535023 29.26648,-9.22357 -7.76847,-7.756354 -14.97051,-4.606222 -21.14498,0.08272 0,0 -5.78081,5.910946 -8.1215,9.14085 z m -4.40503,1.142698 c 1.09725,-1.004298 9.10085,-9.930541 7.70829,-9.566378 0,0 -13.50524,11.434655 -14.32908,12.660226 z m 21.48255,-34.0468 -1.08827,-5.174387 c -0.94132,0.100707 -5.21945,8.200439 -6.43993,11.237766 2.10286,-0.798261 7.5282,-6.063379 7.5282,-6.063379 z"
     style="fill:#000000" />
</svg>
