<?xml version="1.0" encoding="UTF-8"?>
<svg id="uuid-91b6850a-3ab9-4a00-a771-9d993584fa0b" data-name="2" xmlns="http://www.w3.org/2000/svg" viewBox="0 0 600.67 800">
  <defs>
    <style>
      .uuid-bef1f0ee-0f85-40d2-9781-9d0221b4fb83 {
        fill: #daa520;
        stroke-width: 0px;
      }
    </style>
  </defs>
  <path class="uuid-bef1f0ee-0f85-40d2-9781-9d0221b4fb83" d="M553.6,74.53l-23.65-37.89c5.54-3.54,9.24-9.71,9.24-16.76,0-10.98-8.89-19.88-19.88-19.88H75.49c-20.71,0-39.58,8.44-53.13,22.01C8.78,35.53,0,54.45,0,75.13v659.41c0,36.15,29.32,65.46,65.46,65.46h480.06c30.45,0,55.15-24.67,55.15-55.12V128.85c0-27.7-20.49-50.35-47.07-54.33ZM137.43,281.78l43.74,51.79c3.44,4.08,9.2,4.87,12.85,1.78l1.8-1.5c3.66-3.1,3.87-8.91.42-12.99l-43.98-52.08c-8.87-10.5-5.15-19.01.96-24.17,6.11-5.16,15.13-7.4,24,3.1l43.98,52.08c3.44,4.08,9.22,4.86,12.87,1.76l1.77-1.5c3.66-3.09,3.87-8.9.42-12.98l-43.74-51.8c-15.87-18.8,8.84-38.57,24.35-20.2,18.59,22,41.31,48.92,41.31,48.92,28.66,33.7,28.77,48.62,25.64,69.3-2.52,16.66-6.7,28.5,11.08,49.57l5.65,6.68-24.94,29.52-9.83-11.61c-17.78-21.06-30.15-18.93-47-19.22-20.91-.37-35.6-3.02-64.02-36.9,0,0-22.73-26.92-41.31-48.92-15.5-18.36,8.12-39.42,24-20.61ZM220.38,700.35h-14.12v-42.7l-14.01,29.64h-10.09l-14.43-29.81v42.87h-14.1v-75.26h13.53l20.03,42.67,19.64-42.67h13.55v75.26h0ZM291.14,638.09h-35.14v17.89h29.97v12.9h-29.97v18.49h35.14v12.99h-49.24v-75.26h49.24v12.99ZM366.45,700.35h-12.46l-30.87-47.01v47.01h-14.1v-75.26h12.46l30.87,46.91v-46.91h14.1v75.26h0ZM320.96,472.79l24.94-29.53,73.45,86.99-29.1,24.6-69.29-82.06ZM441.9,674.46c0,3.92-.72,7.55-2.1,10.8-1.4,3.26-3.37,6.09-5.85,8.39-2.48,2.29-5.43,4.09-8.78,5.39-3.33,1.27-6.96,1.92-10.79,1.92s-7.44-.65-10.79-1.92c-3.35-1.29-6.28-3.11-8.71-5.4-2.45-2.3-4.4-5.11-5.78-8.37-1.4-3.25-2.1-6.88-2.1-10.8v-49.37h14.1v48.87c0,4.41,1.2,7.89,3.59,10.33,2.41,2.47,5.58,3.67,9.7,3.67s7.31-1.2,9.76-3.68c2.45-2.48,3.63-5.86,3.63-10.32v-48.86h14.12v49.37h0ZM473.91,283.45c-10.03,24.44-28.05,69.29-48.19,93.17-46.85,58.76-47.49,5.53-86.11,49.91l-108.37,128.33-28.96-24.48-.48.28s.13-.17.33-.4c4.57-5.41,69.03-81.73,124.49-147.42,54.87-64.97,100.67-119.22,110.32-130.64,19.79-23.46,52.63-6.81,36.98,31.24ZM41.27,76.02v-.89c0-8.7,3.72-17.41,10.2-23.87,6.46-6.48,14.95-9.99,24.02-9.99h408.71l21.7,34.76H41.27Z"/>
</svg>