<?xml version="1.0" encoding="UTF-8"?>
<svg id="uuid-6ee08b34-3d38-4881-a202-4e0906a7360f" data-name="Capa 1" xmlns="http://www.w3.org/2000/svg" viewBox="0 0 516.01 735.31">
  <defs>
    <style>
      .uuid-2f191557-7fc1-46ad-8d83-ddab3729dc13 {
        fill: #daa621;
      }

      .uuid-2f191557-7fc1-46ad-8d83-ddab3729dc13, .uuid-6930bb19-fba0-465a-835a-75163d4c24d2 {
        stroke-width: 0px;
      }

      .uuid-6930bb19-fba0-465a-835a-75163d4c24d2 {
        fill: #fdfdfd;
      }
    </style>
  </defs>
  <path class="uuid-2f191557-7fc1-46ad-8d83-ddab3729dc13" d="M129.75,88.69c16.78-20.59,38.34-31.71,65.06-33.29,3.23-18.84,12.02-34.15,28.07-44.82C234.34,2.96,247.02-.55,260.74.07c24.5,1.1,53.38,17.99,60.03,55.26,26.33,1.42,48.17,12.3,65.41,33.31,1.65,0,3.62,0,5.59,0,25.83,0,51.66-.04,77.48.02,23.58.05,42.28,15.89,46.13,39.03.43,2.61.53,5.31.53,7.96.02,184.13-.05,368.26.09,552.38.02,22.77-15.49,41.34-35.2,45.81-4.18.95-8.57,1.4-12.86,1.41-138.47.07-276.94.06-415.41.03-4.49,0-9.03,0-13.45-.66-22.21-3.3-38.66-22.19-39.04-44.58-.06-3.66-.01-7.33-.01-11C.04,498.42.05,317.8,0,137.17c0-9.57,1.75-18.59,6.97-26.67,9.06-14.03,22.01-21.61,38.77-21.75,25.99-.22,51.99-.06,77.98-.06,1.99,0,3.98,0,6.02,0ZM114.25,119.78c-1.89-.11-3.2-.25-4.5-.26-20.83-.02-41.66-.02-62.49-.01-.83,0-1.67,0-2.5.08-7.18.63-13.08,6.41-13.78,13.58-.18,1.82-.12,3.66-.12,5.49,0,181.98,0,363.96,0,545.94,0,1.83-.08,3.67.07,5.5.53,6.87,5.07,12.25,11.8,13.8,2.08.48,4.29.61,6.43.61,138.99.03,277.97.03,416.96.02,1.33,0,2.67.04,4-.06,8.79-.64,14.75-6.86,15.01-15.63.03-1,0-2,0-3,0-182.65,0-365.29,0-547.94,0-1.33,0-2.67-.04-4-.08-3.12-1.25-5.84-3.13-8.26-3.29-4.23-7.61-6.17-13-6.16-21,.06-42,0-62.99.03-1.28,0-2.57.24-4.31.41.32,1.93.67,3.52.82,5.13.54,5.62,1.4,11.26,1.41,16.89,0,6.92-4.68,12.4-11.37,14.08-1.9.48-3.96.5-5.94.5-85.82.03-171.65.03-257.47.04-.83,0-1.67.03-2.5-.02-8-.45-14.16-6.41-14.52-14.4-.16-3.64.13-7.33.49-10.96.36-3.62,1.06-7.21,1.7-11.41ZM370.53,125.12c-.46-1.53-.7-2.83-1.22-4.02-9.26-21.09-25.18-32.97-48.33-34.62-4.97-.35-9.99,0-14.98-.16-9.57-.29-15.76-6.65-15.93-16.25-.04-2.33.02-4.66-.01-6.99-.26-17.43-13.62-31.47-31.13-32.21-16.33-.68-31.19,11.3-33.16,28.33-.4,3.46-.62,6.98-.46,10.46.42,9.06-5.97,16.71-16.46,16.69-3.66,0-7.33-.01-10.99,0-19.06.09-33.96,8.31-45.16,23.43-3.42,4.62-6.13,9.72-7.29,15.53,7.88,1.02,219.92.93,225.12-.2Z"/>
  <path class="uuid-2f191557-7fc1-46ad-8d83-ddab3729dc13" d="M187.99,259.14c0,13.33,0,26.65,0,39.98,0,1.5.06,3.02-.2,4.48-.61,3.48-2.88,5.59-6.39,6.02-1.32.16-2.66.12-3.99.12-26.49,0-52.98,0-79.46,0-1.17,0-2.34.04-3.5-.06-3.7-.32-6.22-2.42-6.97-6.04-.33-1.61-.29-3.31-.29-4.97-.02-26.15-.02-52.31-.02-78.46,0-.5,0-1,0-1.5.1-6.93,2.8-9.74,9.7-9.75,27.15-.04,54.31.07,81.46-.09,5.68-.04,9.89,3.03,9.74,9.79-.29,13.49-.09,26.99-.09,40.48h0ZM172.45,225c-7.96-.92-65.73-.59-69.23.33-.86,6.62-.56,65.15.35,68.66,6.84.97,65.25.65,68.88-.46v-68.53Z"/>
  <path class="uuid-2f191557-7fc1-46ad-8d83-ddab3729dc13" d="M137.48,361.6c13.16,0,26.32,0,39.47,0,1.5,0,3.01-.05,4.49.15,3.31.44,5.82,2.84,6.34,6.14.26,1.63.21,3.32.21,4.98,0,26.15,0,52.3,0,78.45,0,.83.01,1.67-.01,2.5-.19,5.56-2.74,8.24-8.23,8.6-1,.07-2,.02-3,.02-25.98,0-51.97,0-77.95,0-.83,0-1.67.03-2.5,0-6.2-.24-9.09-3.09-9.11-9.39-.05-27.48-.06-54.96,0-82.45.01-6.36,2.77-8.94,9.3-8.97,13.66-.05,27.32-.01,40.97-.01h0ZM103.26,377.17c-.98,8.13-.61,65.77.37,69.2,7.3.87,65.18.55,68.63-.38.98-7.46.62-65.06-.5-68.82h-68.5Z"/>
  <path class="uuid-2f191557-7fc1-46ad-8d83-ddab3729dc13" d="M137.65,614.78c-13.49,0-26.98.02-40.47,0-7.43-.01-9.98-2.48-9.99-9.82-.03-26.98-.04-53.96,0-80.94,0-7.23,2.77-10,9.98-10.01,26.81-.04,53.63-.02,80.44,0,1.33,0,2.68.03,3.97.29,3.74.73,5.85,2.99,6.31,6.74.18,1.48.1,2.99.1,4.49,0,26.15,0,52.3,0,78.44,0,8.8-2,10.8-10.87,10.81-13.16.02-26.31,0-39.47,0h0ZM172.24,598.89c1.08-8.39.62-65.57-.51-68.91-8.46-1-65.25-.59-68.67.52v68.23c3.93.92,64.08,1.06,69.18.17Z"/>
  <path class="uuid-2f191557-7fc1-46ad-8d83-ddab3729dc13" d="M315.92,572.35c-33.64,0-67.28,0-100.92,0-1.5,0-3.02.05-4.48-.19-4.26-.71-6.76-3.86-6.56-8.06.19-3.97,2.79-6.79,6.86-7.31,1.15-.15,2.33-.08,3.49-.08,67.78,0,135.56,0,203.34,0,1.33,0,2.68-.07,3.99.08,4.19.47,7.08,3.61,7.13,7.63.05,4.06-2.75,7.24-6.94,7.8-1.15.15-2.33.11-3.49.11-34.14,0-68.28,0-102.42,0v.02Z"/>
  <path class="uuid-2f191557-7fc1-46ad-8d83-ddab3729dc13" d="M315.98,267.26c-33.47,0-66.95,0-100.42-.02-1.98,0-4.03-.02-5.94-.49-3.75-.91-5.84-4-5.65-7.78.17-3.41,2.58-6.3,6.05-7.04,1.28-.27,2.65-.24,3.98-.24,68.11,0,136.23,0,204.34,0,1.49,0,3.03-.05,4.48.25,3.38.69,5.74,3.65,5.93,7.16.18,3.25-2.12,6.76-5.41,7.54-2.23.53-4.62.6-6.93.6-33.47.03-66.95.02-100.42.02h0Z"/>
  <path class="uuid-2f191557-7fc1-46ad-8d83-ddab3729dc13" d="M315.92,419.65c-33.63,0-67.27,0-100.9,0-1.33,0-2.67.06-3.99-.06-4.13-.38-7.01-3.55-7.03-7.62-.02-4.22,2.64-7.09,7.06-7.51,1.32-.13,2.66-.09,3.99-.09,66.77,0,133.54.01,200.3.02,2.16,0,4.34-.09,6.49.11,3.95.35,6.79,3.46,6.85,7.25.06,3.9-2.57,7.17-6.38,7.76-1.47.23-2.99.15-4.49.15-33.97,0-67.93,0-101.9,0h0Z"/>
  <path class="uuid-6930bb19-fba0-465a-835a-75163d4c24d2" d="M129.33,264.96c-1.53-1.45-2.85-2.66-4.13-3.92-2.37-2.34-4.58-4.84-7.09-7.01-3.54-3.08-7.89-3-10.82-.09-3.08,3.06-3.08,7.65.32,11.18,5.31,5.51,10.73,10.92,16.23,16.24,3.32,3.21,7.18,3.18,10.76.23.77-.63,1.45-1.37,2.15-2.08,9.88-9.88,19.78-19.75,29.63-29.65,1.04-1.05,2.1-2.19,2.78-3.48,2.82-5.38-.92-11.2-6.98-11.03-2.7.08-4.66,1.46-6.47,3.3-4.79,4.86-9.62,9.67-14.46,14.48-3.87,3.86-7.76,7.7-11.94,11.84Z"/>
  <path class="uuid-6930bb19-fba0-465a-835a-75163d4c24d2" d="M129.35,417.48c-2.1-2.07-3.75-3.68-5.39-5.3-2.02-1.98-3.89-4.15-6.09-5.9-4.82-3.84-11.22-1.71-12.63,4.05-.75,3.08.46,5.52,2.59,7.65,5.05,5.07,10.19,10.05,15.12,15.24,3.27,3.44,8.6,4.42,13.09-.24,10.05-10.42,20.29-20.67,30.7-30.73,4.15-4.01,4.15-9.5,1.16-12.38-3.47-3.36-7.93-2.86-12.26,1.44-5.2,5.16-10.34,10.37-15.53,15.54-3.4,3.39-6.84,6.76-10.76,10.63Z"/>
  <path class="uuid-6930bb19-fba0-465a-835a-75163d4c24d2" d="M129.23,569.99c-2.76-2.73-5.21-5.19-7.7-7.6-1.55-1.5-3.03-3.15-4.79-4.36-3.08-2.11-7.13-1.53-9.61,1.07-2.49,2.61-2.83,6.63-.73,9.65.76,1.09,1.65,2.1,2.58,3.04,4.45,4.49,8.89,9,13.43,13.41,5.07,4.93,8.76,4.89,13.7-.05,10.02-10,20.03-20.02,30.04-30.04.94-.94,1.96-1.85,2.67-2.96,1.79-2.77,1.78-5.67.08-8.49-1.54-2.55-4.65-4.02-7.8-3.1-1.96.57-3.92,1.82-5.4,3.25-6.59,6.36-13,12.91-19.49,19.37-2.21,2.2-4.47,4.37-6.97,6.81Z"/>
  <path class="uuid-2f191557-7fc1-46ad-8d83-ddab3729dc13" d="M129.33,264.96c4.17-4.14,8.06-7.98,11.94-11.84,4.83-4.82,9.67-9.62,14.46-14.48,1.81-1.84,3.76-3.23,6.47-3.3,6.05-.17,9.8,5.65,6.98,11.03-.68,1.29-1.74,2.43-2.78,3.48-9.86,9.9-19.75,19.77-29.63,29.65-.71.71-1.39,1.45-2.15,2.08-3.58,2.95-7.44,2.97-10.76-.23-5.5-5.32-10.92-10.73-16.23-16.24-3.4-3.53-3.4-8.11-.32-11.18,2.93-2.91,7.27-2.98,10.82.09,2.5,2.18,4.72,4.68,7.09,7.01,1.28,1.26,2.6,2.47,4.13,3.92Z"/>
  <path class="uuid-2f191557-7fc1-46ad-8d83-ddab3729dc13" d="M129.35,417.48c3.92-3.87,7.36-7.23,10.76-10.63,5.19-5.17,10.33-10.38,15.53-15.54,4.33-4.3,8.79-4.8,12.26-1.44,2.99,2.89,2.99,8.37-1.16,12.38-10.41,10.07-20.65,20.31-30.7,30.73-4.49,4.65-9.82,3.68-13.09.24-4.92-5.19-10.06-10.18-15.12-15.24-2.12-2.13-3.34-4.57-2.59-7.65,1.41-5.77,7.81-7.89,12.63-4.05,2.2,1.75,4.07,3.92,6.09,5.9,1.64,1.61,3.29,3.23,5.39,5.3Z"/>
  <path class="uuid-2f191557-7fc1-46ad-8d83-ddab3729dc13" d="M129.23,569.99c2.5-2.44,4.75-4.6,6.97-6.81,6.49-6.46,12.9-13.01,19.49-19.37,1.49-1.43,3.44-2.68,5.4-3.25,3.15-.91,6.26.55,7.8,3.1,1.7,2.82,1.71,5.72-.08,8.49-.71,1.1-1.73,2.02-2.67,2.96-10,10.02-20.01,20.04-30.04,30.04-4.94,4.93-8.63,4.98-13.7.05-4.53-4.41-8.98-8.92-13.43-13.41-.93-.94-1.83-1.96-2.58-3.04-2.1-3.02-1.76-7.04.73-9.65,2.47-2.6,6.52-3.18,9.61-1.07,1.77,1.21,3.24,2.85,4.79,4.36,2.49,2.41,4.94,4.87,7.7,7.6Z"/>
</svg>