<?xml version="1.0" encoding="UTF-8"?>
<svg id="uuid-e877ed82-b43d-473f-bb1d-b44c387d9480" data-name="Capa 1" xmlns="http://www.w3.org/2000/svg" viewBox="0 0 512 201.96">
  <defs>
    <style>
      .uuid-165e59a8-d295-420d-9134-09d72b6f0f9f {
        fill: #daa520;
        stroke-width: 0px;
      }
    </style>
  </defs>
  <path class="uuid-165e59a8-d295-420d-9134-09d72b6f0f9f" d="M512,190.94c-3.87,8.43-10.51,11.11-19.61,11.02-33.66-.34-67.32-.13-100.98-.14-1.66,0-3.41.16-4.96-.28-3.77-1.08-5.96-3.63-5.69-7.72.27-4.04,2.58-6.38,6.57-6.89,1.64-.21,3.33-.11,4.99-.11,34.65,0,69.3,0,104.31,0v-21.99H15.22v21.99h5.93c110.65,0,221.3,0,331.95,0,1.83,0,3.68-.08,5.5.08,4.33.38,6.7,3,6.89,7.15.19,3.98-2.13,6.61-5.96,7.55-1.74.42-3.64.24-5.47.24-111.48,0-222.97-.06-334.45.13-9.09.02-15.75-2.56-19.61-11.01v-31c4.28-8.39,11.24-10.81,20.37-10.5,15.64.53,31.3.15,47.41.15,2.06-13.06,4.13-26.01,6.13-38.96,5.07-32.89,10.09-65.79,15.19-98.68C90.27,4.4,95.15.1,102.77.06,121.26-.03,139.76,0,158.25.04c5.81.01,9.05,2.91,8.95,7.72-.1,4.63-3.16,7.25-8.83,7.26-17.98.05-35.97.02-54.5.02-6.91,44.64-13.8,89.14-20.79,134.29,1.98.09,3.71.24,5.44.24,96.3.01,192.61,0,288.91.07,3.27,0,5.01-.38,5.6-4.26,6.47-42.78,13.15-85.52,19.76-128.28.07-.48,0-.99,0-2.05h-5.29c-67.15,0-134.29,0-201.44,0-1,0-2,0-3,0-7.17-.02-10.78-2.52-10.78-7.46,0-4.95,3.69-7.55,10.77-7.55,71.48,0,142.96,0,214.44,0,9.82,0,14.08,3.88,15.59,13.69,6.7,43.59,13.45,87.16,20.2,130.74.25,1.62.69,3.21,1.11,5.12,16.42,0,32.72.28,49.01-.11,9.02-.21,15.3,2.9,18.57,11.46v30ZM413.65,50.57c-.29-.08-.57-.16-.86-.24-5.09,32.93-10.18,65.85-15.31,99.06h31.44c-5.12-33.11-10.19-65.97-15.27-98.82Z"/>
  <path class="uuid-165e59a8-d295-420d-9134-09d72b6f0f9f" d="M245.53,62.05c-31.98,0-63.97,0-95.95,0-1.66,0-3.81.5-4.88-.33-2.19-1.7-5.17-4.08-5.27-6.3-.11-2.47,2.16-5.61,4.27-7.41,1.46-1.24,4.42-.94,6.72-.94,63.47-.04,126.94-.03,190.41-.03,1.17,0,2.34-.06,3.5.03,4.94.38,7.96,3.52,7.74,7.97-.21,4.22-3.2,6.95-8.08,6.99-10.16.09-20.32.03-30.48.03-22.66,0-45.31,0-67.97,0Z"/>
  <path class="uuid-165e59a8-d295-420d-9134-09d72b6f0f9f" d="M235.32,104.01c-19.8,0-39.6,0-59.4,0-6.75,0-10.09-2.55-10.01-7.57.08-4.83,3.42-7.43,9.78-7.43,39.93-.02,79.87,0,119.8,0,.67,0,1.33-.03,2,.02,4.96.37,7.93,3.43,7.73,7.93-.19,4.29-3.11,7.01-8,7.03-20.63.06-41.27.03-61.9.03Z"/>
</svg>