<?xml version="1.0" encoding="UTF-8"?>
<svg id="uuid-836d64f8-8623-473f-88cb-2634e2ebfd20" data-name="Capa 1" xmlns="http://www.w3.org/2000/svg" viewBox="0 0 603.87 561.19">
  <defs>
    <style>
      .uuid-7d3f9b86-4375-48fc-b338-3fcce5fd54a1 {
        fill: #b1b2b4;
      }

      .uuid-7d3f9b86-4375-48fc-b338-3fcce5fd54a1, .uuid-7ee38d60-94c0-46b3-b316-7c10fca6d0b1, .uuid-edc13201-e8c6-494c-8be4-306345cfc21a, .uuid-297ea156-125c-4a1e-a39c-e011bff6597d, .uuid-0b68b360-b7d4-49d4-adc6-38e65f80b054, .uuid-9072305c-858c-43f2-b703-c8ba916ee539, .uuid-d433857e-eb6f-4400-896f-3e4b7e5725a5, .uuid-286c2a59-ea17-4d47-9070-516cbaf2f000, .uuid-52035769-768c-4d6b-9bb6-133458dd9083, .uuid-e45146fc-4142-4704-9d2f-1c8d79f6914a, .uuid-5b33409f-4495-45f9-8cc2-09f5d90ea82d, .uuid-46e4c766-e7b4-4d88-83ee-88dba3a322ca, .uuid-0cd16c92-a929-432f-94dd-4dfedae59236, .uuid-1f93e8fa-93ff-4d21-80ca-f89a8a7a173b, .uuid-96927bdc-e0f7-4bcb-b5e8-a60d2d245328, .uuid-5ea5f26d-1d88-4feb-b9c7-57e63722081a, .uuid-27e33b6b-3519-47d7-a546-98faf133fbcd, .uuid-ac93ade2-8d52-42f0-8a3c-70d7cdb783dc, .uuid-ba32ac1c-4041-408d-8828-7aba01e41246, .uuid-e81d828d-d703-4c99-93ad-cfcda8bdd07e, .uuid-76081d2f-a991-4f3c-8db2-20cc21ab5738 {
        stroke-width: 0px;
      }

      .uuid-7ee38d60-94c0-46b3-b316-7c10fca6d0b1 {
        fill: #b6b5b4;
      }

      .uuid-edc13201-e8c6-494c-8be4-306345cfc21a {
        fill: #b9b8b6;
      }

      .uuid-297ea156-125c-4a1e-a39c-e011bff6597d {
        fill: #dfdede;
      }

      .uuid-0b68b360-b7d4-49d4-adc6-38e65f80b054 {
        fill: #bababa;
      }

      .uuid-9072305c-858c-43f2-b703-c8ba916ee539 {
        fill: #fbfbfb;
      }

      .uuid-d433857e-eb6f-4400-896f-3e4b7e5725a5 {
        fill: #aeadad;
      }

      .uuid-286c2a59-ea17-4d47-9070-516cbaf2f000 {
        fill: #b6b8b8;
      }

      .uuid-52035769-768c-4d6b-9bb6-133458dd9083 {
        fill: #b7b8b8;
      }

      .uuid-e45146fc-4142-4704-9d2f-1c8d79f6914a {
        fill: #aaa;
      }

      .uuid-5b33409f-4495-45f9-8cc2-09f5d90ea82d {
        fill: #e8e8e7;
      }

      .uuid-46e4c766-e7b4-4d88-83ee-88dba3a322ca {
        fill: #bab8b8;
      }

      .uuid-0cd16c92-a929-432f-94dd-4dfedae59236 {
        fill: #b2b1b1;
      }

      .uuid-1f93e8fa-93ff-4d21-80ca-f89a8a7a173b {
        fill: #b3b3b4;
      }

      .uuid-96927bdc-e0f7-4bcb-b5e8-a60d2d245328 {
        fill: #acadad;
      }

      .uuid-5ea5f26d-1d88-4feb-b9c7-57e63722081a {
        fill: #b3b2b0;
      }

      .uuid-27e33b6b-3519-47d7-a546-98faf133fbcd {
        fill: #afb0b1;
      }

      .uuid-ac93ade2-8d52-42f0-8a3c-70d7cdb783dc {
        fill: #aeafae;
      }

      .uuid-ba32ac1c-4041-408d-8828-7aba01e41246 {
        fill: #acacac;
      }

      .uuid-e81d828d-d703-4c99-93ad-cfcda8bdd07e {
        fill: #fefefe;
      }

      .uuid-76081d2f-a991-4f3c-8db2-20cc21ab5738 {
        fill: #b5b6b4;
      }
    </style>
  </defs>
  <path class="uuid-e45146fc-4142-4704-9d2f-1c8d79f6914a" d="M305.95,487.51c-.97.57-1.88,1.47-2.91,1.66-9.57,1.75-19.15,3.52-28.77,5-14.83,2.29-29.78,2.18-44.73,2.02-.31,0-.63.17-1.05.85,5.72,1.02,11.42,2.64,17.18,2.95,13.6.72,27.27,1.66,40.84.99,22.17-1.09,43.82-5.78,65.1-12.12,1.87-.56,3.86-.69,5.39-.95,8.7,4.75,16.18,10.19,22.42,17.23,2.91,3.28,5.1,6.87,5.58,11.41.71,6.68-2.59,11.47-7.1,15.64-6.71,6.2-14.98,9.77-23.36,12.93-16.43,6.18-33.41,10.15-50.71,13.33-21.83,4.01-43.73,2.43-65.61,2.55-8.58.05-17.22-.8-25.75-1.92-18.35-2.41-36.73-5.06-54.05-12.01-9.98-4-19.97-8.25-27.6-16.35-12.21-12.97-10.03-26.21,2.58-37.13,7.08-6.13,15.38-10.34,24.1-13.71.62-.24,1.22-.54,1.77-.9.22-.15.3-.52.62-1.09-4-1.9-7.99-3.8-11.98-5.69-12.69-6.01-24.14-13.94-34.59-23.22-8.07-7.18-15.94-14.63-23.4-22.43-13.93-14.58-25.16-31.2-35.56-48.42-8.32-13.78-15.54-28.13-21.89-42.89-3.52-8.19-6.44-16.64-9.63-24.97,1.74-.92,1.01-2.11.43-3.36-1.16-2.55-2.25-5.13-3.35-7.64.75-1.13,1.38-2.08,2.02-3.04l4.56-3.22c2.55-.94,5.78-.61,7.64-4.23-1.95-4.16-3.97-8.49-6.34-13.54-2.03,2.5-3.44,4.22-4.79,5.9-3.61-.54-4.24-.78-5-3.18-1.36-4.27-2.26-8.59.47-12.43,4.02-1.18,4.91,2.85,7.33,3.57,2.25-.36,4.32-.69,5.76-.92,3.42,2.06,6.2,3.74,8.92,5.38,4.64-3.01,5.61-7.6,7.55-12.07-5.7-3.25-12.76-1.46-18.63-5.45,3.19-2.26,5.82-4.13,8.02-5.68,1.61.4,2.56.64,3.51.87h0c.84,1.44,1.68,2.87,2.64,4.51,3.81-.56,7.08-1.03,10.36-1.51h3c.35.31.83.97,1.03.89,2.95-1.1,4.92.75,7.11,2.14,2.19,1.39,4.36,3.13,6.79,3.75,3.31.84,6.77.9,9.75,2.94.7.48,2.08.53,2.88.18,3.88-1.71,7.41-.83,10.57,1.14,1.64,0,3.08-.34,4.27.06,3.43,1.15,6.7.38,10.15.16,5.15-.33,10.75-2.54,15.52,1.78.84-1.45,1.54-2.66,2.49-4.31,3.9.62,7.73,1.34,11.59,1.82,4.72.58,9.45,1.24,14.19,1.34,4.08.09,8.18-.67,12.28-.85,3.48-.16,6.97.03,10.46-.06,2.13-.05,4.43-.05,4.93-2.94l-.1-.18c3.58,0,7.14,2.24,11.39.12-3.91-2.29-7.63-2.02-11.31-1.96-1.02-.29-2.05-.59-3.07-.88,1.07-.79,2.14-1.57,3.75-2.75-1.51-.95-2.5-2.1-3.57-2.17-5.97-.4-11.95-.55-18.44-.8-.22,1.18-.44,2.4-.67,3.61-1-.05-2-.09-3-.14-.41-2.72-.83-5.44-1.19-7.82-8.61-3.49-10.39-4.14-16.15-1.66-4.12,1.77-8.02,1.47-12.24,1.54-1.59-1.71-3.13-3.37-4.89-5.26-2.04,1.57-3.94,3.04-5.18,4-8.6-1.06-12.17-8.14-18.19-12.99-.08-.28-.37-1.36-.7-2.56h-4.13c-3.54-1.58-6.16-2.75-8.58-3.82-.89-1.95-1.66-3.63-2.58-5.65-1.41,1.89-2.33,3.13-3.29,4.41-1.48-1.2-2.63-2.14-3.03-2.47-6.14-.95-11.36-1.75-17.01-2.63.54,2.59.9,4.33,1.32,6.33-1.13.95-2.19,1.84-3.93,3.3-.67-3.14-1.17-5.5-1.68-7.92-1.27-2.06-2.62-4.24-4.17-6.76,1.89-.91,3.16-1.53,4.44-2.15,1.51,1.2,2.78,2.21,4.01,3.19,2.71-.85,5.21-1.63,7.96-2.49-.24,1.1-.43,2.01-.67,3.12.73.5,1.51,1.03,2.59,1.77,3.33-2.2,6.58-4.34,9.76-6.44,3.83,1.47,4.89,4.88,6.31,8.38,1.69-.84,3.11-1.54,4.52-2.24-.01.21-.03.42-.04.62,4.88.35,9.76.71,15.66,1.14-.06-.04.79.83,1.81,1.11,7.06,1.96,14.18.26,21.54.26,2.29,1.48,5.08,2.77,6.26,5.98,1.83-.54,3.38-1,4.41-1.31,1.54-1.88,2.74-3.34,4.06-4.95-.34-1.31-.7-2.71-1.09-4.23,1.03-.97,1.98-1.86,2.46-2.32,2.9-.46,5.16-.81,8.01-1.26,1.48.99,3.38,2.27,4.93,3.32,1.85.08,3.41.25,4.96.19,2.59-.1,5.17-.3,7.75-.54,3.27-.31,6.55-1.1,9.79-.97,5.28.2,10.54.97,15.84,1.5.12-.64.22-1.12.31-1.6.67,0,1.33,0,2,0,.56.66,1.05,1.8,1.7,1.91,12.27,2.02,24.65,3.06,37.07,3.04,8.27-.01,16.54-.61,24.81-.94,3.03-.12,6.18.27,9.07-.43,5.34-1.31,10,.12,14.66,2.36,5.43-1.13,10.88-2.27,16.61-3.47,1.46-1.36,3.15-2.95,5.39-5.03,2.5,1.35,5.03,2.71,8.3,4.47,1.2.22,3.29.6,5.33.98,1.16-.93,2.31-1.84,3.45-2.75,3.37.41,6.56-.09,9.75-.08,6.38.02,12.45-.73,17.64-4.92.73-.59,1.82-1.06,2.74-1.05,5.21.09,10.4-2.03,15.64-.1,1.52.56,3.15.8,4.6,1.16,2.16-1.43,4.09-2.71,6-3.97,1.63-.15,3.24-.29,4.82-.43.34-1.72.62-3.13.93-4.72,1.34.14,2.44.26,2.43.26,3.2,3.15,5.66,5.57,8.27,8.13,1.89-1.3,3.46-2.37,5.19-3.55,1.26,1.44,2.33,2.67,3.62,4.14,2.76-1.18,6.43,2.84,9.22-1.63-1.05-1.25-2.03-2.42-2.9-3.45,1.62-1.06,3.1-2.02,4.58-2.99-.09-.17-.18-.34-.28-.51,4.07-1.22,8.13-2.44,11.24-3.37,2.76,1.65,4.56,3.44,6.6,3.78,4.29.7,8.53-.42,12.42-2.36,2.8-1.39,5.44-3.1,8.19-4.7,3.75,1.27,7.29,2.47,10.23,3.47,1.06,2.24,1.82,3.85,2.34,4.94,2.87,1.12,5.1,1.99,7.62,2.97.33-.93.49-1.71.88-2.36.4-.66,1.02-1.19,1.81-2.08,1.49,1.41,2.78,2.63,3.26,3.08.76,9.84,2.33,18.73.05,27.08,1.08,1.55,1.91,2.73,2.9,4.16-1.18,1.7-2.28,3.28-3.46,4.98-.9-.3-1.48-.57-2.08-.68-.77-.14-1.56-.14-2.71-.24-2.23,6.1-.86,11.47,2.04,15.85-.83,4.86-1.51,8.89-2.2,12.95-1.62-.41-2.72-.69-4.16-1.05-1,1.21-1.98,2.41-3.12,3.8,4.52,4.53,5.95,9.84,6.25,15.39-1.16,2.25-2.4,4.49-2.65,6.84-.65,6.09-1.23,6.82-7.59,7.18-.47.03-.94.27-2.17.65-.37,1.86-1.19,4.04-1.16,6.21.06,4.94.61,9.88.76,14.82.03,1.09-.81,2.2-1.45,3.83-1.6-1.53-2.6-2.49-3.71-3.55-1.32.85-2.54,1.64-3.88,2.5.42,2.31.8,4.38,1.19,6.48-2.23,3.5-4.41,6.93-7,10.99.29,3.31-1.59,6.72-3.62,10.18-1.13,1.92-1.85,4.15-2.39,6.33-.55,2.21-.64,4.54-.97,7.08,1.58,4.26,1.33,8.43-2.17,12.14-.37.39.03,1.51.08,2.29,0,.67,0,1.33,0,2-.74.51-1.79.86-2.18,1.56-1.23,2.26-1.72,5.14-3.42,6.89-2.28,2.34-2.55,4.79-2.33,7.63,0,0,.02,0,.02,0-1.34.45-3,.55-3.96,1.42-2.64,2.41-4.99,5.15-7.45,7.76-1.39,2.57-2.86,5.14-4.81,7.26-3.68,3.99-7.64,7.72-11.47,11.57-2.78,2.79-5.3,5.89-8.38,8.3-2.3,1.79-4.56,3.53-6.65,5.59-1.66,1.64-3.88,2.71-5.85,4.03-2.51,3.22-5.78,5.39-9.66,7.22-3.91,1.84-7.37,4.64-11.02,7.02.11.2.22.39.34.59-1.63.13-3.27.26-4.9.39-3.35,3.19-6.98,5.84-10.67,8.41-.49.34-1.29.18-1.92.37-2.4.72-4.79,1.48-7.19,2.22.06.28.13.56.19.84h-6.09c-.88.98-1.74,1.94-2.31,2.59-3.47.58-6.54,1.09-9.74,1.62-.39,1.21-.78,2.41-1.13,3.47-3.67.61-7.06,1.17-10.37,1.71-.37.54-.8.92-.89,1.36-.16.81-.11,1.65-.14,2.48ZM161.67,232.29c3.83-.8,7.73-1.62,11.89-2.49.41-.87.88-1.87,1.53-3.25-1.69-.95-3.21-1.8-4.52-2.54-2.46.62-4.5,1.14-6.54,1.66-1.65,1.73-4.16,3.05-2.36,6.62ZM418.36,206.22v5.08c3.81-.59,7.17-.96,9.64-4.1-2.96-4.18-6.07-.09-9.64-.98ZM274.04,230.33q-4.03-2.69-5.89.41c1.92,2.05,3.75,2.11,5.89-.41ZM329.93,463.83c-1.16-.52-2.25-1.02-3.5-1.59.09,3.46,1.19,5.02,3.21,4.52.08-.84.18-1.78.29-2.94ZM470.39,268.81c1.17-1.29,1.83-2.03,2.78-3.08-2.56-.73-3.42-.24-2.78,3.08ZM320.16,468.73c.3.16.6.31.91.47.61-.72,1.23-1.43,2.36-2.76-1.65.08-2.48.11-3.44.16.07.93.12,1.53.17,2.13ZM277.13,229.13c.24-.33.48-.66.72-.99-.49-.2-.97-.4-1.46-.61l-.37.64c.37.32.74.64,1.11.95ZM262.13,229.13c.24-.33.48-.66.72-.99-.49-.2-.97-.4-1.46-.61-.12.21-.25.43-.37.64.37.32.74.64,1.11.95Z"/>
  <path class="uuid-ba32ac1c-4041-408d-8828-7aba01e41246" d="M505.92,169.26c10.81-3.01,21.55-6.27,32.44-8.97,9.34-2.32,18.89-3.39,28.56-3.15,5.85.15,11.52.97,17.04,2.94,8.34,2.97,14.38,8.45,16.75,16.99,1.67,6,2.87,12.31,3.05,18.52.27,9.44.11,18.99-1.04,28.35-1.49,12.15-4.81,24.01-9.52,35.35-3.88,9.33-8.12,18.54-12.63,27.59-7.27,14.61-16.41,28-27.07,40.39-10.36,12.04-21.89,22.65-35.22,31.36-11.82,7.72-24.54,13.21-38.47,15.28-6.6.98-13.43.47-20.68.65-.2-5.89,3.28-9.58,5.06-13.82,1.78-4.24,3.9-8.34,5.78-12.31,3.62,1.44,6.81,2.68,9.98,3.97,3.1,1.26,6.08.79,9.22-.1,8.87-2.51,16.18-7.59,22.79-13.73,13.4-12.44,23.65-27.27,32.55-43.16,5.12-9.15,9.72-18.53,12.9-28.48,2.36-7.36,4.01-15,5.36-22.62.96-5.43-.1-10.96-2-16.14-1.55-4.22-4.67-7.19-8.89-8.91-5.6-2.28-11.27-2.05-17-.58-1.27.33-2.61.38-3.92.56-.85-.35-1.79-1.14-2.52-.97-3.33.74-6.66,1.58-9.88,2.69-3.66,1.26-7.13,3.56-11.61,1.04.15-1.91.13-3.86.49-5.74,1.05-5.46,1.22-11.03-1.19-15.97-3.38-6.92-3.17-13.95-3.01-21.1-.44-2.71-.88-5.42-1.33-8.13.64-.31,1.28-.61,1.91-.92.7-.3,1.4-.59,2.1-.89Z"/>
  <path class="uuid-d433857e-eb6f-4400-896f-3e4b7e5725a5" d="M290.94,172.91c13.88-.93,27.78-1.56,41.62-2.89,11.99-1.15,23.88-3.26,35.85-4.64,14.8-1.71,29.4-4.51,43.75-8.3,13.59-3.59,27.06-7.84,39.07-15.56,2.58-1.66,5.18-3.28,7.58-4.81,5.1,2.85,5.84,6.95,5.57,11.39-.41,6.7-4.47,11.18-9.46,15.08-5.99,4.68-13.07,7.16-20,9.86-14.23,5.55-29.06,8.83-44.11,11.2-10.11,1.59-20.19,3.44-30.34,4.74-8.53,1.1-17.15,1.55-25.72,2.34-9.72.9-19.41,2.24-29.14,2.71-14.94.73-29.91.95-44.87,1.25-17.96.36-35.92.75-53.88.78-11.13.02-22.28-.28-33.38-1.06-12.86-.9-25.68-2.46-38.51-3.8-9.37-.98-18.79-1.71-28.09-3.21-11.23-1.81-22.34-4.39-33.52-6.52-13.26-2.53-25.75-7.2-37.86-13.05-5.21-2.52-9.48-6.14-13.19-10.44-4.4-5.07-4.75-15.26-.72-20.61.64.23,1.5.32,2.09.77,11.31,8.58,24.58,12.84,37.83,17.13,11.82,3.83,24,6.06,36.24,7.95,5.71.88,11.47,1.46,17.21,2.17.53,0,1.06,0,1.59,0,.57.3,1.12.79,1.72.86,9.85,1.14,19.71,2.24,29.56,3.34,3.02.52,6.02,1.27,9.06,1.51,7.33.58,14.67.93,22.01,1.37.11.78.22,1.57.38,2.71,2.09,0,4.05.16,5.96-.09.63-.08,1.13-1.21,1.69-1.86,1.33.02,2.66.03,3.99.05.49.63.99,1.26,1.48,1.89.51-.61,1.02-1.22,1.54-1.84.99.03,1.98.05,2.97.08.05,3.14,2.94,3.19,4.68,3.45,3.72.55,7.56.33,11.35.34,17.95.02,35.91.03,53.86-.02,2.54,0,5.08-.33,8.29-.55.43-.73,1.14-1.96,1.86-3.18,4.66-.18,9.33-.35,13.99-.53Z"/>
  <path class="uuid-ba32ac1c-4041-408d-8828-7aba01e41246" d="M142.89,48.2c-.36,4.08-.91,8.15-1.04,12.24-.31,9.43,3.62,17.15,10.03,23.79,1.66,1.69,3.33,3.38,4.99,5.07,1.23,1.08,2.35,2.31,3.7,3.2,15.32,10.21,32.11,16.93,50.05,20.83,9.01,1.96,18,4.06,27.08,5.59,6.99,1.18,14.13,1.38,21.16,2.34,19.28,2.63,38.69,1.64,58.04,2.28.82.55,1.58,1.44,2.46,1.57,2.33.36,4.71.4,7.32.59.08-.74.17-1.52.25-2.29.65,0,1.3-.02,1.96-.03,1.36,1.7,2.71,3.39,4.07,5.08h9.74c.08,1.47.15,2.6.22,3.74-9.52,3.9-19.48,5.85-29.65,7.07-9.31,1.12-18.58,2.53-27.87,3.78-1.15.15-2.32.14-3.47.2-3.68.27-7.37.53-11.05.8-4.99.04-9.97.07-14.96.11-2.67-.21-5.34-.42-8.01-.62-7.67-.48-15.33-.95-23-1.43-1.33-.27-2.67-.54-4-.81-2.62-.17-5.24-.35-7.85-.52-2.72-.5-5.43-1-8.15-1.5-19.79-3.18-38.91-8.76-57.48-16.21-10.97-4.4-21.14-10.31-30.03-18.16-5.16-4.56-9.06-10.21-11.29-16.73-3.32-9.71.57-17.81,6.62-25.14,1.32-1.6,3.23-2.73,4.87-4.07,4.71-.25,11.58-5.38,13.25-9.89h0c2.62-.44,5.25-.9,7.87-1.35-.01-.22-.03-.45-.04-.67,1.4.37,2.8.73,4.2,1.1Z"/>
  <path class="uuid-ba32ac1c-4041-408d-8828-7aba01e41246" d="M195.93,217.2c-.09.48-.18.96-.31,1.6-5.3-.53-10.56-1.3-15.84-1.5-3.25-.12-6.52.67-9.79.97-2.58.24-5.16.44-7.75.54-1.55.06-3.12-.11-4.96-.19-1.56-1.05-3.46-2.33-4.93-3.32-2.85.45-5.11.8-8.01,1.26-.49.46-1.44,1.35-2.46,2.32.39,1.52.75,2.92,1.09,4.23-1.32,1.61-2.52,3.07-4.06,4.95-1.03.3-2.58.76-4.41,1.31-1.18-3.21-3.97-4.49-6.26-5.98-7.35,0-14.47,1.7-21.54-.26-1.02-.28-1.87-1.15-1.81-1.11-5.9-.43-10.78-.78-15.66-1.14.01-.21.03-.42.04-.62-1.42.7-2.83,1.41-4.52,2.24-1.42-3.5-2.48-6.91-6.31-8.38-3.18,2.1-6.43,4.24-9.76,6.44-1.08-.74-1.86-1.27-2.59-1.77.24-1.11.44-2.02.67-3.12-2.75.86-5.25,1.65-7.96,2.49-1.23-.98-2.5-1.99-4.01-3.19-1.28.62-2.55,1.24-4.44,2.15,1.55,2.51,2.9,4.7,4.17,6.76.52,2.42,1.02,4.78,1.68,7.92,1.74-1.46,2.8-2.35,3.93-3.3-.42-2.01-.78-3.74-1.32-6.33,5.65.87,10.87,1.68,17.01,2.63.4.33,1.55,1.26,3.03,2.47.95-1.28,1.88-2.52,3.29-4.41.92,2.02,1.69,3.7,2.58,5.65,2.41,1.08,5.04,2.25,8.58,3.82h4.13c.33,1.2.62,2.28.7,2.56,6.02,4.85,9.59,11.93,18.19,12.99,1.24-.95,3.14-2.42,5.18-4,1.75,1.89,3.3,3.55,4.89,5.26,4.22-.06,8.12.23,12.24-1.54,5.76-2.48,7.54-1.83,16.15,1.66.36,2.38.78,5.1,1.19,7.82-7.7-.97-15.41-1.79-23.08-2.94-7.66-1.15-15.3-2.51-22.9-4-12.95-2.54-25.85-5.32-38.79-7.89-15.44-3.07-30.4-7.77-45.09-13.29-6.32-2.38-12.26-5.8-18.29-8.9-4.19-2.15-5.32-6.33-5.66-10.48-.9-11.06-1.46-22.14-2.11-33.22-.06-.95.19-1.93.37-3.54,1.82.58,3.4.89,4.8,1.57,19.9,9.59,40.7,16.66,62.09,21.95,13.28,3.28,26.66,6.27,40.12,8.63,11.37,2,22.92,3.03,34.41,4.26,11.67,1.25,23.38,2.21,35.07,3.3.83.88,1.53,2.3,2.51,2.54,2.69.64,5.5.79,8.26,1.13,2.76.34,5.52.67,8.28,1ZM48.73,213.95q-3.27,2.7-1.66,6.08c2.61-1.25,1.75-3.37,1.66-6.08Z"/>
  <path class="uuid-ba32ac1c-4041-408d-8828-7aba01e41246" d="M437.93,383.2c-.04-.78-.45-1.9-.08-2.29,3.5-3.71,3.75-7.88,2.17-12.14.33-2.54.42-4.87.97-7.08.54-2.18,1.26-4.41,2.39-6.33,2.03-3.45,3.91-6.87,3.62-10.18,2.59-4.06,4.77-7.49,7-10.99-.39-2.1-.76-4.17-1.19-6.48,1.35-.87,2.56-1.65,3.88-2.5,1.1,1.06,2.11,2.02,3.71,3.55.65-1.63,1.49-2.74,1.45-3.83-.14-4.94-.7-9.88-.76-14.82-.02-2.17.79-4.35,1.16-6.21,1.23-.38,1.69-.62,2.17-.65,6.35-.36,6.94-1.09,7.59-7.18.25-2.35,1.49-4.59,2.65-6.84-.3-5.55-1.73-10.85-6.25-15.39,1.14-1.39,2.13-2.59,3.12-3.8,1.44.36,2.53.64,4.16,1.05.69-4.06,1.38-8.09,2.2-12.95-2.9-4.38-4.27-9.75-2.04-15.85,1.16.09,1.95.1,2.71.24.61.11,1.18.38,2.08.68,1.18-1.7,2.28-3.28,3.46-4.98-1-1.43-1.82-2.61-2.9-4.16,2.28-8.36.71-17.25-.05-27.08-.48-.46-1.77-1.67-3.26-3.08-.79.89-1.41,1.42-1.81,2.08-.39.65-.55,1.43-.88,2.36-2.52-.98-4.75-1.85-7.62-2.97-.51-1.09-1.28-2.7-2.34-4.94-2.94-1-6.49-2.2-10.23-3.47-2.75,1.59-5.39,3.3-8.19,4.7-3.89,1.94-8.13,3.07-12.42,2.36-2.04-.33-3.83-2.13-6.6-3.78-3.11.93-7.17,2.15-11.24,3.37.09.17.18.34.28.51-1.48.96-2.95,1.93-4.58,2.99.86,1.03,1.85,2.2,2.9,3.45-2.79,4.47-6.46.45-9.22,1.63-1.28-1.47-2.36-2.7-3.62-4.14-1.73,1.19-3.3,2.26-5.19,3.55-2.61-2.57-5.07-4.99-8.27-8.13,0,0-1.1-.12-2.43-.26-.31,1.59-.59,3-.93,4.72-1.58.14-3.19.29-4.82.43-1.91,1.26-3.83,2.54-6,3.97-1.45-.36-3.08-.6-4.6-1.16-5.24-1.94-10.43.18-15.64.1-.92-.02-2.01.46-2.74,1.05-5.19,4.19-11.26,4.94-17.64,4.92-3.19,0-6.38.49-9.75.08-1.14.91-2.28,1.82-3.45,2.75-2.05-.38-4.13-.76-5.33-.98-3.27-1.76-5.8-3.13-8.3-4.47-2.24,2.09-3.93,3.67-5.39,5.03-5.74,1.2-11.18,2.33-16.61,3.47-4.66-2.24-9.32-3.66-14.66-2.36-2.88.71-6.04.31-9.07.43-8.27.33-16.54.92-24.81.94-12.43.02-24.8-1.01-37.07-3.04-.65-.11-1.14-1.25-1.7-1.91,7.33,0,14.66.07,21.99-.02,7.38-.08,14.73.6,22.14.11,6.7-.44,13.45-.09,20.17-.09,2.17,0,4.33-.02,6.5,0,2,.01,3.14-.87,3.22-2.94,11.54-.98,23.07-2,34.61-2.91,6.44-.51,12.9-.83,19.35-1.24.19.25.38.49.58.74.13-.29.25-.58.38-.87,5.33-.91,10.64-1.91,15.99-2.7,8.17-1.2,16.43-1.88,24.52-3.44,13.76-2.65,27.52-5.41,41.09-8.86,11.83-3.01,23.47-6.82,35.06-10.67,12.9-4.29,25.23-9.95,37-16.81,2.26-1.32,4.71-2.33,7.45-3.66.38,1.04.63,1.72.87,2.4-1.3,2.37-1.89,4.71.32,6.91.23.42.66.85.66,1.27-.04,8.61-.13,17.21-.21,25.82-.92.63-1.85,1.26-3.15,2.15v29.52c.57.11,1.05.21,1.54.3-.71,6-1.42,12-2.12,18-.22.15-.43.3-.65.45.19.17.39.34.58.51-2.68,17.88-5.77,35.67-10.97,53.02-2.83-.13-4.57,1.08-4.91,4,0,.33,0,.67,0,1-.58.12-1.17.24-2.23.46.58.72.9,1.13,1.23,1.54,0,1.67,0,3.33,0,5-.33,1-.67,2-1,3-1.53,2.82-3.28,5.57-3,9-.33,1-.67,2-1,3-3.11,3.61-6.21,7.17-6.07,12.44.04,1.39-.54,2.96-1.3,4.16-1.93,3.07-4.12,5.97-6.48,9.33-.45,2.24-.99,4.97-1.31,6.58-1.64,3.1-2.77,5.23-3.85,7.29.85.94,1.49,1.65,2.13,2.36-.32.64-.63,1.28-.95,1.93-.88-.34-1.75-.68-2.97-1.16-.75,1.8-1.28,3.48-2.14,4.97-.84,1.47-2.03,2.73-3.06,4.09ZM318.46,211.52l-.16.23.25.04-.09-.26Z"/>
  <path class="uuid-96927bdc-e0f7-4bcb-b5e8-a60d2d245328" d="M300.92,91.87c-8,1.11-15.99,2.22-23.99,3.32-.96-1.12-1.92-2.25-2.12-2.48h-10.86q-4,.59-7.35-.69c1.49-2.19,2.93-4.29,4.57-6.7,2.04-.2,4.22-.41,6.59-.64.06-.81.12-1.61.18-2.42,2.33-.35,4.66-.7,6.99-1.04,0,2.32,1.86,2.38,3.11,1.88,4.36-1.72,9.25-1.07,13.51-3.54,2.68-1.55,6-2,9.19-3,.06-.73.13-1.53.19-2.33,4.36-2.35,8.97-4.34,13.01-7.14,6.04-4.18,9.98-9.99,8.85-17.7-.48-3.3-2.37-6.42-3.77-9.55-.44-.99-1.35-1.77-2.75-3.54,2.07.32,3.1.36,4.06.66,9.3,2.89,17.71,7.39,24.88,14.05.37.34.73.68,1.05,1.06,6.52,7.85,6.1,12.92-.29,20.22-2.87,3.28-6.78,5.85-10.63,8.01-8.85,4.97-18.47,7.96-28.43,9.86-.4-.71-.8-1.42-1.41-2.5-1.78,1.62-3.19,2.91-4.6,4.2Z"/>
  <path class="uuid-ac93ade2-8d52-42f0-8a3c-70d7cdb783dc" d="M227.91,42.05c-.52-.04-1.05-.08-1.57-.12-6.54-1.6-13.13-3-19.6-4.84-9.31-2.65-18.34-5.94-24.49-14.44-1.39-5.01.32-8.91,4.95-11.55,1.84-1.05,3.77-1.97,5.66-2.95,1.1.4,2.21.79,3.69,1.32.17-1.42.28-2.32.39-3.21,1-.34,2-.68,3-1.02,1.83,1.78,3.86.87,5.89.53,1.58-.26,3.21-.27,4.81-.39.27.52.53,1.04.8,1.56-1.58,1.05-3.16,2.09-5.07,3.36.73,1.22,1.25,2.08,1.76,2.95-1.17,5.99,2.65,9.2,6.93,11.9,2.76,1.74,5.88,2.88,8.84,4.29.06,1.58,1,1.89,2.34,1.6,1.89.42,3.78.85,5.67,1.27.72.95,1.26,2.42,2.2,2.76,5.09,1.84,10.29,3.4,16.27,5.33.07.36.3,1.57.53,2.77-3.67.01-7.33.03-11,.04-4-.39-8.01-.77-12.01-1.16Z"/>
  <path class="uuid-ba32ac1c-4041-408d-8828-7aba01e41246" d="M40.93,251.2c-.95-.24-1.9-.47-3.51-.87-2.2,1.56-4.83,3.43-8.02,5.68,5.87,3.99,12.93,2.2,18.63,5.45-1.94,4.47-2.91,9.06-7.55,12.07-2.72-1.64-5.5-3.32-8.92-5.38-1.43.23-3.51.56-5.76.92-2.43-.72-3.31-4.75-7.33-3.57-2.73,3.83-1.83,8.16-.47,12.43.76,2.4,1.39,2.64,5,3.18,1.36-1.67,2.76-3.4,4.79-5.9,2.36,5.05,4.39,9.37,6.34,13.54-1.86,3.63-5.09,3.29-7.64,4.23-1.52,1.07-3.04,2.14-4.56,3.22.23-1.45.47-2.89.66-4.09-.79-2.32-1.53-4.48-2.27-6.64-1.87-1.64-3.87-3.55-4.25-5.73-1.14-6.6-1.65-13.3-2.44-20.23,2.87-2.1,5.46-4.01,8.26-6.06-.51-2.36-1.32-5.01,2.09-7.36,1.75.52,4.03,1.2,6.43,1.91,1.05-.84,2.21-1.73,3.32-2.69.19-.17.14-.63.19-.95,1,.3,1.99.59,2.99.89.67.99,1.35,1.97,2.02,2.96.67.99,1.32,1.99,1.98,2.99Z"/>
  <path class="uuid-27e33b6b-3519-47d7-a546-98faf133fbcd" d="M33.93,244.36c-.06.33,0,.79-.19.95-1.11.96-2.27,1.85-3.32,2.69-2.41-.72-4.68-1.39-6.43-1.91-3.41,2.35-2.6,5.01-2.09,7.36-2.8,2.06-5.4,3.96-8.26,6.06.79,6.92,1.3,13.63,2.44,20.23.38,2.18,2.38,4.09,4.25,5.73.74,2.16,1.48,4.32,2.27,6.64-.19,1.2-.43,2.65-.66,4.09-.63.96-1.27,1.91-2.02,3.04,1.1,2.52,2.18,5.1,3.35,7.64.57,1.25,1.31,2.44-.43,3.36-1.87-4.9-4.12-9.69-5.53-14.72-3.47-12.37-6.66-24.82-9.74-37.29-1.42-5.74-2.39-11.6-3.44-17.43-.25-1.4-.04-2.89-.04-5.2,10.36,3.04,20.11,5.89,29.86,8.75Z"/>
  <path class="uuid-ba32ac1c-4041-408d-8828-7aba01e41246" d="M305.95,487.51c.04-.83-.01-1.68.14-2.48.09-.44.52-.82.89-1.36,3.31-.55,6.7-1.11,10.37-1.71.34-1.06.73-2.26,1.13-3.47,3.2-.53,6.27-1.05,9.74-1.62.58-.65,1.44-1.61,2.31-2.59h6.09c-.06-.28-.13-.56-.19-.84,2.39-.74,4.78-1.51,7.19-2.22.63-.19,1.43-.03,1.92-.37,3.69-2.57,7.32-5.22,10.67-8.41,1.63-.13,3.27-.26,4.9-.39-.11-.2-.22-.39-.34-.59,3.66-2.38,7.11-5.19,11.02-7.02,3.89-1.82,7.15-4,9.66-7.22,1.97-1.32,4.2-2.39,5.85-4.03,2.08-2.07,4.35-3.8,6.65-5.59,3.07-2.4,5.6-5.51,8.38-8.3,3.83-3.85,7.8-7.58,11.47-11.57,1.96-2.12,3.43-4.69,4.81-7.26,2.46-2.61,4.81-5.35,7.45-7.76.96-.87,2.62-.97,3.96-1.42-3.31,4.71-6.27,9.72-10.01,14.06-5.74,6.67-11.72,13.2-18.12,19.23-16.73,15.78-34.98,29.41-56.11,39-11.92,5.41-23.83,10.68-36.54,13.93-1.03.26-2.19,0-3.29-.01Z"/>
  <path class="uuid-0cd16c92-a929-432f-94dd-4dfedae59236" d="M267.93,82.27c-.06.8-.12,1.61-.18,2.42-2.36.23-4.54.44-6.59.64-1.64,2.41-3.08,4.51-4.57,6.7q3.35,1.27,7.35.69h10.86c.2.23,1.16,1.36,2.12,2.48-1.55.32-3.09.91-4.64.91-13.11.05-26.22,0-39.33-.03-.9-.28-1.78-.7-2.71-.82-3.43-.45-6.87-.8-10.31-1.19.17-2.93-1.71-5.86,0-8.8,4.01-.3,8.02-.59,12.04-.89,12.03-.02,24.04-.24,35.96-2.11Z"/>
  <path class="uuid-ba32ac1c-4041-408d-8828-7aba01e41246" d="M180.94,262.24c-.5,2.89-2.79,2.89-4.93,2.94-3.49.09-6.98-.1-10.46.06-4.1.19-8.19.94-12.28.85-4.74-.1-9.48-.76-14.19-1.34-3.86-.48-7.7-1.2-11.59-1.82-.95,1.65-1.65,2.86-2.49,4.31-4.77-4.32-10.37-2.11-15.52-1.78-3.44.22-6.71,1-10.15-.16-1.19-.4-2.63-.06-4.27-.06-3.16-1.97-6.69-2.85-10.57-1.14-.8.35-2.18.3-2.88-.18-2.99-2.03-6.45-2.1-9.75-2.94-2.43-.62-4.6-2.36-6.79-3.75-2.19-1.38-4.16-3.24-7.11-2.14-.2.08-.68-.58-1.03-.89,1.99-.47,3.97-.94,5.45-1.29,7.72,4.82,5.55,4.75,15.2,5.33,1.11.07,2.18.66,3.29.93,1.58.38,3.19,1.03,4.77.98,7.33-.25,14.56-.05,19.71,2.6,6.88-.33,12.1-.58,17.37-.83.08-1.18.14-2.01.19-2.83,16.88.74,33.77,1.46,50.65,2.26,2.47.12,4.92.58,7.37.89Z"/>
  <path class="uuid-7d3f9b86-4375-48fc-b338-3fcce5fd54a1" d="M501.9,171.07c.44,2.71.88,5.42,1.33,8.13-.16,7.15-.36,14.18,3.01,21.1,2.41,4.94,2.24,10.52,1.19,15.97-.36,1.88-.34,3.83-.49,5.74,4.48,2.52,7.95.23,11.61-1.04,3.22-1.11,6.55-1.96,9.88-2.69.73-.16,1.67.62,2.52.97-10.54,4.51-21.08,9.02-31.52,13.49v-61.13c.63-.14,1.55-.34,2.47-.54Z"/>
  <path class="uuid-27e33b6b-3519-47d7-a546-98faf133fbcd" d="M122.92,259.09c-.06.82-.11,1.64-.19,2.83-5.28.25-10.49.5-17.37.83-5.16-2.66-12.39-2.86-19.71-2.6-1.58.05-3.19-.59-4.77-.98-1.11-.27-2.18-.86-3.29-.93-9.65-.57-7.48-.51-15.2-5.33-1.48.35-3.46.82-5.45,1.29h-3c-4.33-1-8.67-2-13-3h0c-.66-1-1.31-2-1.98-2.99-.67-.99-1.35-1.98-2.02-2.96,9.02,1.72,18.03,3.52,27.07,5.13,7.75,1.38,15.54,2.56,23.31,3.8,4.54.72,9.09,1.39,13.63,2.08.15.21.31.43.46.64.17-.2.33-.4.5-.6l21.02,2.79Z"/>
  <path class="uuid-52035769-768c-4d6b-9bb6-133458dd9083" d="M271.94,214.26c-.07,2.07-1.22,2.96-3.22,2.94-2.17-.02-4.33,0-6.5,0-6.73,0-13.48-.35-20.17.09-7.4.49-14.76-.2-22.14-.11-7.33.08-14.66.02-21.99.02-.67,0-1.33,0-2,0-2.76-.33-5.52-.66-8.28-1-2.76-.34-5.57-.49-8.26-1.13-.98-.24-1.68-1.66-2.51-2.54,5.77.32,11.54.6,17.3.96,1.97.12,3.92.64,5.89.64,23.96.08,47.91.09,71.87.12Z"/>
  <path class="uuid-1f93e8fa-93ff-4d21-80ca-f89a8a7a173b" d="M342.93,132.23c-.07-1.14-.13-2.27-.22-3.74h-9.74c-1.35-1.69-2.71-3.39-4.07-5.08,10.23-.74,20.47-1.39,30.69-2.26,4.1-.35,8.14-1.28,12.23-1.78,1.79-.22,3.63-.04,5.68.64-1.24.58-2.44,1.24-3.72,1.72-8.51,3.18-17.01,6.36-25.56,9.43-1.68.6-3.53.73-5.31,1.07Z"/>
  <path class="uuid-5ea5f26d-1d88-4feb-b9c7-57e63722081a" d="M447.04,373.38c-.64-.71-1.28-1.42-2.13-2.36,1.09-2.06,2.22-4.2,3.85-7.29.32-1.62.87-4.35,1.31-6.58,2.36-3.36,4.55-6.27,6.48-9.33.76-1.2,1.33-2.78,1.3-4.16-.13-5.27,2.96-8.83,6.07-12.44.37.76.74,1.52,1.1,2.28.05.25.02.49-.08.72-.24.14-.47.27-.76.44.2.18.4.36.59.53-5.15,11.69-10.29,23.4-15.49,35.07-.51,1.15-1.49,2.1-2.25,3.14Z"/>
  <path class="uuid-0b68b360-b7d4-49d4-adc6-38e65f80b054" d="M208.14,13.25c-.52-.86-1.04-1.73-1.76-2.95,1.91-1.27,3.49-2.31,5.07-3.36-.27-.52-.53-1.04-.8-1.56-1.61.12-3.23.13-4.81.39-2.03.34-4.07,1.25-5.89-.53,5.15-1.34,10.27-2.82,15.46-3.96,3.16-.7,6.44-.88,9.66-1.29.16.35.32.69.48,1.04-1.4.78-2.81,1.54-4.2,2.34-3.39,1.93-7.36,3.03-9.51,6.72l.03.04c-1.24,1.04-2.48,2.08-3.72,3.11Z"/>
  <path class="uuid-ba32ac1c-4041-408d-8828-7aba01e41246" d="M158.93,257.22c.22-1.21.45-2.42.67-3.61,6.48.25,12.47.4,18.44.8,1.07.07,2.06,1.22,3.57,2.17-1.61,1.18-2.68,1.97-3.75,2.75-6.31-.7-12.62-1.41-18.93-2.11Z"/>
  <path class="uuid-edc13201-e8c6-494c-8be4-306345cfc21a" d="M488,232.21c-.48-.09-.97-.19-1.54-.3v-29.52c1.3-.89,2.22-1.52,3.15-2.15-.22,5.61-.48,11.21-.64,16.82-.11,3.99-.01,7.98-.13,11.97-.03,1.07-.55,2.12-.84,3.18Z"/>
  <path class="uuid-0cd16c92-a929-432f-94dd-4dfedae59236" d="M300.93,74.24c-.07.8-.13,1.61-.19,2.33-3.19,1-6.51,1.45-9.19,3-4.26,2.47-9.15,1.82-13.51,3.54-1.25.49-3.11.44-3.11-1.88,4.66-1.07,9.31-2.15,13.97-3.22.37-.25.73-.51,1.1-.76,3.65-1,7.29-2,10.94-3Z"/>
  <path class="uuid-ba32ac1c-4041-408d-8828-7aba01e41246" d="M430,401.29c-.23-2.84.05-5.29,2.33-7.63,1.7-1.75,2.19-4.63,3.42-6.89.38-.71,1.43-1.05,2.18-1.56.37.72.73,1.44,1.1,2.16-3.01,4.64-6.01,9.28-9.02,13.92Z"/>
  <path class="uuid-46e4c766-e7b4-4d88-83ee-88dba3a322ca" d="M142.89,48.2c-1.4-.37-2.8-.73-4.2-1.1.01.22.03.45.04.67-2.62.46-5.25.91-7.87,1.37,3.75-3.64,8.66-4.94,13.12-7.13.34.25.67.5,1.01.75-.7,1.82-1.4,3.63-2.09,5.45Z"/>
  <path class="uuid-5ea5f26d-1d88-4feb-b9c7-57e63722081a" d="M439.02,387.36c-.37-.72-.73-1.44-1.1-2.16,0-.67,0-1.33,0-2,1.03-1.36,2.22-2.62,3.06-4.09.86-1.49,1.38-3.18,2.14-4.97,1.22.48,2.1.82,2.97,1.16-2.36,4.02-4.72,8.04-7.08,12.06Z"/>
  <path class="uuid-46e4c766-e7b4-4d88-83ee-88dba3a322ca" d="M130.86,49.12c-1.68,4.51-8.55,9.64-13.25,9.89.28-.58.4-1.39.86-1.7,4.1-2.78,8.25-5.47,12.39-8.19Z"/>
  <path class="uuid-7ee38d60-94c0-46b3-b316-7c10fca6d0b1" d="M469.93,309.2c0-.33,0-.67,0-1,1.29,0,2.59,0,3.88-.01-.94,2.68-1.88,5.36-2.82,8.03-.69,0-1.38-.01-2.07-.02,0-1.67,0-3.33,0-5,.33-.67.67-1.33,1-2Z"/>
  <path class="uuid-5ea5f26d-1d88-4feb-b9c7-57e63722081a" d="M464.93,328.2c-.28-3.43,1.47-6.18,3-9,.73.02,1.45.04,2.18.06-.96,2.67-1.92,5.35-2.89,8.02-.76.31-1.53.61-2.29.92Z"/>
  <path class="uuid-297ea156-125c-4a1e-a39c-e011bff6597d" d="M180.92,260.21c3.68-.06,7.4-.33,11.31,1.96-4.25,2.13-7.81-.11-11.39-.12.03-.62.05-1.23.08-1.85Z"/>
  <path class="uuid-1f93e8fa-93ff-4d21-80ca-f89a8a7a173b" d="M326.95,123.43c-.09.77-.17,1.55-.25,2.29-2.61-.19-4.99-.23-7.32-.59-.88-.14-1.65-1.03-2.46-1.57,3.35-.04,6.7-.08,10.04-.13Z"/>
  <path class="uuid-ac93ade2-8d52-42f0-8a3c-70d7cdb783dc" d="M473.81,308.19c-1.29,0-2.59,0-3.88.01.34-2.93,2.08-4.13,4.91-4-.34,1.33-.69,2.66-1.03,3.99Z"/>
  <path class="uuid-0cd16c92-a929-432f-94dd-4dfedae59236" d="M300.92,91.87c1.41-1.29,2.82-2.58,4.6-4.2.61,1.08,1.01,1.79,1.41,2.5-2,.57-4,1.13-6,1.7Z"/>
  <path class="uuid-d433857e-eb6f-4400-896f-3e4b7e5725a5" d="M464.93,328.2c.76-.31,1.53-.61,2.29-.92-.44,2.17.12,4.69-2.19,6.19-.37-.76-.74-1.52-1.1-2.28.33-1,.67-2,1-3Z"/>
  <path class="uuid-9072305c-858c-43f2-b703-c8ba916ee539" d="M283.93,198.2c-1.87,2.81-4.13,2.81-6,0h6Z"/>
  <path class="uuid-ac93ade2-8d52-42f0-8a3c-70d7cdb783dc" d="M470.11,319.26c-.73-.02-1.45-.04-2.18-.06.33-1,.67-2,1-3,.69,0,1.38.01,2.07.02-.3,1.01-.59,2.03-.89,3.04Z"/>
  <path class="uuid-0b68b360-b7d4-49d4-adc6-38e65f80b054" d="M196.94,6.27c-.11.89-.22,1.78-.39,3.21-1.48-.53-2.59-.93-3.69-1.32,1.36-.63,2.72-1.26,4.08-1.89Z"/>
  <path class="uuid-e45146fc-4142-4704-9d2f-1c8d79f6914a" d="M489.16,173.15c-2.21-2.21-1.62-4.54-.32-6.91.11,2.3.21,4.61.32,6.91Z"/>
  <path class="uuid-7d3f9b86-4375-48fc-b338-3fcce5fd54a1" d="M505.92,169.26c-.7.3-1.4.59-2.1.89.7-.3,1.4-.59,2.1-.89Z"/>
  <path class="uuid-e45146fc-4142-4704-9d2f-1c8d79f6914a" d="M485.81,251.18c-.2-.17-.39-.34-.58-.51.22-.15.43-.3.65-.45.07.33.05.65-.06.96Z"/>
  <path class="uuid-e45146fc-4142-4704-9d2f-1c8d79f6914a" d="M101.9,256.3c-.17.2-.33.4-.5.6-.15-.21-.31-.43-.46-.64.32-.07.64-.06.96.04Z"/>
  <path class="uuid-e45146fc-4142-4704-9d2f-1c8d79f6914a" d="M326.86,209.98c-.13.29-.25.58-.38.87-.19-.25-.39-.49-.58-.74.32-.05.63-.1.95-.13Z"/>
  <path class="uuid-5b33409f-4495-45f9-8cc2-09f5d90ea82d" d="M289.99,77.25c-.37.25-.73.51-1.1.76.37-.25.73-.51,1.1-.76Z"/>
  <path class="uuid-d433857e-eb6f-4400-896f-3e4b7e5725a5" d="M464.79,335.17c-.19-.17-.39-.35-.59-.53.28-.17.52-.3.76-.44.03.34-.03.66-.16.97Z"/>
  <path class="uuid-ba32ac1c-4041-408d-8828-7aba01e41246" d="M161.67,232.29c-1.8-3.56.71-4.89,2.36-6.62,2.04-.52,4.08-1.04,6.54-1.66,1.31.74,2.83,1.59,4.52,2.54-.65,1.38-1.13,2.38-1.53,3.25-4.16.87-8.06,1.69-11.89,2.49Z"/>
  <path class="uuid-ba32ac1c-4041-408d-8828-7aba01e41246" d="M418.36,206.22c3.56.89,6.68-3.2,9.64.98-2.46,3.13-5.83,3.5-9.64,4.1v-5.08Z"/>
  <path class="uuid-ba32ac1c-4041-408d-8828-7aba01e41246" d="M40.93,251.2c4.33,1,8.67,2,13,3-3.27.48-6.55.96-10.36,1.51-.96-1.64-1.8-3.08-2.64-4.51Z"/>
  <path class="uuid-ba32ac1c-4041-408d-8828-7aba01e41246" d="M274.04,230.33c-2.14,2.52-3.98,2.46-5.89.41q1.87-3.1,5.89-.41Z"/>
  <path class="uuid-ba32ac1c-4041-408d-8828-7aba01e41246" d="M329.93,463.83c-.11,1.16-.21,2.09-.29,2.94-2.03.49-3.12-1.07-3.21-4.52,1.25.57,2.35,1.06,3.5,1.59Z"/>
  <path class="uuid-ba32ac1c-4041-408d-8828-7aba01e41246" d="M470.39,268.81c-.64-3.32.22-3.81,2.78-3.08-.95,1.06-1.61,1.79-2.78,3.08Z"/>
  <path class="uuid-ba32ac1c-4041-408d-8828-7aba01e41246" d="M320.16,468.73c-.05-.6-.1-1.2-.17-2.13.96-.04,1.79-.08,3.44-.16-1.14,1.32-1.75,2.04-2.36,2.76-.3-.16-.6-.31-.91-.47Z"/>
  <path class="uuid-ba32ac1c-4041-408d-8828-7aba01e41246" d="M277.13,229.13c-.37-.32-.74-.64-1.11-.95l.37-.64c.49.2.97.4,1.46.61-.24.33-.48.66-.72.99Z"/>
  <path class="uuid-ba32ac1c-4041-408d-8828-7aba01e41246" d="M262.13,229.13c-.37-.32-.74-.64-1.11-.95.12-.21.25-.43.37-.64.49.2.97.4,1.46.61-.24.33-.48.66-.72.99Z"/>
  <path class="uuid-7ee38d60-94c0-46b3-b316-7c10fca6d0b1" d="M196.91,173.41c4.78.24,9.56.67,14.34.69,17.79.08,35.58.08,53.37,0,4.11-.02,8.23-.43,12.34-.66-.72,1.23-1.43,2.45-1.86,3.18-3.21.22-5.75.55-8.29.55-17.95.04-35.91.04-53.86.02-3.79,0-7.63.21-11.35-.34-1.74-.26-4.63-.31-4.68-3.45Z"/>
  <path class="uuid-7ee38d60-94c0-46b3-b316-7c10fca6d0b1" d="M178.9,172.47c2.68.25,5.35.51,8.03.76-.56.65-1.05,1.78-1.69,1.86-1.91.25-3.87.09-5.96.09-.16-1.14-.27-1.93-.38-2.71Z"/>
  <path class="uuid-7ee38d60-94c0-46b3-b316-7c10fca6d0b1" d="M190.92,173.27c1.01.02,2.01.03,3.02.05-.51.61-1.02,1.22-1.54,1.84-.49-.63-.99-1.26-1.48-1.89Z"/>
  <path class="uuid-e45146fc-4142-4704-9d2f-1c8d79f6914a" d="M48.73,213.95c.09,2.71.96,4.84-1.66,6.08q-1.61-3.38,1.66-6.08Z"/>
  <path class="uuid-ac93ade2-8d52-42f0-8a3c-70d7cdb783dc" d="M469.93,309.2c-.33.67-.67,1.33-1,2-.33-.41-.65-.82-1.23-1.54,1.06-.22,1.65-.34,2.23-.46Z"/>
  <polygon class="uuid-e45146fc-4142-4704-9d2f-1c8d79f6914a" points="318.46 211.52 318.54 211.79 318.3 211.75 318.46 211.52"/>
  <path class="uuid-e81d828d-d703-4c99-93ad-cfcda8bdd07e" d="M263.9,44.08c-.99,1.38-1.98,2.75-2.97,4.13-2.24.06-4.47.09-6-2,.01-.71.02-1.43.03-2.14,2.98,0,5.96,0,8.94,0Z"/>
  <path class="uuid-76081d2f-a991-4f3c-8db2-20cc21ab5738" d="M263.9,44.08c-2.98,0-5.96,0-8.94,0-1.35-.3-2.69-.6-4.04-.89-.23-1.2-.46-2.41-.53-2.77-5.98-1.92-11.18-3.49-16.27-5.33-.94-.34-1.48-1.81-2.2-2.76,13,2.24,26,4.49,39,6.73,1.67.06,3.34.13,5,.19,1.67.02,3.34.05,5.01.07.66.01,1.32.03,1.98.04,1.68.01,3.36.03,5.04.04.99.31,1.98.62,2.97.92-.01.62-.03,1.23-.04,1.85-3.31.36-6.63.73-9.94,1.09-4.78.01-9.56-.02-14.34.07-.9.02-1.8.49-2.69.76Z"/>
  <path class="uuid-286c2a59-ea17-4d47-9070-516cbaf2f000" d="M219.93,85.27c-1.7,2.93.18,5.87,0,8.8-15.08-2.11-30.13-4.38-44.42-9.82.07-.38.13-.77.2-1.15,3.32.37,6.64.93,9.97,1.07,11.41.45,22.83.75,34.25,1.11Z"/>
  <path class="uuid-e81d828d-d703-4c99-93ad-cfcda8bdd07e" d="M227.91,42.05c4,.39,8.01.77,12.01,1.16-.25.57-.42,1.59-.76,1.65-3.62.7-7.23.61-10.6-1.07-.4-.2-.44-1.15-.65-1.75Z"/>
  <path class="uuid-e81d828d-d703-4c99-93ad-cfcda8bdd07e" d="M280.93,43.24c3.31-.36,6.63-.73,9.94-1.09,1.68.01,3.37.03,5.05.04.21,2.29-1.83,2.28-3.02,2.41-3.57.39-7.18.45-10.77.46-.4,0-.8-1.18-1.2-1.82Z"/>
  <path class="uuid-297ea156-125c-4a1e-a39c-e011bff6597d" d="M295.93,42.2c-1.68-.01-3.37-.03-5.05-.04.01-.62.03-1.23.04-1.85v-.2c1.68.03,3.34.07,5.01.1.47.08.95.16,1.96.34-.86.73-1.41,1.19-1.96,1.65Z"/>
  <path class="uuid-e81d828d-d703-4c99-93ad-cfcda8bdd07e" d="M280.94,39.3c-1.67-.02-3.34-.05-5.01-.07.37-.96.74-1.92,1.17-3.04,2.06.53,3.81.74,3.84,3.11Z"/>
  <path class="uuid-e81d828d-d703-4c99-93ad-cfcda8bdd07e" d="M295.93,40.21l-5.01-.1c1.75-2.74,3.4-2.71,5.01.1Z"/>
  <path class="uuid-e81d828d-d703-4c99-93ad-cfcda8bdd07e" d="M287.95,39.39c-1.68-.01-3.36-.03-5.04-.04.3-3.54,2.8-1.55,4.53-2.31.24,1.11.37,1.73.5,2.35Z"/>
  <path class="uuid-e81d828d-d703-4c99-93ad-cfcda8bdd07e" d="M300.13,47.13c-.37-.32-.74-.64-1.11-.95.12-.21.25-.43.37-.64.49.2.97.4,1.46.61l-.72.99Z"/>
  <path class="uuid-76081d2f-a991-4f3c-8db2-20cc21ab5738" d="M223.91,29.44c.78.53,1.56,1.07,2.34,1.6-1.34.28-2.28-.02-2.34-1.6Z"/>
</svg>